<svg width="675" height="151" xmlns="http://www.w3.org/2000/svg"><path d="M271 142h9v-24h-9v24zm4.137-125.354L278 10.238C276.378 9.414 274.886 9 273.523 9c-1.304 0-2.398.314-3.284.94-.887.626-1.747 1.772-2.58 3.436V9.53H259V33h9.296v-7.868c0-3.756.477-6.32 1.431-7.69.667-.972 1.606-1.458 2.819-1.458.636 0 1.5.22 2.59.662zM253.63 88c1.972 0 4.095-.244 6.369-.73l-.677-6.224c-1.22.384-2.168.575-2.847.575-.753 0-1.28-.25-1.58-.751-.196-.324-.294-.987-.294-1.99v-8.333h5.06v-6.6h-5.06V55l-9.215 4.629v4.319H242v6.6h3.387v8.273c0 2.624.26 4.522.78 5.695s1.32 2.046 2.405 2.621c1.084.575 2.77.863 5.06.863zm7.846 48.621c-.753 0-1.28-.25-1.58-.75-.197-.325-.295-.988-.295-1.99v-8.333h5.06v-6.6h-5.06V110l-9.214 4.629v4.319H247v6.6h3.388v8.273c0 2.625.26 4.522.779 5.696.52 1.172 1.321 2.045 2.405 2.62 1.085.575 2.77.863 5.06.863 1.971 0 4.094-.243 6.368-.73l-.677-6.224c-1.22.384-2.168.575-2.846.575zM271 116h9v-6h-9v6zm42-28h9V64h-9v24zm-11.262 46.551c-.841.966-1.917 1.449-3.227 1.449-1.295 0-2.371-.49-3.227-1.47-.857-.98-1.284-2.494-1.284-4.541 0-2.017.431-3.52 1.295-4.508.863-.987 1.957-1.481 3.283-1.481 1.25 0 2.3.486 3.149 1.46.85.972 1.273 2.453 1.273 4.443 0 2.133-.421 3.683-1.262 4.648zM298.434 118c-4.117 0-7.385 1.182-9.804 3.547-2.42 2.365-3.63 5.372-3.63 9.021 0 3.918 1.43 7.087 4.294 9.505 2.33 1.952 5.384 2.927 9.161 2.927 4.235 0 7.55-1.174 9.948-3.525 2.398-2.349 3.597-5.364 3.597-9.042 0-3.273-.967-6.029-2.9-8.267-2.404-2.777-5.96-4.166-10.666-4.166zm-8.35-46.723c.723-.851 1.62-1.277 2.69-1.277 1.22 0 2.23.444 3.028 1.332.798.888 1.198 2.234 1.198 4.038 0 1.992-.393 3.429-1.175 4.31-.785.88-1.763 1.32-2.938 1.32-1.1 0-2.023-.436-2.769-1.31-.745-.873-1.118-2.248-1.118-4.125 0-2.006.361-3.435 1.084-4.288zm4.195 15.704c.979-.516 2.06-1.513 3.247-2.99v3.478H306V55h-9.14v11.251a8.748 8.748 0 00-3.06-2.126c-1.149-.472-2.428-.709-3.836-.709-2.892 0-5.275 1.034-7.15 3.101-1.877 2.067-2.814 5.05-2.814 8.948 0 3.484.848 6.445 2.547 8.88 1.697 2.437 4.155 3.655 7.372 3.655 1.602 0 3.055-.34 4.36-1.019zm-104.223-16.23c.866-1.167 2.026-1.751 3.478-1.751 1.257 0 2.27.386 3.041 1.16.77.772 1.245 2.053 1.425 3.84h-9c.15-1.439.502-2.522 1.056-3.25zM193.434 88c3.556 0 6.285-.522 8.187-1.565 1.902-1.044 3.527-2.767 4.874-5.17l-8.802-.832c-.558.72-1.076 1.224-1.56 1.509-.79.45-1.624.675-2.502.675-1.39 0-2.517-.518-3.38-1.554-.614-.72-1.003-1.816-1.163-3.288H207v-1.037c0-3.153-.505-5.712-1.515-7.68-1.01-1.967-2.48-3.468-4.412-4.505-1.932-1.035-4.566-1.553-7.903-1.553-4.112 0-7.335 1.156-9.67 3.469-2.334 2.312-3.5 5.337-3.5 9.076 0 2.628.581 4.914 1.745 6.858 1.163 1.946 2.63 3.364 4.401 4.257 1.77.893 4.2 1.34 7.288 1.34zm-85.518 46.73c-.723.847-1.62 1.27-2.69 1.27-1.22 0-2.23-.441-3.028-1.324-.799-.881-1.198-2.234-1.198-4.057 0-1.98.392-3.413 1.175-4.295.784-.883 1.763-1.324 2.938-1.324 1.085 0 2.004.437 2.757 1.312.753.876 1.13 2.246 1.13 4.112 0 2.025-.361 3.46-1.084 4.306zm.165-16.73c-1.602 0-3.063.347-4.382 1.04-.979.518-2.054 1.507-3.225 2.969v-3.478H92V151h9.14v-11.229a9.079 9.079 0 003.082 2.104c1.148.472 2.42.709 3.814.709 2.876 0 5.256-1.03 7.14-3.09 1.882-2.06 2.824-5.046 2.824-8.959 0-3.543-.864-6.518-2.591-8.925-1.728-2.406-4.17-3.61-7.328-3.61zm56.765-39.224c-.77.816-1.722 1.224-2.857 1.224-1.196 0-2.16-.394-2.89-1.181-.733-.788-1.099-1.996-1.099-3.628 0-1.858.348-3.187 1.042-3.989.695-.8 1.625-1.202 2.79-1.202s2.152.437 2.958 1.309c.807.872 1.21 2.13 1.21 3.776 0 1.645-.384 2.876-1.154 3.691zm9.21 12.565c.629-1.353.944-2.776.944-4.27l-.023-1.053v-22.48h-8.46v3.519c-1.035-1.45-2.15-2.488-3.34-3.116-1.192-.628-2.706-.941-4.541-.941-2.872 0-5.195.971-6.972 2.913-1.776 1.943-2.664 4.767-2.664 8.472 0 3.243.689 5.85 2.065 7.822 1.939 2.78 4.485 4.17 7.637 4.17a9.377 9.377 0 004.508-1.121c.888-.478 1.777-1.248 2.664-2.308v3.608c0 1.748-.322 2.973-.965 3.675-.644.703-1.618 1.053-2.92 1.053-1.007 0-1.843-.232-2.51-.694-.458-.314-.798-.882-1.02-1.703l-8.77-1.01c-.03.508-.045.912-.045 1.212 0 2.404.884 4.325 2.654 5.76 1.767 1.434 5.02 2.151 9.757 2.151 2.072 0 3.912-.187 5.518-.56 1.606-.374 2.931-.98 3.974-1.815 1.044-.838 1.88-1.932 2.51-3.284zm-34.141 43.39c-.723.846-1.62 1.269-2.69 1.269-1.22 0-2.23-.441-3.027-1.324-.8-.881-1.198-2.234-1.198-4.057 0-1.98.392-3.413 1.175-4.295.783-.883 1.763-1.324 2.937-1.324 1.086 0 2.004.437 2.757 1.312.754.876 1.131 2.246 1.131 4.112 0 2.025-.362 3.46-1.085 4.306zM140.08 118c-1.601 0-3.061.347-4.381 1.04-.979.518-2.054 1.507-3.225 2.969v-3.478H124V151h9.141v-11.229a9.076 9.076 0 003.08 2.104c1.15.472 2.421.709 3.815.709 2.877 0 5.256-1.03 7.14-3.09 1.882-2.06 2.824-5.046 2.824-8.959 0-3.543-.864-6.518-2.59-8.925-1.728-2.406-4.171-3.61-7.33-3.61zM234 132.506c0 1.175-.18 2.13-.536 2.863-.358.734-.961 1.356-1.814 1.866a5.289 5.289 0 01-2.765.765c-.947 0-1.665-.236-2.153-.707-.489-.471-.732-1.078-.732-1.82 0-.648.247-1.228.743-1.738.48-.495 1.625-.996 3.431-1.507A40.08 40.08 0 00234 131v1.506zm8.874 4.863v-10.563c0-1.126-.22-2.309-.662-3.547-.442-1.239-1.046-2.196-1.81-2.872-1.09-.975-2.451-1.618-4.085-1.926-1.633-.307-3.797-.461-6.49-.461-1.679 0-3.238.128-4.681.383s-2.576.616-3.4 1.08c-1.147.646-2.028 1.408-2.638 2.287-.611.878-1.079 2.083-1.402 3.615l8.588.923c.354-1.035.817-1.741 1.391-2.117.736-.48 1.84-.72 3.311-.72 1.148 0 1.95.224 2.407.675.455.45.685 1.239.685 2.365-1.12.45-2.18.815-3.18 1.093-1.001.277-3.187.762-6.557 1.452-2.811.572-4.74 1.441-5.784 2.613-1.045 1.17-1.567 2.665-1.567 4.482 0 1.937.724 3.567 2.174 4.887 1.45 1.322 3.573 1.982 6.37 1.982 2.104 0 3.951-.33 5.541-.99 1.162-.496 2.333-1.321 3.51-2.479.102.691.206 1.199.309 1.521.102.324.324.792.663 1.408H244c-.472-.991-.777-1.805-.916-2.444-.14-.638-.21-1.52-.21-2.647zm-40.175-1.441c-.8.616-1.785.924-2.958.924-1.407 0-2.565-.51-3.473-1.529-.91-1.02-1.363-2.51-1.363-4.474 0-2.204.457-3.848 1.374-4.936.916-1.085 2.114-1.629 3.595-1.629 1.172 0 2.107.259 2.803.777.696.518 1.176 1.288 1.44 2.309l8.421-1.15c-.806-2.686-2.21-4.73-4.21-6.125-2.001-1.397-4.907-2.095-8.719-2.095-2.726 0-4.96.367-6.705 1.103-1.1.464-2.17 1.173-3.21 2.126a11.082 11.082 0 00-2.463 3.23c-.822 1.635-1.231 3.682-1.231 6.143 0 2.355.337 4.245 1.01 5.67a11.561 11.561 0 002.793 3.725c1.188 1.057 2.606 1.823 4.255 2.295 1.65.472 3.712.708 6.189.708 2.565 0 4.68-.368 6.344-1.103 1.662-.735 3.03-1.768 4.1-3.097 1.07-1.33 1.84-2.902 2.309-4.719l-8.509-.99c-.396 1.276-.994 2.221-1.792 2.837zM171 142h9v-24h-9v24zm163.986-24c-1.856 0-3.429.335-4.72 1.005-1.29.671-2.568 1.787-3.829 3.349v-3.824H318V142h9.06v-11.27c0-2.137.342-3.617 1.025-4.443.682-.825 1.572-1.238 2.671-1.238.994 0 1.766.307 2.315.918.55.611.824 1.654.824 3.127V142H343v-14.917c0-3.094-.71-5.381-2.126-6.862-1.417-1.48-3.38-2.221-5.888-2.221zM171 116h9v-6h-9v6zm-16 26h9v-33h-9v33zm401.056-62.791L551.456 64H542l9.861 24h8.06L570 64h-9.171l-4.773 15.209zm-23.817-14.27c-.887.627-1.747 1.772-2.58 3.437V64.53H521V88h9.296v-7.867c0-3.758.477-6.321 1.432-7.691.665-.972 1.605-1.459 2.817-1.459.637 0 1.5.221 2.59.664l2.865-6.41c-1.622-.825-3.113-1.237-4.477-1.237-1.304 0-2.398.313-3.284.94zM574 88h9V64h-9v24zm54-14c.149-1.439.5-2.522 1.055-3.25.867-1.166 2.027-1.75 3.478-1.75 1.257 0 2.27.386 3.041 1.16.771.772 1.246 2.053 1.426 3.84h-9zm12.073-9.447C638.142 63.518 635.508 63 632.17 63c-4.112 0-7.335 1.156-9.67 3.469-2.334 2.312-3.5 5.337-3.5 9.076 0 2.628.582 4.914 1.745 6.858 1.163 1.946 2.63 3.364 4.401 4.257 1.77.893 4.2 1.34 7.288 1.34 3.556 0 6.286-.522 8.188-1.565 1.902-1.044 3.526-2.767 4.873-5.17l-8.802-.832c-.557.72-1.076 1.224-1.559 1.509-.79.45-1.625.675-2.502.675-1.391 0-2.517-.518-3.38-1.554-.615-.72-1.003-1.816-1.164-3.288H646v-1.037c0-3.153-.505-5.712-1.515-7.68-1.01-1.967-2.48-3.468-4.412-4.505zm33.765 11.387c-.775-1.14-1.893-2.017-3.355-2.632-1.462-.616-3.69-1.096-6.688-1.44-1.978-.24-3.262-.51-3.852-.81-.591-.3-.886-.742-.886-1.328 0-.523.232-.97.697-1.337.465-.368 1.207-.55 2.226-.55 1.003 0 1.86.24 2.568.72.517.36.886.924 1.107 1.689l8.548-.856c-.591-1.56-1.333-2.8-2.225-3.716-.894-.916-2.009-1.591-3.344-2.027-1.336-.436-3.407-.653-6.211-.653-2.657 0-4.776.28-6.356.843s-2.82 1.415-3.72 2.555c-.9 1.139-1.35 2.497-1.35 4.072 0 1.44.416 2.723 1.251 3.848.833 1.125 1.86 1.924 3.077 2.396 1.218.472 3.392.986 6.522 1.54 2.096.376 3.388.69 3.875.946.679.36 1.019.869 1.019 1.528 0 .586-.259 1.073-.775 1.462-.664.525-1.602.788-2.813.788-1.107 0-1.993-.233-2.657-.699-.664-.465-1.181-1.238-1.55-2.32l-8.946.857c.517 2.297 1.686 4.069 3.51 5.315 1.823 1.246 4.882 1.869 9.178 1.869 3.041 0 5.444-.386 7.209-1.158 1.762-.774 3.055-1.811 3.875-3.116.818-1.306 1.228-2.648 1.228-4.029a6.542 6.542 0 00-1.162-3.757zm-69.139 4.988c-.8.616-1.785.923-2.957.923-1.408 0-2.565-.51-3.474-1.528-.91-1.02-1.363-2.51-1.363-4.474 0-2.204.458-3.848 1.374-4.936.915-1.085 2.113-1.629 3.594-1.629 1.173 0 2.107.259 2.804.777.696.518 1.177 1.287 1.44 2.309l8.42-1.15c-.806-2.687-2.209-4.73-4.21-6.125-2-1.397-4.907-2.095-8.717-2.095-2.726 0-4.962.367-6.706 1.102-1.1.465-2.17 1.174-3.21 2.127a11.079 11.079 0 00-2.462 3.229C588.41 71.094 588 73.14 588 75.6c0 2.356.337 4.246 1.012 5.671a11.55 11.55 0 002.792 3.725c1.187 1.057 2.605 1.823 4.254 2.295 1.65.472 3.712.708 6.19.708 2.564 0 4.678-.368 6.343-1.104 1.663-.734 3.03-1.767 4.1-3.096 1.07-1.33 1.84-2.902 2.309-4.719l-8.51-.99c-.395 1.276-.993 2.221-1.791 2.837zM498 74c.15-1.439.502-2.522 1.056-3.25.866-1.166 2.026-1.75 3.478-1.75 1.257 0 2.27.386 3.041 1.16.77.772 1.245 2.053 1.425 3.84h-9zm12.073-9.447C508.141 63.518 505.507 63 502.17 63c-4.112 0-7.335 1.156-9.67 3.469-2.334 2.312-3.5 5.337-3.5 9.076 0 2.628.581 4.914 1.745 6.858 1.163 1.946 2.63 3.364 4.401 4.257 1.77.893 4.2 1.34 7.288 1.34 3.556 0 6.285-.522 8.187-1.565 1.902-1.044 3.527-2.767 4.874-5.17l-8.802-.832c-.558.72-1.076 1.224-1.56 1.509-.79.45-1.623.675-2.502.675-1.39 0-2.517-.518-3.38-1.554-.614-.72-1.003-1.816-1.163-3.288H516v-1.037c0-3.153-.505-5.712-1.515-7.68-1.01-1.967-2.48-3.468-4.412-4.505zM574 61h9v-6h-9v6zM413 77.506c0 1.175-.178 2.13-.536 2.863-.357.735-.961 1.357-1.813 1.866a5.29 5.29 0 01-2.765.765c-.948 0-1.665-.235-2.154-.706-.488-.472-.732-1.079-.732-1.82 0-.65.248-1.229.743-1.74.482-.493 1.625-.996 3.432-1.506A40.06 40.06 0 00413 76v1.506zm8.874 4.863V71.806c0-1.126-.22-2.309-.662-3.548-.441-1.238-1.045-2.195-1.81-2.87-1.09-.977-2.451-1.619-4.084-1.927-1.634-.307-3.798-.461-6.491-.461-1.678 0-3.238.128-4.68.382-1.443.256-2.577.617-3.4 1.082-1.148.645-2.029 1.407-2.639 2.285-.61.88-1.079 2.084-1.402 3.616l8.589.923c.353-1.036.817-1.741 1.39-2.117.736-.48 1.84-.72 3.312-.72 1.148 0 1.95.224 2.406.675.456.45.685 1.239.685 2.365-1.12.45-2.179.814-3.18 1.092-1.001.278-3.187.763-6.556 1.453-2.812.57-4.74 1.441-5.785 2.613-1.045 1.17-1.567 2.665-1.567 4.481 0 1.938.725 3.567 2.174 4.888 1.45 1.321 3.573 1.982 6.37 1.982 2.105 0 3.952-.33 5.541-.99 1.163-.497 2.333-1.321 3.51-2.479.103.691.206 1.198.31 1.521.102.324.323.792.662 1.408H423c-.472-.991-.776-1.805-.916-2.444-.14-.638-.21-1.52-.21-2.647zm-33.398-.748c-.753 0-1.279-.25-1.58-.751-.196-.324-.294-.987-.294-1.99v-8.333h5.06v-6.6h-5.06V55l-9.214 4.629v4.319H374v6.6h3.388v8.273c0 2.624.26 4.522.779 5.695.52 1.173 1.321 2.046 2.405 2.621 1.085.575 2.77.863 5.06.863 1.971 0 4.094-.244 6.368-.73l-.677-6.224c-1.22.384-2.168.575-2.847.575zm-11.931-65.637c.637 0 1.5.22 2.592.662L382 10.238C380.378 9.414 378.886 9 377.522 9c-1.303 0-2.398.314-3.284.94-.886.626-1.747 1.772-2.58 3.436V9.53H363V33h9.295v-7.868c0-3.756.477-6.32 1.432-7.69.667-.972 1.605-1.458 2.818-1.458zm-9.062 112.324c-1.461-.616-3.69-1.096-6.688-1.44-1.978-.24-3.262-.51-3.852-.81-.591-.3-.886-.741-.886-1.327 0-.524.232-.97.697-1.337.465-.369 1.207-.551 2.226-.551 1.004 0 1.86.24 2.568.72.517.36.886.924 1.107 1.69l8.548-.857c-.59-1.56-1.332-2.8-2.225-3.716-.894-.916-2.008-1.591-3.344-2.027-1.336-.436-3.407-.653-6.211-.653-2.657 0-4.776.282-6.355.843-1.58.563-2.82 1.415-3.72 2.555-.902 1.14-1.351 2.497-1.351 4.072 0 1.44.416 2.723 1.251 3.848.833 1.125 1.86 1.924 3.078 2.396 1.217.472 3.39.986 6.52 1.54 2.097.376 3.39.69 3.876.946.679.36 1.019.869 1.019 1.528 0 .586-.259 1.073-.775 1.462-.664.525-1.602.788-2.812.788-1.108 0-1.993-.233-2.658-.699-.664-.464-1.181-1.238-1.55-2.32l-8.946.857c.517 2.297 1.686 4.069 3.51 5.315 1.823 1.247 4.883 1.869 9.178 1.869 3.041 0 5.444-.385 7.209-1.158 1.762-.773 3.055-1.811 3.875-3.116.819-1.306 1.228-2.648 1.228-4.029a6.544 6.544 0 00-1.162-3.757c-.775-1.14-1.893-2.016-3.355-2.632zm-23.637-49.532c-.77.816-1.722 1.224-2.857 1.224-1.195 0-2.159-.394-2.89-1.181-.733-.788-1.099-1.996-1.099-3.628 0-1.858.347-3.187 1.042-3.989.695-.8 1.625-1.202 2.79-1.202s2.151.437 2.958 1.309c.807.872 1.21 2.13 1.21 3.776 0 1.645-.385 2.876-1.154 3.691zm9.21 12.565c.63-1.353.944-2.776.944-4.27l-.022-1.053v-22.48h-8.46v3.519c-1.036-1.45-2.15-2.488-3.341-3.116-1.192-.628-2.706-.941-4.54-.941-2.873 0-5.196.971-6.973 2.913-1.776 1.943-2.664 4.767-2.664 8.472 0 3.243.689 5.85 2.065 7.822 1.94 2.78 4.485 4.17 7.638 4.17a9.38 9.38 0 004.507-1.121c.889-.478 1.776-1.248 2.665-2.308v3.608c0 1.748-.322 2.973-.966 3.675-.644.703-1.617 1.053-2.92 1.053-1.007 0-1.843-.232-2.51-.694-.458-.314-.798-.882-1.02-1.703l-8.77-1.01c-.031.508-.045.912-.045 1.212 0 2.404.884 4.325 2.653 5.76 1.768 1.434 5.021 2.151 9.759 2.151 2.072 0 3.91-.187 5.517-.56 1.606-.374 2.93-.98 3.974-1.815 1.045-.838 1.88-1.932 2.51-3.284zM437.376.675c-1.047.45-1.86 1.04-2.44 1.771-.58.73-.975 1.67-1.186 2.822-.211 1.15-.316 2.207-.316 3.165v1.062H430v6.595h3.434V33h9.217V16.09h4.383V9.495h-4.383c0-1.046.037-1.733.113-2.058.15-.59.407-1.022.769-1.295.36-.272.956-.41 1.784-.41.678 0 1.566.09 2.666.266L449 .554C445.927.185 443.585 0 441.974 0c-2.02 0-3.551.227-4.598.675zM429 88h9V55h-9v33zm51.482-14.692c-1.46-.616-3.69-1.096-6.687-1.44-1.979-.24-3.263-.51-3.853-.81-.591-.3-.886-.742-.886-1.328 0-.523.233-.97.697-1.337.466-.368 1.208-.55 2.226-.55 1.004 0 1.86.24 2.569.72.516.36.886.924 1.107 1.689l8.547-.856c-.59-1.56-1.332-2.8-2.225-3.716-.893-.916-2.008-1.591-3.344-2.027-1.336-.436-3.407-.653-6.211-.653-2.657 0-4.776.28-6.355.843-1.58.563-2.82 1.415-3.72 2.555-.9 1.139-1.35 2.497-1.35 4.072 0 1.44.416 2.723 1.25 3.848.834 1.125 1.86 1.924 3.078 2.396 1.218.472 3.391.986 6.521 1.54 2.096.376 3.388.69 3.876.946.678.36 1.018.869 1.018 1.528 0 .586-.259 1.073-.775 1.462-.664.525-1.602.788-2.812.788-1.107 0-1.993-.233-2.658-.699-.664-.465-1.181-1.238-1.55-2.32l-8.945.857c.516 2.297 1.686 4.069 3.509 5.315 1.823 1.246 4.883 1.869 9.178 1.869 3.041 0 5.444-.386 7.209-1.158 1.763-.774 3.055-1.811 3.875-3.116.82-1.306 1.229-2.648 1.229-4.029a6.543 6.543 0 00-1.163-3.757c-.775-1.14-1.893-2.017-3.355-2.632zM416.738 25.55c-.841.967-1.917 1.449-3.227 1.449-1.295 0-2.371-.49-3.227-1.47-.857-.979-1.284-2.493-1.284-4.54 0-2.018.431-3.52 1.295-4.509.863-.987 1.957-1.481 3.283-1.481 1.251 0 2.3.486 3.15 1.459.848.973 1.272 2.455 1.272 4.444 0 2.134-.42 3.684-1.262 4.648zM414.433 9c-4.116 0-7.385 1.183-9.804 3.548-2.42 2.364-3.629 5.372-3.629 9.02 0 3.919 1.43 7.088 4.293 9.504 2.33 1.953 5.386 2.928 9.163 2.928 4.234 0 7.55-1.175 9.948-3.524 2.397-2.35 3.596-5.364 3.596-9.044 0-3.271-.966-6.027-2.9-8.265C422.696 10.39 419.14 9 414.434 9zM48.061 21.729c0-2.135.34-3.616 1.024-4.442.682-.823 1.572-1.237 2.671-1.237.994 0 1.766.306 2.315.917.55.613.824 1.654.824 3.127V33H64V18.083c0-3.094-.71-5.38-2.126-6.862C60.457 9.74 58.494 9 55.986 9c-1.856 0-3.429.336-4.72 1.006-1.29.671-2.568 1.787-3.829 3.348V9.53H39V33h9.06V21.729zm104.743 9.268c1.187 1.057 2.605 1.822 4.254 2.295 1.65.472 3.712.708 6.19.708 2.564 0 4.68-.367 6.343-1.104 1.663-.734 3.03-1.767 4.1-3.097 1.07-1.328 1.84-2.9 2.309-4.718l-8.509-.99c-.396 1.277-.994 2.223-1.792 2.837-.8.616-1.785.923-2.957.923-1.408 0-2.565-.509-3.474-1.528-.91-1.02-1.363-2.51-1.363-4.474 0-2.203.458-3.848 1.374-4.934.915-1.088 2.114-1.631 3.594-1.631 1.173 0 2.107.26 2.804.777.696.518 1.177 1.289 1.44 2.308l8.42-1.148c-.806-2.687-2.209-4.73-4.21-6.126-2-1.397-4.907-2.095-8.717-2.095-2.726 0-4.962.369-6.706 1.103-1.1.466-2.17 1.174-3.21 2.127a11.09 11.09 0 00-2.462 3.228c-.822 1.636-1.232 3.684-1.232 6.143 0 2.356.337 4.246 1.012 5.671a11.558 11.558 0 002.792 3.725zm-31 0c1.187 1.057 2.605 1.822 4.254 2.295 1.65.472 3.712.708 6.189.708 2.565 0 4.68-.367 6.344-1.104 1.662-.734 3.03-1.767 4.1-3.097 1.07-1.328 1.84-2.9 2.309-4.718l-8.509-.99c-.396 1.277-.994 2.223-1.792 2.837-.8.616-1.785.923-2.957.923-1.407 0-2.566-.509-3.474-1.528-.91-1.02-1.363-2.51-1.363-4.474 0-2.203.457-3.848 1.374-4.934.916-1.088 2.114-1.631 3.595-1.631 1.172 0 2.107.26 2.803.777.696.518 1.176 1.289 1.44 2.308l8.421-1.148c-.806-2.687-2.21-4.73-4.21-6.126C138.326 9.698 135.42 9 131.608 9c-2.726 0-4.96.369-6.705 1.103-1.1.466-2.17 1.174-3.21 2.127a11.103 11.103 0 00-2.463 3.228c-.822 1.636-1.231 3.684-1.231 6.143 0 2.356.337 4.246 1.012 5.671a11.556 11.556 0 002.791 3.725zM80.053 70.75c.868-1.166 2.028-1.75 3.48-1.75 1.256 0 2.27.386 3.041 1.16.77.772 1.246 2.053 1.425 3.84h-9c.149-1.439.5-2.522 1.055-3.25zm16.441 10.515l-8.802-.832c-.557.72-1.076 1.224-1.559 1.509a4.98 4.98 0 01-2.503.675c-1.39 0-2.516-.518-3.38-1.554-.614-.72-1.003-1.816-1.163-3.288H97v-1.037c0-3.153-.505-5.712-1.515-7.68-1.01-1.967-2.48-3.468-4.412-4.505C89.142 63.518 86.507 63 83.17 63c-4.112 0-7.335 1.156-9.67 3.469-2.334 2.312-3.5 5.337-3.5 9.076 0 2.628.582 4.914 1.745 6.858 1.163 1.946 2.63 3.364 4.401 4.257 1.77.893 4.2 1.34 7.288 1.34 3.556 0 6.285-.522 8.188-1.565 1.902-1.044 3.526-2.767 4.873-5.17zM118 88h9V55h-9v33zm-15-64.493c0 1.176-.18 2.13-.536 2.863-.357.735-.961 1.355-1.814 1.865a5.286 5.286 0 01-2.765.765c-.947 0-1.665-.235-2.153-.707-.488-.47-.732-1.077-.732-1.819 0-.65.247-1.228.743-1.739.48-.493 1.625-.996 3.432-1.506 1.325-.354 2.6-.765 3.825-1.229v1.507zm-9.649-3.47c-2.811.57-4.74 1.44-5.784 2.612C86.522 23.82 86 25.314 86 27.131c0 1.937.724 3.566 2.174 4.887C89.624 33.34 91.747 34 94.544 34c2.104 0 3.951-.33 5.541-.99 1.162-.497 2.333-1.322 3.51-2.478.103.691.206 1.198.309 1.52.102.323.324.793.663 1.408H113c-.472-.991-.777-1.806-.916-2.444-.14-.637-.21-1.52-.21-2.647V17.807c0-1.126-.22-2.31-.662-3.548-.442-1.239-1.046-2.196-1.81-2.871-1.09-.975-2.451-1.617-4.085-1.926-1.633-.307-3.797-.462-6.49-.462-1.679 0-3.238.13-4.68.383-1.444.256-2.577.616-3.4 1.081-1.148.647-2.029 1.408-2.639 2.286-.611.879-1.079 2.083-1.402 3.615l8.588.924c.354-1.037.817-1.74 1.391-2.117.736-.48 1.84-.721 3.312-.721 1.147 0 1.95.225 2.406.675.456.451.685 1.24.685 2.365-1.12.45-2.18.816-3.18 1.092-1.001.279-3.187.763-6.557 1.453zM134 88h9V64h-9v24zm0-27h9v-6h-9v6zm78-28h9V0h-9v33zm148 28h9v-6h-9v6zm0 27h9V64h-9v24zm-258 0h9V55h-9v33zm119.438-23.47H213V88h9.06V76.73c0-2.137.342-3.617 1.025-4.443.682-.825 1.573-1.238 2.671-1.238.994 0 1.766.307 2.315.918.55.611.824 1.654.824 3.127V88H238V73.083c0-3.094-.71-5.381-2.126-6.862-1.417-1.48-3.38-2.221-5.888-2.221-1.856 0-3.428.335-4.72 1.005-1.29.671-2.567 1.787-3.828 3.348V64.53zm119.857-48.049c.864-.987 1.958-1.481 3.283-1.481 1.25 0 2.3.486 3.149 1.459.848.973 1.273 2.455 1.273 4.444 0 2.134-.421 3.684-1.262 4.648-.841.967-1.917 1.449-3.227 1.449-1.295 0-2.371-.49-3.227-1.47-.856-.979-1.284-2.493-1.284-4.54 0-2.018.432-3.52 1.295-4.509zm-6.001 14.59c2.33 1.954 5.385 2.929 9.162 2.929 4.234 0 7.55-1.175 9.948-3.524 2.397-2.35 3.596-5.364 3.596-9.044 0-3.271-.966-6.027-2.9-8.265C352.697 10.39 349.14 9 344.435 9c-4.116 0-7.385 1.183-9.805 3.548-2.42 2.364-3.629 5.372-3.629 9.02 0 3.919 1.431 7.088 4.294 9.504zm-98.24-15.32c.868-1.167 2.028-1.751 3.48-1.751 1.257 0 2.27.386 3.041 1.16.77.772 1.245 2.053 1.425 3.84h-9c.15-1.439.5-2.522 1.055-3.25zm-3.907 16.909c1.77.894 4.2 1.34 7.288 1.34 3.556 0 6.285-.521 8.187-1.565 1.902-1.043 3.527-2.766 4.873-5.17l-8.802-.833c-.557.72-1.075 1.225-1.559 1.51-.79.45-1.624.675-2.502.675-1.39 0-2.517-.518-3.38-1.554-.615-.72-1.003-1.816-1.164-3.288H254v-1.036c0-3.153-.505-5.712-1.514-7.68-1.01-1.966-2.48-3.469-4.413-4.505C246.142 9.518 243.508 9 240.171 9c-4.112 0-7.336 1.157-9.67 3.468-2.334 2.314-3.501 5.339-3.501 9.077 0 2.629.582 4.915 1.745 6.858 1.164 1.945 2.631 3.364 4.402 4.257zM313 61h9v-6h-9v6zm-17-37.493c0 1.176-.18 2.13-.536 2.863-.357.735-.961 1.355-1.814 1.865a5.286 5.286 0 01-2.765.765c-.947 0-1.665-.235-2.153-.707-.488-.47-.732-1.077-.732-1.819 0-.65.248-1.228.743-1.739.48-.493 1.625-.996 3.432-1.506A39.825 39.825 0 00296 22v1.507zm-9.649-3.47c-2.811.57-4.74 1.44-5.784 2.612-1.045 1.171-1.567 2.665-1.567 4.482 0 1.937.724 3.566 2.174 4.887 1.45 1.322 3.573 1.982 6.37 1.982 2.104 0 3.951-.33 5.541-.99 1.163-.497 2.333-1.322 3.51-2.478.103.691.206 1.198.31 1.52.102.323.323.793.662 1.408H306c-.472-.991-.777-1.806-.916-2.444-.14-.637-.21-1.52-.21-2.647V17.807c0-1.126-.22-2.31-.662-3.548-.442-1.239-1.046-2.196-1.81-2.871-1.09-.975-2.451-1.617-4.084-1.926-1.634-.307-3.798-.462-6.491-.462-1.679 0-3.238.13-4.68.383-1.443.256-2.577.616-3.4 1.081-1.148.647-2.029 1.408-2.639 2.286-.611.879-1.079 2.083-1.402 3.615l8.589.924c.353-1.037.816-1.74 1.39-2.117.736-.48 1.84-.721 3.312-.721 1.148 0 1.95.225 2.406.675.456.451.685 1.24.685 2.365-1.12.45-2.179.816-3.18 1.092-1.001.279-3.187.763-6.557 1.453zm27.036 4.784c0 2.625.26 4.523.78 5.695.519 1.172 1.32 2.046 2.405 2.622 1.084.574 2.77.862 5.06.862 1.97 0 4.094-.244 6.368-.73l-.678-6.223c-1.22.383-2.168.574-2.846.574-.753 0-1.28-.25-1.58-.751-.196-.324-.294-.987-.294-1.989v-8.334h5.059v-6.6h-5.06V1l-9.214 4.629v4.319H310v6.6h3.387v8.273zm-123.332-9.07c.867-1.167 2.027-1.751 3.478-1.751 1.257 0 2.27.386 3.041 1.16.771.772 1.246 2.053 1.426 3.84h-9c.149-1.439.5-2.522 1.055-3.25zm-3.909 16.909c1.77.894 4.2 1.34 7.288 1.34 3.556 0 6.286-.521 8.188-1.565 1.902-1.043 3.526-2.766 4.873-5.17l-8.802-.833c-.557.72-1.076 1.225-1.559 1.51-.79.45-1.624.675-2.502.675-1.391 0-2.517-.518-3.38-1.554-.615-.72-1.003-1.816-1.164-3.288H207v-1.036c0-3.153-.505-5.712-1.515-7.68-1.01-1.966-2.48-3.469-4.412-4.505C199.142 9.518 196.508 9 193.17 9c-4.112 0-7.335 1.157-9.67 3.468-2.334 2.314-3.5 5.339-3.5 9.077 0 2.629.582 4.915 1.745 6.858 1.163 1.945 2.63 3.364 4.401 4.257zM16.81 137c-1.427 0-2.584-.404-3.475-1.21-.89-.806-1.334-1.726-1.334-2.759 0-.664.194-1.294.583-1.888.388-.594 1.175-1.308 2.362-2.143 2.867 2.716 5.219 4.782 7.055 6.196-1.92 1.203-3.652 1.804-5.19 1.804zm.042-22.162c.567-.56 1.301-.838 2.204-.838.916 0 1.636.253 2.16.756.523.504.785 1.12.785 1.849 0 .697-.313 1.438-.938 2.22-.626.784-1.513 1.508-2.662 2.175-1.6-1.83-2.4-3.224-2.4-4.186 0-.76.283-1.418.85-1.976zm16.178 19.185c.618-1.077 1.096-2.011 1.436-2.805.338-.793.692-1.848 1.06-3.165l-7.027-1.593a20.73 20.73 0 01-1.17 2.94 57.714 57.714 0 01-4.928-4.466c1.9-1.271 3.218-2.229 3.955-2.872.737-.644 1.366-1.482 1.89-2.514a7.074 7.074 0 00.784-3.232c0-2.005-.855-3.725-2.563-5.162-1.71-1.436-4.383-2.154-8.021-2.154-3.565 0-6.224.755-7.977 2.266-1.753 1.512-2.63 3.434-2.63 5.768 0 1.108.221 2.196.663 3.265.443 1.07 1.252 2.331 2.431 3.782-2.814 1.153-4.839 2.563-6.077 4.23C3.618 129.982 3 131.75 3 133.62c0 2.603 1.052 4.817 3.16 6.642 2.106 1.826 5.317 2.738 9.634 2.738 2.754 0 5.214-.33 7.38-.987 1.56-.479 3.122-1.241 4.684-2.29.751.45 1.602.988 2.552 1.617.95.628 1.867 1.18 2.751 1.66L38 137.345a33.916 33.916 0 01-1.591-.965l-3.38-2.357zM3 88h9V64H3v24zm74 44.506c0 1.175-.178 2.13-.536 2.863-.357.734-.961 1.356-1.813 1.866a5.29 5.29 0 01-2.765.765c-.948 0-1.665-.236-2.154-.707-.488-.471-.732-1.078-.732-1.82 0-.648.248-1.228.743-1.738.482-.495 1.625-.996 3.432-1.507A40.063 40.063 0 0077 131v1.506zm8.874 4.863v-10.563c0-1.126-.22-2.309-.662-3.547-.442-1.239-1.046-2.196-1.81-2.872-1.09-.975-2.452-1.618-4.085-1.926-1.633-.307-3.797-.461-6.49-.461-1.678 0-3.239.128-4.68.383-1.443.255-2.576.616-3.4 1.08-1.149.646-2.029 1.408-2.639 2.287-.61.878-1.078 2.083-1.402 3.615l8.588.923c.353-1.035.817-1.741 1.392-2.117.735-.48 1.839-.72 3.31-.72 1.149 0 1.95.224 2.407.675.456.45.684 1.239.684 2.365-1.119.45-2.178.815-3.178 1.093-1.002.277-3.188.762-6.557 1.452-2.812.572-4.74 1.441-5.784 2.613-1.046 1.17-1.568 2.665-1.568 4.482 0 1.937.725 3.567 2.175 4.887 1.448 1.322 3.572 1.982 6.369 1.982 2.104 0 3.952-.33 5.54-.99 1.163-.496 2.333-1.321 3.511-2.479.103.691.206 1.199.31 1.521.102.324.322.792.661 1.408H87c-.472-.991-.777-1.805-.916-2.444-.14-.638-.21-1.52-.21-2.647zM65.323 81.046c-1.22.384-2.168.575-2.847.575-.753 0-1.279-.25-1.58-.751-.196-.324-.294-.987-.294-1.99v-8.333h5.06v-6.6h-5.06V55l-9.214 4.629v4.319H48v6.6h3.388v8.273c0 2.624.26 4.522.779 5.695.52 1.173 1.321 2.046 2.405 2.621 1.085.575 2.77.863 5.06.863 1.971 0 4.094-.244 6.368-.73l-.677-6.224zM3 61h9v-6H3v6zm32.986 3c-1.856 0-3.429.335-4.72 1.005-1.291.671-2.568 1.787-3.829 3.348V64.53H19V88h9.06V76.73c0-2.137.341-3.617 1.024-4.443.682-.825 1.573-1.238 2.672-1.238.993 0 1.765.307 2.315.918.548.611.824 1.654.824 3.127V88H44V73.083c0-3.094-.71-5.381-2.127-6.862-1.417-1.48-3.38-2.221-5.887-2.221zM17.482 9L21 21h-7l3.482-12zM11.71 27.553h11.277L24.598 33H35L22.92 0H12.083L0 33h10.143l1.568-5.447z" fill="#FFF" fill-rule="evenodd"/></svg>