<?xml version="1.0" encoding="UTF-8"?>
<svg width="144px" height="41px" viewBox="0 0 144 41" version="1.1" xmlns="http://www.w3.org/2000/svg" xmlns:xlink="http://www.w3.org/1999/xlink">
    <title>画板</title>
    <g id="画板" stroke="none" stroke-width="1" fill="none" fill-rule="evenodd">
        <g id="编组" transform="translate(7.500000, 8.060386)" fill="#E50113">
            <path d="M103.392388,0.0498195429 L103.392388,0.00409606185 L97.790376,0.00409606185 C97.2187421,0.00409606185 96.8881472,0.36226333 96.8881472,0.919518256 L96.8881472,25.9550293 L102.494923,25.9550293 C103.057029,25.9550293 103.392388,25.5854312 103.392388,25.0357968 L103.392388,17.2847142 L103.392388,13.6963735 L103.392388,5.43566459 L103.392388,0.0498195429 Z" id="Fill-1"></path>
            <path d="M82.235171,14.3872744 L76.6083885,14.3872744 L76.6083885,22.7441931 L82.3885594,22.7441931 C85.7430974,22.808968 87.3884501,21.442979 87.3274758,18.6452735 C87.2645961,15.8494732 85.568749,14.4301401 82.235171,14.3872744 L82.235171,14.3872744 Z M76.6083885,3.21074094 L76.6083885,10.7036764 L81.8064456,10.7036764 C84.7513126,10.7036764 86.2232698,9.42341894 86.2232698,6.86099885 C86.2642369,4.38526287 84.71892,3.16882775 81.5911302,3.21074094 L76.6083885,3.21074094 Z M82.9401861,25.9467419 L71.7037701,25.9467419 C71.201685,25.9467419 70.7939195,25.5218946 70.7939195,24.9979797 L70.7939195,0.990294395 C70.7939195,0.465426935 71.201685,0.0405795895 71.7037701,0.0405795895 L83.0335529,0.0405795895 C88.4307292,0.083445353 91.1612335,2.17529461 91.2222078,6.31707994 C91.3241492,9.39103147 89.8817264,11.3761926 86.8987504,12.2725634 C90.4142986,13.1489301 92.2139925,15.2093444 92.2959267,18.4538065 C92.4988567,23.6205598 89.3824995,26.1172524 82.9401861,25.9467419 L82.9401861,25.9467419 Z" id="Fill-3"></path>
            <path d="M118.928062,3.21035992 L115.651647,3.21035992 C115.148609,3.21035992 114.741797,3.63520726 114.741797,4.16007472 L114.741797,13.233328 L118.928062,13.233328 C122.48553,13.3409687 124.20329,11.6644411 124.079436,8.2066028 C124.142315,4.81163433 122.424556,3.14653756 118.928062,3.21035992 M119.939854,16.4358768 L114.741797,16.4358768 L114.741797,24.9975987 C114.741797,25.5224661 114.334984,25.9473135 113.832899,25.9473135 L109.837178,25.9473135 C109.335093,25.9473135 108.92828,25.5224661 108.92828,24.9975987 L108.92828,0.989913366 C108.92828,0.465998478 109.335093,0.0401985605 109.837178,0.0401985605 L120.001781,0.0401985605 C126.053478,0.0621077285 129.089806,2.78456 129.109813,8.2066028 C129.253675,13.8210652 126.197339,16.5644741 119.939854,16.4358768" id="Fill-5"></path>
            <path d="M46.1475451,9.91599419 C45.4463409,10.1322282 44.957594,10.767594 44.957594,11.6220516 L44.957594,25.6134368 L45.0080883,25.6639231 L45.0080883,25.6134368 L50.919735,25.6134368 C51.5332887,25.6134368 51.8638836,25.2314552 51.8638836,24.6665797 L51.8638836,12.6098693 C55.8872331,11.5477509 58.4795926,12.6698814 58.4795926,14.3626027 L58.4795926,24.7161135 C58.4795926,25.2771787 58.7577878,25.6134368 59.3884904,25.6134368 L65.3306243,25.6134368 L65.3306243,14.6540899 C65.3306243,9.12440642 58.2738044,6.5076897 46.1475451,9.91599419 M35.7666744,18.6234596 C34.1584779,21.6574031 32.1167923,22.9281348 29.7264101,21.9688943 C27.3674677,21.0096538 27.1226179,18.6444162 28.8899192,15.3294638 C30.5752864,12.1916899 32.6179246,10.970492 34.9358999,11.9783137 C37.2824568,12.9899457 37.5520775,15.2942187 35.7666744,18.6234596 M32.3340132,8.13468357 C28.8899192,8.13468357 26.330905,9.00819257 24.4235534,10.7104397 C22.6391031,12.2983781 21.6025404,14.8684187 21.6025404,16.9659834 C21.6025404,19.574127 22.6924556,21.8060044 24.3359029,23.2786815 C26.2299164,24.9790235 29.1519181,25.8182399 32.3340132,25.8182399 C35.7666744,25.8182399 38.3676084,24.9237743 40.3092581,23.2272426 C42.1060938,21.6354939 43.0988312,18.9997258 43.0988312,16.9659834 C43.0988312,14.3787965 42.2089879,12.2802792 40.381665,10.6685265 C38.4390626,8.99390399 35.7666744,8.13468357 32.3340132,8.13468357" id="Fill-7"></path>
            <path d="M25.9389548,-1.57664718e-14 L20.6360981,-1.57664718e-14 C20.3674302,-1.57664718e-14 20.116864,0.136217871 19.9701447,0.361977559 L13.3487193,10.6116579 L6.72729386,0.361977559 C6.58152723,0.136217871 6.33096106,-1.57664718e-14 6.06134043,-1.57664718e-14 L0.793734524,-1.57664718e-14 C0.153504615,-1.57664718e-14 -0.221868279,0.719192255 0.143024661,1.24405971 L10.0018031,15.4392954 L10.0018031,24.9535898 C10.0018031,25.4308286 10.3867032,25.8185257 10.8649702,25.8185257 L15.8677191,25.8185257 C16.3450333,25.8185257 16.7308862,25.4308286 16.7308862,24.9535898 L16.7308862,15.4392954 L26.5906173,1.24405971 C26.9555103,0.719192255 26.5791847,-1.57664718e-14 25.9389548,-1.57664718e-14" id="Fill-9"></path>
        </g>
    </g>
</svg>