<?xml version="1.0" standalone="no"?>
<!DOCTYPE svg PUBLIC "-//W3C//DTD SVG 1.1//EN" "http://www.w3.org/Graphics/SVG/1.1/DTD/svg11.dtd" >
<!--
2013-9-30: Created.
-->
<svg>
<metadata>
Created by iconfont
</metadata>
<defs>

<font id="iconfont" horiz-adv-x="1024" >
  <font-face
    font-family="iconfont"
    font-weight="500"
    font-stretch="normal"
    units-per-em="1024"
    ascent="896"
    descent="-128"
  />
    <missing-glyph />
    
    <glyph glyph-name="luzhi" unicode="&#59986;" d="M512 88.302c-163.112 0-295.698 132.586-295.698 295.698S348.888 679.698 512 679.698 807.698 547.112 807.698 384 675.112 88.302 512 88.302z m0 492.83c-108.702 0-197.132-88.43-197.132-197.132S403.298 186.868 512 186.868 709.132 275.298 709.132 384 620.702 581.132 512 581.132z"  horiz-adv-x="1024" />

    
    <glyph glyph-name="exitteam" unicode="&#59987;" d="M647.26367188 332.58398437000005h0.79101562c115.88378906 1.18652344 210.41015625 96.89941406 210.41015625 213.17871094 0.39550781 56.55761719-21.35742188 109.95117188-61.30371094 150.29296875S703.42578125 758.54589844 646.47265625 758.54589844c-117.46582031 0-213.17871094-95.71289063-213.17871094-213.17871094 0-72.7734375 36.78222656-139.61425781 97.29492188-178.76953125-60.51269531-22.1484375-114.69726563-62.49023438-153.85253907-114.30175781-43.90136719-58.93066406-67.23632813-128.54003906-67.23632812-201.70898438 0-15.02929688 12.26074219-27.29003906 27.29003906-27.29003906 15.02929688 0 27.29003906 12.26074219 27.29003906 27.29003906 0 155.43457031 125.77148438 281.6015625 280.01953126 281.6015625 1.18652344 0 1.97753906 0.39550781 3.16406249 0.39550782zM646.47265625 703.5703125c87.01171875 0 157.80761719-70.79589844 157.80761719-157.80761719S733.484375 387.95507813 646.47265625 387.95507813s-157.80761719 70.79589844-157.80761719 157.80761718S559.4609375 703.5703125 646.47265625 703.5703125zM447.13671875 375.69433594c0 15.02929688-12.26074219 27.29003906-27.29003906 27.29003906-66.84082031 0-121.02539063 58.13964844-121.02539063 129.7265625s54.18457031 129.7265625 121.02539063 129.7265625c15.02929688 0 27.29003906 12.26074219 27.29003906 27.29003906 0 15.02929688-12.26074219 27.29003906-27.29003906 27.29003906-96.89941406 0-175.60546875-82.66113281-175.60546875-184.70214843 0-60.51269531 27.29003906-115.88378906 74.35546875-150.68847657C214.578125 337.72558594 145.36425781 231.72949218999997 145.36425781 112.68164062000005c0-15.02929688 12.26074219-27.29003906 27.29003906-27.29003906 15.02929688 0 27.29003906 12.26074219 27.29003907 27.29003907 0 129.33105469 98.48144531 234.53613281 219.90234375 234.53613281 15.42480469 0 27.29003906 12.65625 27.29003906 28.4765625z m373.75488281-131.30859375l-64.86328125-64.86328125-64.46777344 64.46777343c-10.67871094 10.67871094-28.4765625 10.67871094-39.15527343 1e-8-11.07421875-11.07421875-11.07421875-28.08105469 0-39.15527344l64.46777343-64.46777344-64.86328125-64.86328125c-10.67871094-10.67871094-10.67871094-28.4765625 0-39.15527344 11.07421875-11.07421875 28.08105469-11.07421875 39.15527344 0l64.86328125 64.86328125 64.46777344-64.46777343c10.67871094-10.67871094 28.4765625-10.67871094 39.15527344-1e-8s11.07421875 28.08105469 0 39.15527344l-64.46777344 64.46777344 64.86328125 64.86328125c10.67871094 10.67871094 10.67871094 28.4765625 0 39.15527344-11.07421875 10.67871094-28.4765625 10.67871094-39.15527344 0z"  horiz-adv-x="1024" />

    
    <glyph glyph-name="mypage" unicode="&#59988;" d="M914.92852783 391.73712158c-21.8435669 22.66754151-344.84490967 357.16827393-356.19598388 368.78137207-11.42605591 12.91992188-28.11730958 21.09786987-46.71359254 21.09786987-18.89373779 0-35.84783935-8.43914796-47.27389526-21.69525146-72.40429689-72.44137573-353.24697876-359.78192138-353.24697876-365.97985839v-0.07415773c-9.52185058-7.65472412-15.64645386-19.37988281-15.64645385-32.52392579 0-23.03915406 18.67126465-41.67251587 41.67251586-41.67251585 0-0.03707886 0.03707886-0.07415771 0.03707886-0.07415772h41.63543703s0.03707886-198.72949219 0.03707884-232.71020507c0-48.7298584 39.99160766-104.03256227 104.03256225-100.29830933h458.43640138c57.54309082-3.73425293 104.14462281 44.92144777 104.14462279 100.29830933 0 14.67498779-1.12060547 232.71020508-1.12060547 232.71020507h43.53964234c0 0.03707886 0.03707886 0.07415771 0.03707886 0.11206055 22.18139648 0.97064209 39.84329223 19.22991943 39.84329224 41.63543701 0 11.98388672-5.07733155 22.81173706-13.21820069 30.39312744z m-118.125-33.3701477c0-0.07992554-0.40292359-237.52798462-0.4029236-248.62857056 0-41.94854737-35.27270508-78.82965088-78.87002561-78.82965088l-32.13500977 0.20022583-347.61593628 2.05169678-31.08856203 0.20022582c-48.54528809 0-78.87002563 41.94854737-78.87002562 78.87084962 0 22.28027344 0.3213501 194.9779358 0.36172485 245.13162232-0.01730346 9.58941651-48.92514038 7.92004396-64.08874511 7.92004394-11.51916505 0-7.46685791 4.42721557-7.46685791 4.42721557l9.09420776 9.52020263c46.94018555 49.13113403 261.51470948 273.59747315 310.33190918 322.41549684 8.64761351 10.05496217 21.47772217 16.41027833 35.79592896 16.41027832 14.03640747 0 26.70584108-6.15344238 35.39300537-15.96780396 11.18133545-11.50268555 315.10354614-325.11730957 315.10354614-325.11730957s10.33676148-9.16589356 2.9663086-9.79541015c-19.01733398-1.6257019-68.5093689 2.81469727-68.5093689-8.80828857zM392.09109497 400.27926636a117.1642456 117.1642456 0 1 1 239.78979492 0 117.1642456 117.1642456 0 1 1-239.78979492 0zM698.15316773 94.11584473000005c0-19.55291748-3.00421143-38.40380859-8.60229492-56.10278322-0.84869383-2.69439698-2.72735596-8.00573731-2.72735596-8.00573729l-350.40014649 2.0706482s-1.81521607 5.3286438-2.63424682 8.03375243a187.07189941 187.07189941 0 0 0-7.94393922 54.00411986c0 102.82214355 83.31207276 186.17459107 186.13339234 186.17459108 102.82379151 0 186.17459107-83.35244751 186.17459107-186.17459106z"  horiz-adv-x="1024" />

    
    <glyph glyph-name="jion" unicode="&#59989;" d="M660.16711426 254.79794884c3.95121575-1.97522163 8.69267464-3.1609726 13.03939819-2.76546478 18.57032776 0 21.33579255 12.6431179 22.52077103 22.5215435v2.76546477c0.39550781 7.90243149-2.76546479 15.40935517-7.9024315 20.94105721l-2.76546477 2.76546478c-2.76546479 5.1369667-7.90243149 7.90243149-13.0393982 10.27393341-18.57032776 13.03785324-39.5106125 23.70574951-60.45166969 33.97891045 65.5886364 43.85733604 105.10002136 117.34840393 105.10002136 196.37117386C717.0638485 672.03706169 609.19758988 779.5078125 472.48861504 779.5078125 343.28656387 776.74234772 232.65561295 669.66633225 232.65561295 538.88379478c0-79.02199746 39.5106125-152.51306534 105.10002136-196.37117386C227.1239109 295.49585723999996 148.10114098 195.92676544000005 129.92554856 78.18362617000003c0-2.76546479-2.76546479-7.90243149-2.76546479-10.66789626v-2.76546479c1.97522163-12.24915504 4.34595108-22.52231598 22.52077103-22.52231598 18.57032776 0.39550781 33.97968292 15.40935517 34.37519073 33.97968293 15.80486298 130.78253746 137.89395332 230.35085678 272.23219871 238.25328826h31.60972596c52.5492382-2.76546479 114.18743134-20.9410572 153.69804382-47.01830864 5.53170204-5.1369667 11.85364723-9.48291778 18.57032776-12.64389038zM472.88412285 349.2308464c-105.89103698-0.39473533-192.02522278 85.34471512-192.41995811 191.62971497S365.80810737 732.88423919 471.69837188 733.2797470099999s192.02522278-85.34471512 192.41995812-191.62971497v-0.39550781c0-105.4947567-85.73945046-191.23420716-191.23420715-192.0244503z m386.41963005-184.91380692h-68.35410119v67.95936585c0 18.96583557-15.40935517 34.37519074-34.37519073 34.37519074-18.96506309 0-34.37519074-15.40935517-34.37519073-34.37519074v-70.72483062h-71.11956596c-18.17559243 0.79024314-33.58494758-13.82886887-34.37519074-32.00368882v-1.9759941c0.39550781-18.57032776 15.41012764-33.58494758 34.37519074-33.97968293h71.12033844v-70.7256031c0-18.96429062 15.40935517-34.37441826 34.37519074-34.37441826 18.96429062 0 34.37441826 15.40935517 34.37441824 34.37519074v70.72483062h68.35410119c18.57032776 0.39473533 33.97968292 15.40935517 34.37519073 33.97968292-0.39550781 21.33579255-16.19959831 36.74514771-34.37519073 36.7451477z"  horiz-adv-x="1024" />

    
    <glyph glyph-name="zhanghao" unicode="&#59990;" d="M519.93564024 474.21393077c-88.40517929 0-158.69271964 67.57537951-158.69271965 152.6280152S431.53123343 779.5078125 519.93564024 779.5078125s158.69271964-67.61323085 158.69271964-152.66586653-70.28754035-152.6280152-158.69271964-152.62801521z m-0.48974914 248.79271015c-55.48382121 0-97.93443637-43.3173327-97.93443715-97.40760761a96.57951468 96.57951468 0 0 1 97.93443715-97.44545972c55.48459368 0 97.93520886 43.3173327 97.93520886 97.44545972A96.57951468 96.57951468 0 0 1 519.44666358 723.00664092z m267.92847196-696.73345221V229.97882552c0 63.20548554-79.47845363 134.69808798-147.46787963 134.69808721H386.02856712c-68.02727731 0-149.53965846-71.49260243-149.53965847-134.69808721v-203.70563681c0-23.99385997-5.23583825-37.78022873-30.13426706-37.78022873-25.01120957 0-33.44818686 13.78636954-33.44818608 37.78022873V229.97882552c0 111.19397716 95.22304802 200.61573435 213.08426027 200.61573436h251.65550463c117.89906436 0 213.08426105-89.42175719 213.08426104-200.61573436v-203.70563681c2.26026303-23.99385997-5.80129083-37.78022873-30.73679772-37.78022873s-32.61932066 13.78636954-32.61932067 37.78022873zM585.85328738-11.507040019999977H438.57389196c-24.89765633 0-39.66352416 16.95042894-39.66352416 37.66744719s14.76586781 37.6674472 39.6264453 37.667448h147.31647429c24.86057748 0 39.06176597-16.95042894 39.06176519-37.667448S610.71386409-11.507040019999977 585.85328738-11.507040019999977z"  horiz-adv-x="1024" />

    
    <glyph glyph-name="decoration" unicode="&#59991;" d="M610.74841309 306.74908446999996h-69.49566651l-21.49749755 66.2310791a8.5446167 8.5446167 0 0 1-15.64562989 0l-21.46948242-66.2310791h-69.52285766a8.32626343 8.32626343 0 0 1-4.81613159-15.02105713l56.16210937-40.81558227-21.44146729-66.36703491a8.16311646 8.16311646 0 0 1 3.02069092-9.19720459 8.16311646 8.16311646 0 0 1 9.65945435 0l56.21731567 40.81640625 56.24450683-40.81640625a8.16311646 8.16311646 0 0 1 4.84332276-1.57791138 8.16311646 8.16311646 0 0 1 7.8368225 10.88470459l-21.44229125 66.36621094 56.19012451 40.81640625a8.32626343 8.32626343 0 0 1-4.84332275 15.02023315zM824.84255982 770.28341675a3.3197937 3.3197937 0 0 0-0.57183839 1.74105835A32.97958374 32.97958374 0 0 1 791.34634399 805.05926513a3.04788208 3.04788208 0 0 0-2.42248535 0.81655885H233.99014282a2.93911743 2.93911743 0 0 0-2.36810303-0.81573487 32.87081909 32.87081909 0 0 1-32.65246581-31.78234863v-130.23083496L314.88632202 519.97229004a312.92330933 312.92330933 0 1 1 394.01147461-1e-8l115.94476319 123.07379151V770.28341675z m-205.87664795-30.50354004v-169.00543213a306.82836914 306.82836914 0 0 1-214.09332276 0V739.69830323h214.09332276z m-354.09320069 0h90.58529663v-166.6925354L264.87271118 669.2764892600001V739.77987671z m494.09225464-463.61590577A247.04571533 247.04571533 0 1 0 511.8928833 523.9438476600001a247.61755371 247.61755371 0 0 0 247.07290649-247.78070068z m0 393.11334229L668.38049317 573.08569336V739.78070068h90.58447265v-70.50256347z m0 0"  horiz-adv-x="1024" />

    
    <glyph glyph-name="design" unicode="&#59985;" d="M796.31210938 491.86816406l-95.13369141 78.19453125-82.58027344 99.48955078L713.58066406 764.53476562l100.82021485-75.41103515 76.89375-102.30292969-94.98339844-94.95263672zM356.88183594 43.21289062000005a17.36279297 17.36279297 0 0 0-12.31083985 5.11171876L176.32460938 216.57099609a17.4234375 17.4234375 0 0 0-1e-8 24.6225586L682.78642578 747.68525391a59.28837891 59.28837891 0 0 0 41.53271485 17.48408203 52.72470703 52.72470703 0 0 0 37.59960937-15.33603516l115.91455078-115.91455078a52.6640625 52.6640625 0 0 0 15.30615235-39.80830078 58.86474609 58.86474609 0 0 0-17.45419922-39.32402344l-506.49169922-506.4609375a17.36279297 17.36279297 0 0 0-12.31083985-5.11259765zM213.35117188 228.91259765999996l143.62207031-143.62294922 494.05957031 494.15009765a24.19892578 24.19892578 0 0 1 7.25976563 16.06201172 18.14941406 18.14941406 0 0 1-5.14160157 13.7944336l-115.88378906 115.91455078a18.14941406 18.14941406 0 0 1-12.94716797 5.14160156 24.19892578 24.19892578 0 0 1-16.91015625-7.28964844z m0 0M155.57451172 10.120312499999955a17.4234375 17.4234375 0 0 0-2.81337891 34.60517578l201.27832032 33.03193359a17.4234375 17.4234375 0 1 0 5.65576171-34.36259765l-201.27832031-32.97216797a17.15097656 17.15097656 0 0 0-2.84238281-0.24169922z m0 0M155.57451172 10.120312499999955a17.4234375 17.4234375 0 0 0-2.81337891 34.60517578l201.27832032 33.03193359a17.4234375 17.4234375 0 1 0 5.65576171-34.36259765l-201.27832031-32.97216797a17.15097656 17.15097656 0 0 0-2.84238281-0.24169922z m0 0M155.60439453 10.120312499999955a17.60449219 17.60449219 0 0 0-2.84326172 0.24169922 17.4234375 17.4234375 0 0 0-14.36835937 19.99511719l33.03193359 201.27832031a17.42695313 17.42695313 0 0 0 34.39335938-5.65664063l-33.0319336-201.27832031a17.4234375 17.4234375 0 0 0-17.18173828-14.61005859z m0 0M155.60439453 10.120312499999955a17.60449219 17.60449219 0 0 0-2.84326172 0.24169922 17.4234375 17.4234375 0 0 0-14.36835937 19.99511719l33.03193359 201.27832031a17.42695313 17.42695313 0 0 0 34.39335938-5.65664063l-33.0319336-201.27832031a17.4234375 17.4234375 0 0 0-17.18173828-14.61005859z m638.52978516 470.49609375a17.36279297 17.36279297 0 0 0-12.31171875 5.11171875l-168.24550781 168.27539063a17.465625 17.465625 0 0 0 24.77373046 24.62343749l168.24550782-168.24638671a17.4234375 17.4234375 0 0 0-12.31083985-29.73427735z m-146.70878906-423.30761719a17.4234375 17.4234375 0 0 0-12.31171875 29.73515625L727.58691406 179.51542969000002a17.4234375 17.4234375 0 1 0 24.6225586-24.6225586L659.67646484 62.360742189999996a17.36279297 17.36279297 0 0 0-12.31171875-5.11259766z m-62.61591797 62.61591797a17.4234375 17.4234375 0 0 0-12.31083985 29.73515625l92.53125 92.53125a17.4234375 17.4234375 0 1 0 24.65332032-24.62167969L597.12207031 125.06718750000005a17.36279297 17.36279297 0 0 0-12.31171875-5.11171875z m0 0M731.54814453-11.477929689999996a54.08525391 54.08525391 0 0 0-38.50664062 15.94160157L496.87578125 200.69003906a17.4234375 17.4234375 0 0 0 0 24.6225586l173.84150391 173.8125a17.4234375 17.4234375 0 0 0 24.65332031 0l196.16572266-196.16660157a54.44824219 54.44824219 0 0 0 0-76.98339843L769.934375 4.4627929700000095a54.08525391 54.08525391 0 0 0-38.50664062-15.94160156zM533.84082031 212.97099608999997l183.85400391-183.8540039a19.60136719 19.60136719 0 0 1 27.70839844 0l121.51142578 121.51054687a19.57148437 19.57148437 0 0 1 0 27.70839844L683.05888672 362.18994140999996zM202.70234375 502.03183594a17.4234375 17.4234375 0 0 0-12.31171875 29.73515625L282.92275391 624.17871094a17.4234375 17.4234375 0 0 0 24.6234375-24.6234375L215.0140625 507.11367187a17.36279297 17.36279297 0 0 0-12.31171875-5.11171875z m62.61591797-62.61503906a17.4234375 17.4234375 0 0 0-12.31171875 29.73427734l92.5321289 92.53212891a17.4234375 17.4234375 0 0 0 24.6234375-24.6225586L277.65986328 444.49863281a17.36279297 17.36279297 0 0 0-12.31171875-5.11259765z m0 0M340.94111328 363.79394531a17.39355469 17.39355469 0 0 0-12.31171875 5.11171875L132.43378906 565.1021484400001a54.44824219 54.44824219 0 0 0 0 76.98339843L253.94433594 763.59697266a54.44824219 54.44824219 0 0 0 76.98339844 0l196.16660156-196.19648438a17.4234375 17.4234375 0 0 0 0-24.62255859L353.25195312 368.93554687000005a17.4234375 17.4234375 0 0 0-12.31083984-5.11171875z m-48.39873047 380.86699219a19.48007812 19.48007812 0 0 1-13.85419922-5.74804688L157.17763672 617.40234375a19.60136719 19.60136719 0 0 1 0-27.70839844L341.03164062 405.84082031l149.21894532 149.21894532L306.39746094 738.91376953a19.45019531 19.45019531 0 0 1-13.85419922 5.74716797z m0 0"  horiz-adv-x="1024" />

    
    <glyph glyph-name="globe" unicode="&#59867;" d="M827.75585938 108.77578125000002c66.55957031 76.18183594 102.91728516 172.70507813 102.91728515 274.8234375 0 111.7546875-43.51992188 216.82265625-122.54326172 295.84599609C730.32207031 757.25390625 627.25712891 800.61035156 517.42724609 801.92519531c-1.80439453 0.5625-9.64775391 0.55546875-11.46357422-0.0140625-109.38955078-1.61015625-211.99394531-44.93496094-289.52490234-122.46679687C138.74697266 601.75341797 95.40371094 498.88183594 93.9640625 389.23564453c-0.40166016-1.546875-0.40957031-8.06396484-0.02021484-9.58710937 1.01513672-110.27636719 44.40498047-213.80449219 122.49492187-291.8944336 79.02333984-79.02421875 184.09042969-122.54414063 295.84599609-122.54414062 111.7546875 0 216.82265625 43.51992188 295.8459961 122.54414062 5.75683594 5.75595703 11.30185547 11.66660156 16.67724609 17.69238281 0.47636719 0.42451172 0.93955078 0.87011719 1.37988281 1.35a19.28056641 19.28056641 0 0 1 1.56796875 1.98017579zM132.73173828 365.20898437000005h175.78212891c1.23925781-61.57353516 8.67568359-119.31064453 21.09902343-170.73017578-57.83378906-15.64453125-94.51757813-35.97363281-113.50898437-48.66240234-48.81357422 60.68056641-79.40742187 136.59960938-83.37216797 219.39257813z m82.90722656 255.59560547c18.83496094-12.70898438 55.53896484-33.24462891 113.75683594-48.99375-12.18603516-50.74453125-19.52578125-107.60449219-20.85380859-168.21826172H132.80556641c4.26621094 81.90966797 34.60429688 157.02099609 82.83339843 217.21289063z m676.125-217.21113281h-175.73730468c-1.32714844 60.59179687-8.6625 117.43242188-20.8397461 168.16376953 58.08251953 15.64980469 94.90869141 36.0421875 113.96865235 48.76962891 48.09814453-60.1453125 78.34833984-135.15117187 82.60839843-216.93339844z m-214.12792968 0H530.90615234V549.8803710899999c48.94628906 1.0265625 91.03447266 6.05039063 126.81738282 13.15634766 11.77558594-48.87773437 18.60644531-103.00253906 19.91074218-159.44238281zM530.90615234 588.26660156V760.95146484c34.53837891-9.74882812 68.23037109-46.13027344 94.61865235-103.13964843 8.25996094-17.84619141 15.60498047-37.16455078 21.99814453-57.67646485-32.83769531-6.34833984-71.52890625-10.88085938-116.61679688-11.86875zM492.52255859 760.61835938V588.30175781c-44.5359375 1.05644531-82.85537109 5.62675781-115.425 12.00234375 6.38085938 20.44951172 13.70917969 39.7125 21.94628907 57.51035157 26.09824219 56.38183594 59.34023438 92.58398438 93.47871093 102.80566406z m0-210.71865235v-146.30625H346.93261719c1.30429688 56.45039062 8.13691406 110.58398438 19.91601562 159.46875 35.47089844-7.06552734 77.16972656-12.08144531 125.67304688-13.1625zM346.90009766 365.20898437000005h145.62246093v-148.75048828c-48.38378906-1.11972656-90.01845703-6.15322266-125.45859375-13.22226562-12.0234375 49.58173828-18.94482422 104.59863281-20.16386718 161.97363281z m145.62246093-187.15166015V6.580078120000053c-34.13935547 10.22167969-67.38046875 46.42382813-93.47871093 102.80566407-8.13691406 17.58076172-15.38349609 36.59501953-21.70898438 56.76679687 32.47382813 6.30615234 70.70273438 10.82900391 115.18769531 11.90566407zM530.90703125 6.24609375V178.11621093999997c44.90947266-0.96064453 83.53388672-5.49580078 116.35927734-11.86523438-6.33339844-20.2078125-13.59140625-39.25634766-21.740625-56.86523437-26.38828125-57.00849609-60.08027344-93.38994141-94.61865234-103.13964844z m0 210.26074219V365.20898437000005h146.76240234c-1.21816406-57.27832031-8.11933594-112.2046875-20.10498047-161.72138671-35.73193359 7.06201172-77.765625 12.03310547-126.65742187 13.01835937zM716.05566406 365.20898437000005H891.83691406c-3.95683594-82.62949219-34.43642578-158.41230469-83.08125-219.03222656-19.19003906 12.81357422-55.90722656 33.09257812-113.72167969 48.62636719 12.375 51.33867187 19.78330078 108.96064453 21.02080079 170.40585938z m67.36816407 284.34462891c-17.18349609-10.84746094-49.03945313-27.52119141-98.30478516-40.77509766-18.08876953 59.11523438-43.228125 107.81630859-73.18300781 141.54082032C677.9375 732.36503906 736.84355469 697.03388672 783.42382813 649.55273438zM412.63261719 750.31933594c-29.91181641-33.67529297-55.02304687-82.28320313-73.10566407-141.28417969-49.12822266 13.35146484-80.971875 30.09375-98.04550781 40.86386719 46.52753906 47.30625 105.31054688 82.50908203 171.15117188 100.4203125z m-170.70996094-633.47167969c17.1421875 10.8140625 48.84257813 27.40341797 97.81171875 40.6265625 18.06767578-58.69160156 43.10244141-107.04990234 72.89824219-140.59511719-65.63320313 17.85410156-124.25185547 52.88818359-170.70996094 99.96767578z m370.01337891-99.96855469c29.81425781 33.56542969 54.86132813 81.96152344 72.93164062 140.70234375 48.73535156-13.14755859 80.59833984-29.65429688 97.99980469-40.50878906-46.49326172-47.19287109-105.19365234-82.31132813-170.93144531-100.19355469z"  horiz-adv-x="1024" />

    
    <glyph glyph-name="company" unicode="&#59983;" d="M274.6953125 596.58544922h229.88891602c12.35961914 0 19.77539063 9.88769531 19.77539062 19.77539062s-9.88769531 19.77539063-19.77539062 19.77539063H274.6953125c-12.35961914 0-19.77539063-9.88769531-19.77539063-19.77539063s7.41577148-19.77539063 19.77539063-19.77539062z m0-140.8996582h229.88891602c12.35961914 0 19.77539063 9.88769531 19.77539062 19.77539062S514.47192383 495.23657227 504.58422852 495.23657227H274.6953125c-12.35961914 0-19.77539063-9.88769531-19.77539063-19.77539063s7.41577148-19.77539063 19.77539063-19.77539062zM524.35961914 351.86499023c0 12.35961914-9.88769531 19.77539063-19.77539062 19.77539063H274.6953125c-12.35961914 0-19.77539063-9.88769531-19.77539063-19.77539063 0-12.35961914 9.88769531-19.77539063 19.77539063-19.77539062h229.88891602c9.88769531 0 19.77539063 9.88769531 19.77539062 19.77539062zM907.5078125 433.43847655c0 27.19116211-22.24731445 49.43847655-49.43847656 49.43847658H660.31542969V680.63085938C660.31542969 735.01318359 615.82080078 779.5078125 561.43847655 779.5078125H215.36914062C160.98681641 779.5078125 116.4921875 735.01318359 116.4921875 680.63085938v-692.13867188h791.015625V433.43847655zM165.93066406 680.63085938c0 27.19116211 22.24731445 49.43847655 49.43847656 49.43847656h346.06933595c27.19116211 0 49.43847655-22.24731445 49.43847655-49.43847657v-642.70019531H487.28076172V186.24609375c0 27.19116211-22.24731445 49.43847655-49.43847656 49.43847656H338.96533203c-27.19116211 0-49.43847655-22.24731445-49.43847656-49.43847656v-148.31542969H165.93066406V680.63085938z m173.03466797-642.70019532V186.24609375h98.87695313v-148.31542969H338.96533203z m519.10400391 0H660.31542969V144.22338866999996h155.73120117c12.35961914 0 19.77539063 9.88769531 19.77539062 19.77539063 0 12.35961914-9.88769531 19.77539063-19.77539062 19.77539062H660.31542969V287.5949707h155.73120117c12.35961914 0 19.77539063 9.88769531 19.77539062 19.77539063 0 12.35961914-9.88769531 19.77539063-19.77539062 19.77539062H660.31542969V433.43847655h197.75390625v-395.50781249z"  horiz-adv-x="1024" />

    
    <glyph glyph-name="change" unicode="&#59984;" d="M446.59275067 682.67019653l-154.35884893-156.36125206a18.53942872 18.53942872 0 0 1 13.16299439-31.59162104h685.29115319c15.79544843 0 38.04276288-7.93502032 38.04276288-37.449646 0-29.55155969-22.24731445-37.22731769-38.04276288-37.2273177H211.58738684c-8.89892578 0-38.85893226 0.18539429-50.65029859 11.97676063C149.10951209 443.84542072 141.21142578 457.04534912 141.21142578 474.76933265s5.93261719 29.51462567 17.72398353 41.34292602l218.46833825 218.46833825c47.23860919 47.27554321 109.97647047-8.71353149 69.18972731-51.91040039zM723.34948731 84.29130578000002l154.35957312 156.36125207a18.53942872 18.53942872 0 0 1-13.2006526 31.59162104H179.29112267C163.45874023 272.24417888999994 141.21142578 280.17919922 141.21142578 309.69382489 141.21142578 339.24610877 163.45874023 346.92114258000004 179.25418866 346.92114258000004h779.10138667c8.86126757 0 38.85820807-0.18539429 50.64957439-12.01369465 11.82830035-11.79064215 19.72566247-24.99129473 19.72566248-42.71455407 0-17.72398353-5.93261719-29.51462567-17.72325934-41.34292603L792.53921461 32.38090538999995c-47.23933339-47.23933339-109.97647047 8.67587329-69.1897273 51.91040039z"  horiz-adv-x="1228" />

    
    <glyph glyph-name="shoucang-hover" unicode="&#59982;" d="M512-21c-26.22857168 0-48.72857168 11.25-67.5 26.22857168L137.02142832 312.77142833000005C80.77142832 369.02142832000004 54.47857168 451.5 65.72857168 530.25a262.54285751 262.54285751 0 0 0 225 225A252.64285753 252.64285753 0 0 0 512 676.5a252.64285753 252.64285753 0 0 0 221.27142833 78.75 262.54285751 262.54285751 0 0 0 224.99999999-225c11.25-78.75-15.04285751-153.77142833-63.77142832-213.75l-315-315c-18.77142832-14.97857168-41.27142833-22.5-67.5-22.5zM324.47857167 684.02142832h-22.49999999c-86.20714249-11.25-153.70714247-78.75-164.95714335-161.29285665-7.52142833-56.25 11.25-116.22857168 52.45714334-153.70714334l307.54285666-307.54285666c3.72857168-3.72857168 11.25-3.72857168 14.97857167-3.72857167 3.72857168 0 7.52142833 0 14.97857168 3.72857168l315 314.99999999c37.54285751 41.27142833 52.52142833 93.79285751 45 150.04285665-11.25 82.47857167-78.75 149.97857167-161.22857168 157.5-59.97857167 7.45714247-120.02142833-11.25-161.22857167-56.25-26.29285751-30.02142832-78.75-30.02142832-105.04285665 0a184.11428585 184.11428585 0 0 1-135 56.25z"  horiz-adv-x="1024" />

    
    <glyph glyph-name="treeoff" unicode="&#59980;" d="M720.2150472-3.9931640600000264V176.85278319999998h542.43896484v-180.84594726H720.16560871z m295.24658202 482.17346192h247.19238282v-180.7965088h-247.19238282V478.18029786z m-96.25671386-233.99230958V525.88842773L721.64876301 385.03820801l197.55615235-140.89965821c0-0.6427002 0-0.6427002 0 1e-8zM449.04500325 779.5078125h813.60900879v-180.79650879H449.04500325V779.5078125zM298.35652668 405.85180663h301.32751466a30.1574707 30.1574707 0 1 0-1e-8-60.3149414H298.35652668v-241.01257324h307.3590088v-0.64270019a30.1574707 30.1574707 0 0 0-1e-8-59.02954102v-0.59326172H238.14046223V598.7113037199999H177.82552082V779.5078125h180.7965088v-180.79650879H298.35652668v-192.85949706z"  horiz-adv-x="1408" />

    
    <glyph glyph-name="treeon" unicode="&#59981;" d="M721.54838053-3.9931640600000264V176.85278319999998h542.43896484v-180.84594726H721.49894205z m295.24658202 482.17346192h247.19238282v-180.7965088h-247.19238282V478.18029786zM722.98209634 525.39404297v-281.79931641l197.55615235 140.89965821L722.98209634 525.44348145c0 0.6427002 0 0.6427002 0-1e-8zM450.37833658 779.5078125h813.60900879v-180.79650879H450.37833658V779.5078125zM299.68986002 405.85180664h301.32751465a30.1574707 30.1574707 0 1 0-1e-8-60.31494141H299.68986002v-241.01257324h307.35900879v-0.64270019a30.1574707 30.1574707 0 0 0-1e-8-59.02954102v-0.59326172H239.47379556V598.7113037199999H179.15885416V779.5078125h180.79650879v-180.79650879H299.68986002v-192.85949707z"  horiz-adv-x="1408" />

    
    <glyph glyph-name="service" unicode="&#59729;" d="M527.5 221.2c65.5 4.6 124.8 36.1 165.1 86.3 10 12.4 8 30.5-4.4 40.5s-30.5 8-40.5-4.4c-30.4-37.8-74.9-61.5-124.3-64.9-56.1-3.9-109.6 19.1-145.5 61-10.3 12.1-28.5 13.5-40.6 3.2s-13.5-28.5-3.2-40.6c47.7-55.7 118.8-86.3 193.4-81.1zM357.2 435.7c21.2 0 38.4 17.2 38.4 38.4v38.4l-0.3 4.5c-2.2 19.1-18.4 33.9-38.1 33.9-21.2 0-38.4-17.2-38.4-38.4v-38.4l0.3-4.5c2.2-19 18.4-33.9 38.1-33.9zM671.7 435.7c21.2 0 38.4 17.2 38.4 38.4v38.4l-0.3 4.5c-2.2 19.1-18.4 33.9-38.1 33.9-21.2 0-38.4-17.2-38.4-38.4v-38.4l0.3-4.5c2.2-19 18.4-33.9 38.1-33.9zM1020.5 386.8c0 92.3-42.4 146.9-117.5 144.9l-7.4-0.4h-0.9C844.7 698.1 690 819.6 507 819.6c-189.9 0-349.2-130.8-392.9-307.2-72.4-2-111.6-56-111.6-144.8 0-88.1 54.9-136.8 150.2-143.1 11.3-10 28-12.8 42.5-5.7 19 9.4 26.8 32.4 17.5 51.4-22 44.6-33.5 93.8-33.5 144.7 0 181.1 146.8 327.9 327.9 327.9S834.9 596 834.9 414.9 688.1 87 507 87c-21.2 0-38.4-17.2-38.4-38.4s17.2-38.4 38.4-38.4c162.4 0 302.4 95.6 366.9 233.6 93 6.8 146.6 57.2 146.6 143zM79.3 367.7c0 40.1 6.8 59.1 23.4 65.5-0.3-6-0.4-12.1-0.4-18.2 0-36.5 4.9-72.3 14.3-106.8-26.5 9.8-37.3 29.2-37.3 59.5zM901.9 326c6.4 28.6 9.8 58.4 9.8 89 0 13.4-0.7 26.6-1.9 39.7 24.3-2.2 34-20.1 34-67.8-0.1-32.9-12-52-41.9-60.9z"  horiz-adv-x="1024" />

    
    <glyph glyph-name="beijingse" unicode="&#59661;" d="M302.2 112.7m-56.4 0a56.4 56.4 0 1 1 112.8 0 56.4 56.4 0 1 1-112.8 0ZM955.9 237.9C951.7 298.3 901.3 346 839.8 346h-10l66.4 60.8c47.4 43.4 50.6 117.1 7.2 164.5L784.1 701.5l-6.7 6.8c-44 40.8-112.7 41.7-157.8 0.4L506.7 605.2v85.2c0 77.9-63.1 141-141 141H238.3c-77.9 0-141-63.1-141-141v-612.8c0-77.9 63.1-141 141-141h601.5l8.3 0.3c60.4 4.3 108.1 54.6 108.1 116.1V229.6l-0.3 8.3zM657.7 667.1l5.4 4.4c24.4 17.6 58.6 14.6 79.4-8.1l119.2-130.1 4.4-5.4c17.6-24.4 14.6-58.6-8.1-79.4l-351.3-322V528.7l151 138.4zM238.3 775h127.4c46.7 0 84.6-37.9 84.6-84.6v-422.9H153.7V690.4c0 46.7 37.9 84.6 84.6 84.6z m68.1-781.9h-68.1c-46.7 0-84.6 37.9-84.6 84.6V211.1h296.6v-133.5c0-46.7-37.9-84.6-84.6-84.6h-59.3z m593.5 60l-0.4-6.5c-3.3-30.1-28.7-53.5-59.7-53.5H477.9c11.9 15.7 20.7 33.7 25.2 53.6l265.2 243h71.6l6.5-0.4c30.1-3.3 53.5-28.7 53.5-59.7v-176.5z"  horiz-adv-x="1024" />

    
    <glyph glyph-name="Computer-filled" unicode="&#59622;" d="M926.912 698.816c0 39.168-29.952 69.12-69.12 69.12H165.888c-39.232 0-69.184-29.952-69.184-69.12v-507.328c0-39.232 29.952-69.184 69.12-69.184h232.96l-46.08-161.408h361.984l-46.08 161.408h258.24V698.816z m-511.936-691.84l32.32 115.328H620.16l32.256-115.328h-237.44z m465.792 161.472H165.888c-13.76 0-23.04 9.216-23.04 23.04v46.08h737.92v-69.12z"  horiz-adv-x="1024" />

    
    <glyph glyph-name="Computer" unicode="&#59621;" d="M854.656 767.104H165.632c-39.04 0-68.864-29.888-68.864-68.928v-505.216c0-39.04 29.824-68.928 68.864-68.928h234.24l-45.888-160.768h360.576l-45.952 160.768h257.28V698.24c0 39.04-32.192 68.928-71.232 68.928z m-440.96-757.888l32.128 114.816h172.288l32.128-114.816H413.696zM142.656 698.176c0 13.824 9.216 23.04 23.04 23.04h688.96c13.76 0 22.976-9.216 22.976-23.04V284.8H142.656V698.24z m23.04-528.192c-13.824 0-23.04 9.152-23.04 22.976v45.888h734.976v-68.864H165.632z"  horiz-adv-x="1024" />

    
    <glyph glyph-name="shouye1" unicode="&#59918;" d="M993.745455 330.47272699999996L861.090909 477.090909 563.2 802.909091c-25.6 27.927273-76.8 27.927273-102.4 0L162.909091 477.090909l-132.654546-146.618182c-9.309091-9.309091-6.981818-23.272727 2.327273-32.581818 9.309091-9.309091 23.272727-6.981818 32.581818 2.327273L162.909091 407.272727v-465.454545h209.454545V244.36363600000004c0 39.563636 30.254545 69.818182 69.818182 69.818182h139.636364c39.563636 0 69.818182-30.254545 69.818182-69.818182v-302.545454h209.454545V407.272727l100.072727-109.381818c4.654545-4.654545 11.636364-6.981818 16.290909-6.981818 4.654545 0 11.636364 2.327273 16.29091 6.981818 9.309091 6.981818 9.309091 23.272727 0 32.581818z"  horiz-adv-x="1024" />

    
    <glyph glyph-name="Homeshouyee" unicode="&#59650;" d="M982.109091 342.10909100000003l-132.654546 146.618182-297.890909 325.818182c-13.963636 13.963636-32.581818 23.272727-51.2 23.272727-18.618182 0-39.563636-9.309091-51.2-23.272727l-297.890909-325.818182-132.654545-146.618182c-9.309091-9.309091-6.981818-23.272727 2.327273-32.581818 4.654545-4.654545 9.309091-6.981818 16.290909-6.981818 6.981818 0 11.636364 2.327273 16.290909 6.981818l100.072727 109.381818v-465.454546h46.545455V470.109091L484.072727 784.290909c4.654545 4.654545 11.636364 6.981818 16.290909 6.981818s11.636364-2.327273 16.290909-6.981818l286.254546-314.181818v-516.654546h46.545454v465.454546l100.072728-109.381818c9.309091-9.309091 23.272727-9.309091 32.581818-2.327273 9.309091 9.309091 9.309091 25.6 0 34.909091zM570.181818 325.818182h-139.636363c-39.563636 0-69.818182-30.254545-69.818182-69.818182v-302.545455h46.545454v302.545455c0 13.963636 9.309091 23.272727 23.272728 23.272727h139.636363c13.963636 0 23.272727-9.309091 23.272727-23.272727v-302.545455h46.545455v302.545455c0 39.563636-30.254545 69.818182-69.818182 69.818182z"  horiz-adv-x="1024" />

    
    <glyph glyph-name="shangyi1" unicode="&#58891;" d="M541.4 685.9l243.4-243.4c11.6-11.6 30.4-11.6 41.9 0 11.6 11.6 11.6 30.4 0 41.9L512.2 799 197.7 484.5c-11.6-11.6-11.6-30.4 0-41.9 11.6-11.6 30.4-11.6 41.9 0L482.1 685v-452.4c0-16.4 13.3-29.7 29.7-29.7s29.7 13.3 29.7 29.7V685.9zM542.4 118.4v-118.1c0-16.4-13.3-29.6-29.6-29.6-16.4 0-29.6 13.3-29.6 29.6V118.4c0 16.4 13.3 29.6 29.6 29.6s29.6-13.3 29.6-29.6z"  horiz-adv-x="1024" />

    
    <glyph glyph-name="xiayi1" unicode="&#58892;" d="M541.4 83.1l243.4 243.4c11.6 11.6 30.4 11.6 41.9 0 11.6-11.6 11.6-30.4 0-41.9L512.2-30 197.7 284.5c-11.6 11.6-11.6 30.4 0 41.9 11.6 11.6 30.4 11.6 41.9 0L482.1 84V536.3c0 16.4 13.3 29.7 29.7 29.7s29.7-13.3 29.7-29.7v-453.2zM542.4 650.6V768.8c0 16.4-13.3 29.6-29.6 29.6-16.4 0-29.6-13.3-29.6-29.6v-118.1c0-16.4 13.3-29.6 29.6-29.6 16.3-0.1 29.6 13.2 29.6 29.5z"  horiz-adv-x="1024" />

    
    <glyph glyph-name="xuanzhong" unicode="&#58893;" d="M186.9 477.3c-17.4 17.4-45.5 17.4-62.9 0s-17.4-45.5 0-62.9l304-303.9 471.6 471.6c17.4 17.4 17.4 45.5 0 62.9s-45.5 17.4-62.9 0L428 236.2 186.9 477.3z"  horiz-adv-x="1024" />

    
    <glyph glyph-name="xiangyou" unicode="&#58894;" d="M286.4 723.9c-17.1 17.1-17.1 44.8 0 61.9s44.8 17.1 61.9 0l402.2-402.2-402.2-402.2c-17.1-17.1-44.8-17.1-61.9 0s-17.1 44.8 0 61.9l340.3 340.3-340.3 340.3z"  horiz-adv-x="1024" />

    
    <glyph glyph-name="yincang" unicode="&#58895;" d="M785.3 367.8c-36.6-22.8-78.8-40.9-124.8-53.5l28.7-131.9c3.5-16-6.7-31.8-22.7-35.3-16-3.5-31.8 6.7-35.3 22.7L602.5 302c-29.2-4.6-59.5-7-90.5-7s-61.3 2.4-90.5 7l-28.7-132.1c-3.5-16-19.3-26.1-35.3-22.7s-26.1 19.3-22.7 35.3l28.7 131.9c-46.1 12.5-88.2 30.7-124.8 53.5L148 274.2c-11.4-11.8-30.2-12.1-41.9-0.7s-12.1 30.2-0.7 41.9l85.1 87.9C132.2 454 97 519.3 97 591.4c0 16.4 13.3 29.6 29.6 29.6s29.6-13.3 29.6-29.6c0-128.2 157.4-237.1 355.7-237.1s355.7 109 355.7 237.1c0 16.4 13.3 29.6 29.6 29.6 16.4 0 29.6-13.3 29.6-29.6 0-72.1-35.2-137.3-93.5-188.1l85.1-87.9c11.4-11.8 11.1-30.5-0.7-41.9s-30.5-11.1-41.9 0.7l-90.5 93.6z"  horiz-adv-x="1024" />

    
    <glyph glyph-name="guanbi" unicode="&#58883;" d="M584.7 384l327.2 327.2c20.1 20.1 20.1 52.6 0 72.7s-52.6 20.1-72.7 0L512 456.7 184.8 783.9c-20.1 20.1-52.6 20.1-72.7 0s-20.1-52.6 0-72.7L439.3 384 112.1 56.8c-20.1-20.1-20.1-52.6 0-72.7s52.6-20.1 72.7 0L512 311.3l327.2-327.2c20.1-20.1 52.6-20.1 72.7 0s20.1 52.6 0 72.7L584.7 384z"  horiz-adv-x="1024" />

    
    <glyph glyph-name="jia" unicode="&#58885;" d="M568.6 440.6h301.8c31.3 0 56.6-25.3 56.6-56.6s-25.3-56.6-56.6-56.6H568.6v-301.8c0-31.3-25.3-56.6-56.6-56.6s-56.6 25.3-56.6 56.6V327.4H153.6c-31.3 0-56.6 25.3-56.6 56.6s25.3 56.6 56.6 56.6h301.8V742.4c0 31.3 25.3 56.6 56.6 56.6s56.6-25.3 56.6-56.6v-301.8z"  horiz-adv-x="1024" />

    
    <glyph glyph-name="biaogeshanchu" unicode="&#58889;" d="M97 650.8c0 16.4 13 29.6 29.5 29.6h770.9c16.3 0 29.5-13.8 29.5-29.6 0-16.4-13-29.6-29.5-29.6H126.5c-16.3-0.1-29.5 13.7-29.5 29.6zM363.8 799h296.4c16.4 0 29.6-13.3 29.6-29.6s-13.3-29.6-29.6-29.6H363.8c-16.4 0-29.6 13.3-29.6 29.6S347.4 799 363.8 799z m385.3-740.7V532.2c0 16.4 13.3 29.6 29.6 29.6s29.6-13.3 29.6-29.6v-473.9c0-49.3-52.6-89.3-118.5-89.3H334.1c-65.5 0-118.5 40.1-118.5 89.3V532.2c0 16.4 13.3 29.6 29.6 29.6s29.6-13.3 29.6-29.6v-473.9c0-12.3 23.5-30 59.3-30h355.8c36.1 0 59.2 17.5 59.2 30zM423.1 502.6c16.4 0 29.6-13.3 29.6-29.6v-296.4c0-16.4-13.3-29.6-29.6-29.6-16.4 0-29.6 13.3-29.6 29.6V472.9c-0.1 16.4 13.2 29.7 29.6 29.7z m177.8 0c16.4 0 29.6-13.3 29.6-29.6v-296.4c0-16.4-13.3-29.6-29.6-29.6-16.4 0-29.6 13.3-29.6 29.6V472.9c0 16.4 13.3 29.7 29.6 29.7z"  horiz-adv-x="1024" />

    
    <glyph glyph-name="kejian" unicode="&#58890;" d="M512 663C283.7 663 97 454 97 384.4c0-92.9 186.8-278.6 415-278.6s415 209 415 278.6C927 454 740.2 663 512 663z m0-498c-91 0-182.6 34.8-256.9 92.1-60.5 46.7-98.8 102.1-98.8 127.2 0 62.7 193.4 219.4 355.7 219.4 162.3 0 355.7-156.7 355.7-219.4C867.7 321.7 674.3 165 512 165zM512.4 517C438.7 517 379 457.3 379 383.6s59.7-133.4 133.4-133.4 133.4 59.7 133.4 133.4S586.1 517 512.4 517z m0-207.5c-40.9 0-74.1 33.2-74.1 74.1 0 40.9 33.2 74.1 74.1 74.1 40.9 0 74.1-33.2 74.1-74.1 0-40.9-33.2-74.1-74.1-74.1z"  horiz-adv-x="1024" />

    
    <glyph glyph-name="bianji" unicode="&#58882;" d="M655-11H369c-67.3 0-130.6 26.2-178.2 73.8C143.2 110.4 117 173.7 117 241V527c0 67.3 26.2 130.6 73.8 178.2S301.7 779 369 779h175.3c16.6 0 30-13.4 30-30s-13.4-30-30-30H369c-105.9 0-192-86.1-192-192v-286c0-105.9 86.1-192 192-192h286c105.9 0 192 86.1 192 192V407.4c0 16.6 13.4 30 30 30s30-13.4 30-30V241c0-67.3-26.2-130.6-73.8-178.2C785.6 15.2 722.3-11 655-11zM531.4 403.4c-11.7 11.7-11.7 30.7 0 42.4l324.4 324.4c11.7 11.7 30.7 11.7 42.4 0s11.7-30.7 0-42.4L573.8 403.4c-11.7-11.7-30.7-11.7-42.4 0z"  horiz-adv-x="1024" />

    
    <glyph glyph-name="wenjianjia" unicode="&#58884;" d="M935.563636-30.254545h-768c-39.563636 0-69.818182 30.254545-69.818181 69.818181v488.727273c0 39.563636 30.254545 69.818182 69.818181 69.818182h698.181819c39.563636 0 69.818182-30.254545 69.818181-69.818182v-558.545454z m-768 581.818181c-13.963636 0-23.272727-9.309091-23.272727-23.272727v-488.727273c0-13.963636 9.309091-23.272727 23.272727-23.272727h721.454546v512c0 13.963636-9.309091 23.272727-23.272727 23.272727h-698.181819zM705.163636 714.472727H111.709091c-13.963636 0-23.272727 9.309091-23.272727 23.272728s9.309091 23.272727 23.272727 23.272727h591.127273c13.963636 0 23.272727-9.309091 23.272727-23.272727s-9.309091-23.272727-20.945455-23.272728z"  horiz-adv-x="1024" />

    
    <glyph glyph-name="shangyi" unicode="&#58886;" d="M940.218182 525.963636c-6.981818-9.309091-23.272727-11.636364-32.581818-4.654545l-102.4 79.127273v-595.781819c0-13.963636-9.309091-23.272727-23.272728-23.272727s-23.272727 9.309091-23.272727 23.272727V602.763636l-102.4-81.454545c-9.309091-6.981818-25.6-6.981818-32.581818 4.654545-6.981818 9.309091-6.981818 25.6 4.654545 32.581819l153.6 121.018181 153.6-121.018181c9.309091-6.981818 11.636364-20.945455 4.654546-32.581819zM491.054545 633.018182H111.709091c-13.963636 0-23.272727-9.309091-23.272727-23.272727s9.309091-23.272727 23.272727-23.272728h379.345454c13.963636 0 23.272727 9.309091 23.272728 23.272728s-11.636364 23.272727-23.272728 23.272727zM491.054545 353.745455H111.709091c-13.963636 0-23.272727-9.309091-23.272727-23.272728s9.309091-23.272727 23.272727-23.272727h379.345454c13.963636 0 23.272727 9.309091 23.272728 23.272727s-11.636364 23.272727-23.272728 23.272728zM491.054545 74.472727H111.709091c-13.963636 0-23.272727-9.309091-23.272727-23.272727s9.309091-23.272727 23.272727-23.272727h379.345454c13.963636 0 23.272727 9.309091 23.272728 23.272727s-11.636364 23.272727-23.272728 23.272727z"  horiz-adv-x="1024" />

    
    <glyph glyph-name="xiayi" unicode="&#58887;" d="M993.745455 155.927273c-6.981818 9.309091-23.272727 11.636364-32.581819 4.654545L861.090909 81.454545V677.236364c0 13.963636-9.309091 23.272727-23.272727 23.272727s-23.272727-9.309091-23.272727-23.272727V81.454545l-102.4 81.454546c-9.309091 6.981818-25.6 6.981818-32.581819-4.654546-6.981818-9.309091-6.981818-25.6 4.654546-32.581818l153.6-121.018182 153.6 121.018182c9.309091 6.981818 11.636364 20.945455 2.327273 30.254546zM546.909091 653.963636H165.236364c-13.963636 0-23.272727-9.309091-23.272728-23.272727s9.309091-23.272727 23.272728-23.272727h379.345454c13.963636 0 23.272727 9.309091 23.272727 23.272727s-9.309091 23.272727-20.945454 23.272727zM546.909091 374.690909H165.236364c-13.963636 0-23.272727-9.309091-23.272728-23.272727s9.309091-23.272727 23.272728-23.272727h379.345454c13.963636 0 23.272727 9.309091 23.272727 23.272727s-9.309091 23.272727-20.945454 23.272727zM546.909091 95.418182H165.236364c-13.963636 0-23.272727-9.309091-23.272728-23.272727s9.309091-23.272727 23.272728-23.272728h379.345454c13.963636 0 23.272727 9.309091 23.272727 23.272728s-9.309091 23.272727-20.945454 23.272727z"  horiz-adv-x="1024" />

    
    <glyph glyph-name="morendenglu" unicode="&#58888;" d="M553.890909 628.363636c-9.309091-9.309091-9.309091-23.272727-2.327273-32.581818l55.854546-62.836363-286.254546-2.327273c-13.963636 0-23.272727-11.636364-23.272727-23.272727 0-13.963636 11.636364-23.272727 23.272727-23.272728l286.254546 2.327273-55.854546-65.163636c-9.309091-9.309091-6.981818-23.272727 2.327273-32.581819 4.654545-4.654545 9.309091-4.654545 16.290909-4.654545 6.981818 0 13.963636 2.327273 18.618182 6.981818l102.4 118.690909-104.727273 116.363637c-9.309091 9.309091-23.272727 9.309091-32.581818 2.327272zM928.581818 267.636364V714.472727c0 39.563636-30.254545 69.818182-69.818182 69.818182h-698.181818c-39.563636 0-69.818182-30.254545-69.818182-69.818182v-535.272727c0-39.563636 30.254545-69.818182 69.818182-69.818182h325.818182v-90.763636h-209.454545v-46.545455h465.454545v46.545455h-209.454545v93.090909h395.636363v146.618182c0 2.327273 2.327273 4.654545 2.327273 6.981818s-2.327273 0-2.327273 2.327273z m-46.545454-111.709091h-721.454546c-13.963636 0-23.272727 9.309091-23.272727 23.272727v60.509091h744.727273v-83.781818z m0 128H139.636364h-2.327273V714.472727c0 13.963636 9.309091 23.272727 23.272727 23.272728h698.181818c13.963636 0 23.272727-9.309091 23.272728-23.272728v-430.545454z"  horiz-adv-x="1024" />

    
    <glyph glyph-name="time" unicode="&#59328;" d="M507.345 805.236C269.964 805.236 76.8 612.073 76.8 374.69100000000003s193.164-430.546 430.545-430.546S937.891 137.30999999999995 937.891 374.69100000000003 744.727 805.236 507.345 805.236z m0-791.272c-200.145 0-360.727 160.581-360.727 360.727S307.2 735.418 507.345 735.418s360.728-160.582 360.728-360.727-162.91-360.727-360.728-360.727zM693.527 386.327H542.255V607.418c0 18.618-16.291 34.91-34.91 34.91s-34.909-16.292-34.909-34.91v-256c0-18.618 16.291-34.909 34.91-34.909h186.181c18.618 0 34.91 16.291 34.91 34.91s-16.292 34.908-34.91 34.908z"  horiz-adv-x="1024" />

    
    <glyph glyph-name="bangzhu" unicode="&#59573;" d="M512-128C229.229714-128 0 101.229714 0 384S229.229714 896 512 896 1024 666.770286 1024 384 794.770286-128 512-128z m0 97.52381a414.47619 414.47619 0 1 1 0 828.95238 414.47619 414.47619 0 0 1 0-828.95238z m-46.275048 284.038095l1.219048 15.750095c6.144 80.310857 33.353143 129.511619 83.919238 175.88419 29.696 27.160381 32.182857 29.598476 39.009524 38.37562a46.811429 46.811429 0 0 1 11.117714 31.061333c0 17.749333-9.606095 37.059048-25.843809 52.370286-14.09219 13.214476-33.645714 19.017143-63.146667 19.017142-23.990857 0-43.300571-6.095238-57.051429-19.017142-16.530286-15.506286-26.819048-36.08381-32.182857-66.364953l-2.291809-13.165714-95.670857 8.143238 2.048 15.213714c6.582857 49.542095 26.770286 87.527619 60.562285 112.932572 37.449143 28.184381 77.04381 43.056762 124.586667 43.056762 55.247238 0 99.961905-13.994667 131.949714-44.080762 36.181333-34.084571 53.345524-66.31619 53.345524-108.105143 0-25.258667-6.631619-45.543619-20.967619-65.77981-3.657143-5.12-9.99619-11.361524-21.796571-22.040381-0.828952-0.682667-24.722286-21.942857-32.182858-28.769523-6.144-5.656381-11.605333-10.776381-16.579047-15.701334-17.16419-16.920381-27.989333-30.329905-31.305143-39.107047-2.145524-5.558857-10.922667-27.111619-12.483048-31.792762-3.559619-10.727619-4.87619-21.357714-4.87619-43.25181v-14.628571H465.724952zM467.968 164.571429c0 26.916571 21.796571 49.737143 48.761905 49.737142 26.916571 0 48.761905-22.820571 48.761905-49.737142s-21.845333-47.786667-48.761905-47.786667c-26.965333 0-48.761905 20.870095-48.761905 47.786667z"  horiz-adv-x="1024" />

    
    <glyph glyph-name="riqi" unicode="&#59602;" d="M862.315789 788.210526h161.684211a107.789474 107.789474 0 0 0 107.789474-107.789473v-700.631579a107.789474 107.789474 0 0 0-107.789474-107.789474H107.789474a107.789474 107.789474 0 0 0-107.789474 107.789474V680.421053a107.789474 107.789474 0 0 0 107.789474 107.789473h161.68421V847.494737a48.505263 48.505263 0 0 0 97.010527 0V788.210526h398.821052V847.494737a48.505263 48.505263 0 1 0 97.010526 0V788.210526z m0-97.010526v-70.063158a48.505263 48.505263 0 1 0-97.010526 0V691.2H366.484211v-70.063158a48.505263 48.505263 0 0 0-97.010527 0V691.2H107.789474a10.778947 10.778947 0 0 1-10.778948-10.778947v-700.631579c0-5.928421 4.850526-10.778947 10.778948-10.778948h916.210526a10.778947 10.778947 0 0 1 10.778947 10.778948V680.421053a10.778947 10.778947 0 0 1-10.778947 10.778947h-161.684211zM264.084211 410.947368h64.673684a48.505263 48.505263 0 0 0 0-97.010526H264.084211a48.505263 48.505263 0 1 0 0 97.010526z m269.473684 0h64.673684a48.505263 48.505263 0 1 0 0-97.010526H533.557895a48.505263 48.505263 0 1 0 0 97.010526z m269.473684 0h64.673684a48.505263 48.505263 0 1 0 0-97.010526h-64.673684a48.505263 48.505263 0 1 0 0 97.010526z m-538.947368-161.68421h64.673684a48.505263 48.505263 0 1 0 0-97.010526H264.084211a48.505263 48.505263 0 1 0 0 97.010526z m269.473684 0h64.673684a48.505263 48.505263 0 1 0 0-97.010526H533.557895a48.505263 48.505263 0 1 0 0 97.010526z m269.473684 0h64.673684a48.505263 48.505263 0 1 0 0-97.010526h-64.673684a48.505263 48.505263 0 1 0 0 97.010526z"  horiz-adv-x="1131" />

    
    <glyph glyph-name="tuichuquanping" unicode="&#59605;" d="M0 574.171429V822.857143a73.142857 73.142857 0 0 0 73.142857 73.142857h248.685714a43.885714 43.885714 0 1 0 0-87.771429H87.771429v-234.057142a43.885714 43.885714 0 1 0-87.771429 0z m724.114286 84.114285L930.962286 864.914286a43.885714 43.885714 0 1 0 62.098285-62.098286l-214.089142-214.016h179.346285a43.885714 43.885714 0 0 0 0-87.771429H709.485714a73.142857 73.142857 0 0 0-73.142857 73.142858V822.857143a43.885714 43.885714 0 1 0 87.771429 0v-164.717714zM299.885714 109.714286l-206.774857-206.701715a43.885714 43.885714 0 1 0-62.098286 62.098286L245.101714 179.2H65.755429a43.885714 43.885714 0 1 0 0 87.771429h248.685714a73.142857 73.142857 0 0 0 73.142857-73.142858V-54.857143a43.885714 43.885714 0 0 0-87.771429 0v164.644572zM1024 193.828571V-128H702.171429a43.885714 43.885714 0 0 0 0 87.771429h234.057142V193.828571a43.885714 43.885714 0 0 0 87.771429 0z"  horiz-adv-x="1024" />

    
    <glyph glyph-name="quanpingzhanshi" unicode="&#59606;" d="M0 574.171429V822.857143a73.142857 73.142857 0 0 0 73.142857 73.142857h248.685714a43.885714 43.885714 0 1 0 0-87.771429H87.771429v-234.057142a43.885714 43.885714 0 1 0-87.771429 0z m936.228571 164.644571L729.526857 532.114286a43.885714 43.885714 0 1 0-62.098286 62.098285L881.444571 808.228571H702.171429a43.885714 43.885714 0 1 0 0 87.771429H950.857143a73.142857 73.142857 0 0 0 73.142857-73.142857v-248.685714a43.885714 43.885714 0 0 0-87.771429 0V738.816zM87.771429 29.257143l206.701714 206.774857a43.885714 43.885714 0 1 0 62.098286-62.098286l-214.016-214.016H321.828571a43.885714 43.885714 0 0 0 0-87.771428H73.142857a73.142857 73.142857 0 0 0-73.142857 73.142857V193.828571a43.885714 43.885714 0 1 0 87.771429 0v-164.717714zM1024 193.828571V-128H702.171429a43.885714 43.885714 0 0 0 0 87.771429h234.057142V193.828571a43.885714 43.885714 0 0 0 87.771429 0z"  horiz-adv-x="1024" />

    


  </font>
</defs>
</svg>
