<?xml version="1.0" encoding="utf-8"?>
<!-- Generator: Adobe Illustrator 19.2.1, SVG Export Plug-In . SVG Version: 6.00 Build 0)  -->
<svg version="1.1" id="iCON" xmlns="http://www.w3.org/2000/svg" xmlns:xlink="http://www.w3.org/1999/xlink" x="0px" y="0px"
	 viewBox="0 0 44 44" style="enable-background:new 0 0 44 44;" xml:space="preserve">
<style type="text/css">
	.st0{fill:#8A8E96;}
</style>
<title>人力设置</title>
<path class="st0" d="M39.5,33.2V9.9c0-1.7-1.3-2.9-2.9-2.9H7.4C5.8,7,4.5,8.4,4.5,9.9v20.4c0,1.7,1.3,2.9,2.9,2.9H21V39h-8.7V41
	h19.4V39H23v-5.8H39.5z M24.9,13.8h8.7c0.6,0,1,0.4,1,1c0,0.6-0.4,1-1,1h-8.7c-0.6,0-1-0.4-1-1C23.9,14.2,24.3,13.8,24.9,13.8z
	 M24.9,18.7h8.7c0.6,0,1,0.4,1,1c0,0.6-0.4,1-1,1h-8.7c-0.6,0-1-0.4-1-1C23.9,19,24.3,18.7,24.9,18.7z M7.4,31.3c-0.6,0-1-0.4-1-1
	v-3.9h31.1v4.9H7.4z"/>
</svg>
