<?xml version="1.0" encoding="UTF-8"?>
<svg width="51px" height="48px" viewBox="0 0 51 48" version="1.1" xmlns="http://www.w3.org/2000/svg" xmlns:xlink="http://www.w3.org/1999/xlink">
    <!-- Generator: Sketch 49 (51002) - http://www.bohemiancoding.com/sketch -->
    <title>Fill 1</title>
    <desc>Created with Sketch.</desc>
    <defs>
        <linearGradient x1="50%" y1="0%" x2="50%" y2="100%" id="linearGradient-1">
            <stop stop-color="#00CDB5" offset="0%"></stop>
            <stop stop-color="#00E6CD" offset="100%"></stop>
        </linearGradient>
    </defs>
    <g id="首页磁贴调整final" stroke="none" stroke-width="1" fill="none" fill-rule="evenodd">
        <g id="图标" transform="translate(-1861.000000, -1239.000000)" fill="url(#linearGradient-1)">
            <g id="Group-63" transform="translate(1856.000000, 1232.000000)">
                <path d="M53.8751789,32.3706757 L52.2982053,32.3706757 C52.2995474,32.3247297 52.3129684,32.2828378 52.3129684,32.2368919 L52.3129684,14.0058108 C52.3129684,10.3368919 49.3482579,7.35175676 45.7031,7.35175676 L15.2963632,7.35175676 C11.6525474,7.35175676 8.68783684,10.3368919 8.68783684,14.0058108 L8.68783684,32.2368919 C8.68783684,32.2828378 8.69991579,32.3247297 8.70125789,32.3706757 L7.12428421,32.3706757 C5.95128421,32.3706757 4.99973158,33.3287838 4.99973158,34.5098649 L4.99973158,49.8436486 C4.99973158,52.6868919 7.28802105,54.9895946 10.1104684,54.9895946 L50.8889947,54.9895946 C53.7114421,54.9895946 55.9997316,52.6868919 55.9997316,49.8436486 L55.9997316,34.5098649 C55.9997316,33.3287838 55.0495211,32.3706757 53.8751789,32.3706757 Z M48.2866526,32.2368919 C48.2866526,32.2841892 48.2718895,32.3274324 48.2584684,32.3706757 L36.5915474,32.3706757 C36.6036263,32.5139189 36.6157053,32.6585135 36.6157053,32.8206757 C36.6157053,36.2206757 33.8778105,38.9774324 30.4997316,38.9774324 C27.1216526,38.9774324 24.3837579,36.2206757 24.3837579,32.8206757 C24.3837579,32.6585135 24.3958368,32.5139189 24.4092579,32.3706757 L12.7409947,32.3706757 C12.7275737,32.3274324 12.7141526,32.2841892 12.7141526,32.2368919 L12.7141526,14.0058108 C12.7141526,12.572027 13.8723895,11.4058108 15.2963632,11.4058108 L45.7031,11.4058108 C47.1284158,11.4058108 48.2866526,12.572027 48.2866526,14.0058108 L48.2866526,32.2368919 Z M25.7841105,21.4393243 L29.2427158,24.2136486 L36.7732684,17.3960811 C36.7732684,17.3960811 37.3503737,16.8636486 37.8550053,17.2798649 C38.0039789,17.4041892 38.1784526,17.7568919 37.7879,18.3109459 L29.8788737,27.7460811 C29.8788737,27.7460811 29.1903737,28.6960811 28.3716895,27.7366216 L24.4903211,22.4609459 C24.4903211,22.4609459 24.0299789,21.7460811 24.6057421,21.3177027 C24.8016895,21.1744595 25.2432421,20.9501351 25.7841105,21.4393243" id="Fill-1"></path>
            </g>
        </g>
    </g>
</svg>