<?xml version="1.0" encoding="utf-8"?>
<!-- Generator: Adobe Illustrator 19.2.1, SVG Export Plug-In . SVG Version: 6.00 Build 0)  -->
<svg version="1.1" id="iCON" xmlns="http://www.w3.org/2000/svg" xmlns:xlink="http://www.w3.org/1999/xlink" x="0px" y="0px"
	 viewBox="0 0 44 44" style="enable-background:new 0 0 44 44;" xml:space="preserve">
<style type="text/css">
	.st0{fill:#8A8E96;}
</style>
<title>员工管理1</title>
<path class="st0" d="M17,20h13V6c0-2.2-1.8-4-4-4h-8c-2.2,0-4,1.8-4,4v11C14,18.7,15.3,20,17,20z"/>
<path class="st0" d="M31,24H13c-1.1,0-2,0.9-2,2v16h22V26C33,24.9,32.1,24,31,24z M25.7,29.7L23,32.4V37h-2v-4.6l-2.7-2.7
	c-0.4-0.4-0.5-1-0.1-1.4c0.4-0.4,1-0.5,1.4-0.1l0.1,0.1l2.3,2.3l2.3-2.3c0.4-0.4,1.1-0.4,1.4,0C26.1,28.7,26.1,29.3,25.7,29.7
	L25.7,29.7z"/>
</svg>
