<?xml version="1.0" encoding="UTF-8"?>
<svg width="12px" height="15px" viewBox="0 0 12 15" version="1.1" xmlns="http://www.w3.org/2000/svg" xmlns:xlink="http://www.w3.org/1999/xlink">
    <!-- Generator: Sketch 49 (51002) - http://www.bohemiancoding.com/sketch -->
    <title>总账</title>
    <desc>Created with Sketch.</desc>
    <defs>
        <polygon id="path-1" points="0.000120535713 0.000203571429 18.0001205 0.000203571429 18.0001205 18.0002036 0.000120535713 18.0002036"></polygon>
    </defs>
    <g id="Page-1" stroke="none" stroke-width="1" fill="none" fill-rule="evenodd">
        <g id="Artboard-8" transform="translate(-413.000000, -53.000000)">
            <g id="总账" transform="translate(410.000000, 51.000000)">
                <mask id="mask-2" fill="white">
                    <use xlink:href="#path-1"></use>
                </mask>
                <g id="Clip-2"></g>
                <path d="M11.0361161,8.53676471 L9.0271875,8.53676471 L9.0271875,9.79411765 L10.6343304,9.79411765 C10.8565179,9.79411765 11.0361161,9.98146324 11.0361161,10.2132353 C11.0361161,10.4450074 10.8565179,10.6323529 10.6343304,10.6323529 L9.0271875,10.6323529 L9.0271875,12.7279412 L8.22361607,12.7279412 L8.22361607,10.6323529 L6.61647321,10.6323529 C6.39428571,10.6323529 6.2146875,10.4450074 6.2146875,10.2132353 C6.2146875,9.98146324 6.39428571,9.79411765 6.61647321,9.79411765 L8.22361607,9.79411765 L8.22361607,8.53676471 L6.2146875,8.53676471 C5.9925,8.53676471 5.81290179,8.34941912 5.81290179,8.11764706 C5.81290179,7.885875 5.9925,7.69852941 6.2146875,7.69852941 L6.9853125,7.69852941 L5.90089286,6.28400735 C5.76227679,6.10294853 5.79040179,5.83932353 5.96357143,5.69472794 C6.13794643,5.54971324 6.38986607,5.57947059 6.52848214,5.76011029 L8.0146875,7.69852941 L9.23571429,7.69852941 L10.7223214,5.76011029 C10.8613393,5.58030882 11.1136607,5.55013235 11.2872321,5.69472794 C11.4604018,5.83932353 11.4885268,6.10294853 11.3499107,6.28400735 L10.2650893,7.69852941 L11.0361161,7.69852941 C11.2583036,7.69852941 11.4379018,7.885875 11.4379018,8.11764706 C11.4379018,8.34941912 11.2583036,8.53676471 11.0361161,8.53676471 M13.8482143,8.64154412 L14.25,8.64154412 L14.25,3.45286765 C14.25,2.78940441 13.7329018,2.25 13.096875,2.25 L4.153125,2.25 C3.51709821,2.25 3,2.78940441 3,3.45286765 L3,8.64154412 L3.40178571,8.64154412 C4.06633929,8.64154412 4.60714286,9.20567647 4.60714286,9.89889706 C4.60714286,10.5921176 4.06633929,11.15625 3.40178571,11.15625 L3,11.15625 L3,15.2971324 C3,15.9605956 3.51709821,16.5 4.153125,16.5 L14.25,16.5 L14.25,11.15625 L13.8482143,11.15625 C13.1836607,11.15625 12.6428571,10.5921176 12.6428571,9.89889706 C12.6428571,9.20567647 13.1836607,8.64154412 13.8482143,8.64154412" id="Fill-1" fill="#8A8E96" mask="url(#mask-2)"></path>
            </g>
        </g>
    </g>
</svg>