<?xml version="1.0" encoding="utf-8"?>
<!-- Generator: Adobe Illustrator 19.2.1, SVG Export Plug-In . SVG Version: 6.00 Build 0)  -->
<svg version="1.1" id="iCON" xmlns="http://www.w3.org/2000/svg" xmlns:xlink="http://www.w3.org/1999/xlink" x="0px" y="0px"
	 viewBox="0 0 44 44" style="enable-background:new 0 0 44 44;" xml:space="preserve">
<style type="text/css">
	.st0{fill:#8A8E96;}
</style>
<title>绩效管理</title>
<g>
	<path class="st0" d="M13.2,26.1H9.5c-1.6,0-2.8,1.2-2.8,2.8v7.5c0,1.6,1.2,2.8,2.8,2.8H16V28.9C16,27.3,14.7,26.1,13.2,26.1z"/>
	<path class="st0" d="M24.3,16.7h-3.7c-1.6,0-2.8,1.2-2.8,2.8v16.8c0,1.6,1.2,2.8,2.8,2.8h6.5V19.5C27.1,18,25.8,16.7,24.3,16.7z"/>
	<path class="st0" d="M31.7,7.4c-0.6,0-0.9,0.4-0.9,0.9c0,0.6,0.4,0.9,0.9,0.9h3.3l-4.4,4.1l-7-8.1c-0.4-0.4-0.9-0.5-1.3-0.1l0,0
		L6.1,19.8c-0.4,0.4-0.4,0.9-0.1,1.3l0,0c0.4,0.4,0.9,0.4,1.3,0.1L22.7,7.1l7,8.1c0.4,0.4,0.9,0.5,1.3,0.1l0,0l5.3-4.7V14
		c0,0.6,0.4,0.9,0.9,0.9c0.6,0,0.9-0.4,0.9-0.9V7.4H31.7L31.7,7.4z"/>
	<path class="st0" d="M35.4,22.4h-3.7c-1.6,0-2.8,1.2-2.8,2.8v11.2c0,1.6,1.2,2.8,2.8,2.8l0,0h6.5V25.1
		C38.2,23.6,36.9,22.4,35.4,22.4z"/>
</g>
</svg>
