<?xml version="1.0" encoding="UTF-8"?>
<svg width="54px" height="49px" viewBox="0 0 54 49" version="1.1" xmlns="http://www.w3.org/2000/svg" xmlns:xlink="http://www.w3.org/1999/xlink">
    <!-- Generator: Sketch 49 (51002) - http://www.bohemiancoding.com/sketch -->
    <title>Combined Shape</title>
    <desc>Created with Sketch.</desc>
    <defs>
        <linearGradient x1="50%" y1="0%" x2="50%" y2="100%" id="linearGradient-1">
            <stop stop-color="#E14C46" offset="0%"></stop>
            <stop stop-color="#E87672" offset="100%"></stop>
        </linearGradient>
    </defs>
    <g id="首页磁贴调整final" stroke="none" stroke-width="1" fill="none" fill-rule="evenodd">
        <g id="图标" transform="translate(-2833.000000, -1630.000000)" fill="url(#linearGradient-1)">
            <g id="Group-103" transform="translate(2827.000000, 1625.000000)">
                <g id="Group-81">
                    <path d="M50.281485,7.68837368 C48.993585,5.45645263 46.103235,4.67803158 43.858185,5.9584 L31.277535,13.1010842 L53.385135,13.1010842 L50.281485,7.68837368 Z M46.890015,40.1394053 L17.476215,40.1394053 C16.731015,40.1394053 16.126215,39.5394842 16.126215,38.7973 C16.126215,38.0551158 16.731015,37.4551947 17.476215,37.4551947 L46.890015,37.4551947 C47.635215,37.4551947 48.240015,38.0551158 48.240015,38.7973 C48.240015,39.5394842 47.635215,40.1394053 46.890015,40.1394053 M44.792115,26.4230895 C46.426965,26.4230895 47.751315,27.7396947 47.751315,29.3636421 C47.751315,30.9889316 46.426965,32.3055368 44.792115,32.3055368 C43.158615,32.3055368 41.834265,30.9889316 41.834265,29.3636421 C41.834265,27.7396947 43.158615,26.4230895 44.792115,26.4230895 M54.374415,14.9896947 L11.298615,14.9896947 C8.383965,14.9896947 5.999865,17.3598526 5.999865,20.2574579 L5.999865,48.5087737 C5.999865,51.4063789 8.383965,53.7765368 11.298615,53.7765368 L54.374415,53.7765368 C57.289065,53.7765368 59.673165,51.4063789 59.673165,48.5087737 L59.673165,20.2574579 C59.673165,17.3598526 57.289065,14.9896947 54.374415,14.9896947" id="Combined-Shape"></path>
                </g>
            </g>
        </g>
    </g>
</svg>