<?xml version="1.0" encoding="utf-8"?>
<!-- Generator: Adobe Illustrator 19.2.1, SVG Export Plug-In . SVG Version: 6.00 Build 0)  -->
<svg version="1.1" id="iCON" xmlns="http://www.w3.org/2000/svg" xmlns:xlink="http://www.w3.org/1999/xlink" x="0px" y="0px"
	 viewBox="0 0 44 44" style="enable-background:new 0 0 44 44;" xml:space="preserve">
<style type="text/css">
	.st0{fill:#8A8E96;}
</style>
<title>薪酬管理</title>
<path class="st0" d="M35,20.2h1V7.9C36,6.3,34.7,5,33.1,5H10.9C9.3,5,8,6.3,8,7.9v12.4h1c1.7,0,3,1.3,3,3s-1.3,3-3,3H8v9.9
	c0,1.5,1.3,2.8,2.9,2.8H36V26.2h-1c-1.7,0-3-1.3-3-3S33.3,20.2,35,20.2z M28,20h-5v3h4c0.6,0,1,0.4,1,1s-0.4,1-1,1h-4v5h-2v-5h-4
	c-0.6,0-1-0.4-1-1s0.4-1,1-1h4v-3h-5c-0.6,0-1-0.4-1-1s0.4-1,1-1h1.9l-2.7-3.4c-0.3-0.4-0.3-1,0.1-1.4c0.4-0.4,1.1-0.3,1.4,0.1l0,0
	l3.7,4.6h3l3.7-4.6c0.4-0.4,1-0.5,1.4-0.1c0.4,0.3,0.5,0.9,0.2,1.4L26,18h2c0.5,0.1,0.9,0.6,0.9,1.1C28.8,19.6,28.5,19.9,28,20
	L28,20z"/>
</svg>
