<?xml version="1.0" encoding="utf-8"?>
<!-- Generator: Adobe Illustrator 21.0.0, SVG Export Plug-In . SVG Version: 6.00 Build 0)  -->
<svg version="1.1" id="Layer_1" xmlns="http://www.w3.org/2000/svg" xmlns:xlink="http://www.w3.org/1999/xlink" x="0px" y="0px"
	 viewBox="0 0 48 48" style="enable-background:new 0 0 48 48;" xml:space="preserve">
<path d="M41,34.7V13.5c0-1.3-0.8-2.5-2.1-2.9l-14-4.3c-0.6-0.2-1.2-0.2-1.8,0l-14,4.3C7.9,11,7,12.2,7,13.5v21.2l16.5,6.2
	c0.1,0,0.2,0.1,0.3,0.1L24,41l0.2-0.1c0.1,0,0.2-0.1,0.3-0.1L41,34.7z M25,38.5V19.6c0,0,0.1,0,0.1,0L39,14.1v19.2L25,38.5z
	 M23.7,8.2c0.2-0.1,0.4-0.1,0.6,0l13.5,4.2l-13.5,5.4c-0.2,0.1-0.5,0.1-0.7,0l-13.5-5.4L23.7,8.2z M9,14.1l13.9,5.5c0,0,0.1,0,0.1,0
	v18.9L9,33.3V14.1z"/>
</svg>
