<?xml version="1.0" encoding="utf-8"?>
<!-- Generator: Adobe Illustrator 19.2.1, SVG Export Plug-In . SVG Version: 6.00 Build 0)  -->
<svg version="1.1" id="iCON" xmlns="http://www.w3.org/2000/svg" xmlns:xlink="http://www.w3.org/1999/xlink" x="0px" y="0px"
	 viewBox="0 0 44 44" style="enable-background:new 0 0 44 44;" xml:space="preserve">
<style type="text/css">
	.st0{fill:#8A8E96;}
</style>
<title>个人业务</title>
<g>
	<path class="st0" d="M18.4,5.2H13c-2,0-3.5,1.6-3.5,3.5v8c0,1.5,1.2,2.7,2.7,2.7h9.8V8.7C21.9,6.7,20.3,5.2,18.4,5.2z"/>
	<path class="st0" d="M22.8,21.1H8.6c-1.5,0-2.7,1.2-2.7,2.7v15.1h19.5V23.8C25.5,22.3,24.3,21.1,22.8,21.1z M19,26.2l-2.4,2.4v4.1
		h-1.8v-4.1l-2.4-2.4c-0.4-0.4-0.3-1,0.1-1.2s0.8-0.3,1.2,0l2,2l2-2c0.4-0.4,0.9-0.4,1.2,0S19.3,25.8,19,26.2L19,26.2z"/>
	<g id="_编组_">
		<rect x="25.5" y="12.2" class="st0" width="12.4" height="1.8"/>
	</g>
	<g id="_编组_2">
		<rect x="30.8" y="33.5" class="st0" width="7.3" height="1.8"/>
	</g>
	<g id="_编组_3">
		<rect x="29" y="23.8" class="st0" width="8.9" height="1.8"/>
	</g>
</g>
</svg>
