<?xml version="1.0" encoding="utf-8"?>
<!-- Generator: Adobe Illustrator 19.2.1, SVG Export Plug-In . SVG Version: 6.00 Build 0)  -->
<svg version="1.1" id="iCON" xmlns="http://www.w3.org/2000/svg" xmlns:xlink="http://www.w3.org/1999/xlink" x="0px" y="0px"
	 viewBox="0 0 44 44" style="enable-background:new 0 0 44 44;" xml:space="preserve">
<style type="text/css">
	.st0{fill:#8A8E96;}
</style>
<g>
	<title>共享服务</title>
	<path class="st0" d="M37.7,6.7h-5.5c-1.6,0-2.8,1.2-2.8,2.8v2.2L14.5,20c-0.3-1.2-1.4-2.1-2.7-2.1H6.3c-1.6,0-2.8,1.2-2.8,2.8v5.6
		c0,1.6,1.2,2.8,2.8,2.8h5.5c1,0,2-0.6,2.5-1.6l13.2,5v2.1c0,1.6,1.2,2.8,2.8,2.8h5.5c1.6,0,2.8-1.2,2.8-2.8v-5.5
		c0-1.6-1.2-2.8-2.8-2.8h-5.5c-1.6,0-2.8,1.2-2.8,2.8v1.5l-12.9-4.8v-3.4L29.4,14v1.1c0,1.6,1.2,2.8,2.8,2.8h5.5
		c1.6,0,2.8-1.2,2.8-2.8V9.5C40.5,7.9,39.3,6.7,37.7,6.7L37.7,6.7z"/>
</g>
</svg>
