<?xml version="1.0" encoding="utf-8"?>
<!-- Generator: Adobe Illustrator 19.2.1, SVG Export Plug-In . SVG Version: 6.00 Build 0)  -->
<svg version="1.1" id="iCON" xmlns="http://www.w3.org/2000/svg" xmlns:xlink="http://www.w3.org/1999/xlink" x="0px" y="0px"
	 viewBox="0 0 44 44" style="enable-background:new 0 0 44 44;" xml:space="preserve">
<style type="text/css">
	.st0{fill:#8A8E96;}
</style>
<title>员工管理</title>
<g>
	<path class="st0" d="M13.3,20.3h9.6V9.8c0-1.9-1.6-3.5-3.5-3.5h-5.2c-1.9,0-3.5,1.6-3.5,3.5v7.8C10.7,19.1,11.8,20.3,13.3,20.3z"/>
	<path class="st0" d="M23.7,22H9.8c-1.5,0-2.6,1.1-2.6,2.6v14.8h19.2V24.6C26.4,23.1,25.2,22,23.7,22z M20,27l-2.4,2.4v4h-1.7v-4
		L13.6,27c-0.3-0.3-0.3-1,0.1-1.2c0.3-0.3,0.8-0.3,1.1,0l2,2l2-2c0.3-0.3,0.9-0.3,1.2,0C20.3,26.1,20.3,26.6,20,27z"/>
	<path class="st0" d="M26.4,6.3h6.1c0.5,0,0.9,0.3,0.9,0.9v8.7c0,0.5,0.3,0.9,0.9,0.9s0.9-0.3,0.9-0.9V7.2c0-1.5-1.1-2.6-2.6-2.6
		h-6.1c-0.5,0-0.9,0.3-0.9,0.9S25.8,6.3,26.4,6.3z"/>
	<path class="st0" d="M34.2,19.4h-6.1v1.7h6.1c0.5,0,0.9,0.3,0.9,0.9v14.8h1.7V22C36.8,20.5,35.7,19.4,34.2,19.4z"/>
</g>
</svg>
