<?xml version="1.0" encoding="utf-8"?>
<!-- Generator: Adobe Illustrator 19.2.1, SVG Export Plug-In . SVG Version: 6.00 Build 0)  -->
<svg version="1.1" id="iCON" xmlns="http://www.w3.org/2000/svg" xmlns:xlink="http://www.w3.org/1999/xlink" x="0px" y="0px"
	 viewBox="0 0 44 44" style="enable-background:new 0 0 44 44;" xml:space="preserve">
<style type="text/css">
	.st0{fill:#8A8E96;}
</style>
<title>培训学习</title>
<g>
	<path class="st0" d="M18,19.2h10.5V8.8c0-1.9-1.6-3.5-3.5-3.5l0,0h-6c-1.9,0-3.5,1.6-3.5,3.5l0,0v8C15.5,18.1,16.6,19.2,18,19.2z"
		/>
	<path class="st0" d="M34,31.8v-7c0-1.7-1.3-3-3-3H13c-1.7,0-3,1.3-3,3v7H4v2h2v5h2v-5h28v5h2v-5h2v-2H34z M21,31.8v-1.6l-2.7-2.7
		C17.9,27,18,26.3,18.4,26c0.4-0.3,0.9-0.3,1.3,0l2.3,2.3l2.3-2.3c0.4-0.4,1.1-0.3,1.4,0.1s0.3,0.9,0,1.3L23,30.1v1.6H21L21,31.8z"
		/>
</g>
</svg>
