<?xml version="1.0" standalone="no"?><!DOCTYPE svg PUBLIC "-//W3C//DTD SVG 1.1//EN" "http://www.w3.org/Graphics/SVG/1.1/DTD/svg11.dtd"><svg t="1536213834223" class="icon" style="" viewBox="0 0 1024 1024" version="1.1" xmlns="http://www.w3.org/2000/svg" p-id="1478" xmlns:xlink="http://www.w3.org/1999/xlink" width="200" height="200"><defs><style type="text/css"></style></defs><path d="M456.3 274.6v-34.8c0-18.6-15-33.6-33.6-33.6s-33.6 15-33.6 33.6v34.8h67.2z" fill="#d81e06" p-id="1479"></path><path d="M847 64h-43.1c-18.6 0-33.6 15-33.6 33.6s15 33.6 33.6 33.6H847c25.3 0 45.8 20.6 45.8 45.8v670c0 25.3-20.6 45.8-45.8 45.8h-33.5c0-0.4 0.1-0.8 0.1-1.2V749.7h-67.2v141.9c0 0.4 0.1 0.8 0.1 1.2H634.8c0-0.4 0.1-0.8 0.1-1.2V749.7h-67.2v141.9c0 0.4 0.1 0.8 0.1 1.2H456.1c0-0.4 0.1-0.8 0.1-1.2V749.7H389v141.9c0 0.4 0.1 0.8 0.1 1.2H277.5c0-0.4 0.1-0.8 0.1-1.2V749.7h-67.2v141.9c0 0.4 0.1 0.8 0.1 1.2H177c-25.3 0-45.8-20.6-45.8-45.8V177c0-25.3 20.6-45.8 45.8-45.8h43.1c18.6 0 33.6-15 33.6-33.6S238.7 64 220.1 64H177c-62.4 0-113 50.6-113 113v670c0 62.4 50.6 113 113 113h670c62.4 0 113-50.6 113-113V177c0-62.4-50.6-113-113-113z" fill="#d81e06" p-id="1480"></path><path d="M367.8 649.3c-8.6 0-17.2-3.3-23.8-9.8l-81-81c-25.6-25.6-25.6-67.2 0-92.8l81-81c13.1-13.1 34.4-13.1 47.5 0 13.1 13.1 13.1 34.4 0 47.5l-81 81 81 78.8c13.1 13.1 13.1 34.4 0 47.5-6.5 6.5-15.1 9.8-23.7 9.8zM656.2 649.3c-8.6 0-17.2-3.3-23.8-9.8-13.1-13.1-13.1-34.4 0-47.5l81-81-81-78.8c-13.1-13.1-13.1-34.4 0-47.5 13.1-13.1 34.4-13.1 47.5 0l81 81c25.6 25.6 25.6 67.2 0 92.8l-81 81c-6.5 6.5-15.1 9.8-23.7 9.8z" fill="#d81e06" p-id="1481"></path><path d="M472.3 693.9c-2.9 0-5.8-0.4-8.7-1.2-17.9-4.8-28.6-23.2-23.8-41.1L519.3 355c4.8-17.9 23.2-28.6 41.1-23.8 17.9 4.8 28.6 23.2 23.8 41.1L504.7 669c-4 15-17.6 24.9-32.4 24.9z" fill="#d81e06" p-id="1482"></path></svg>