<?xml version="1.0" encoding="UTF-8"?>
<svg width="48px" height="46px" viewBox="0 0 48 46" version="1.1" xmlns="http://www.w3.org/2000/svg" xmlns:xlink="http://www.w3.org/1999/xlink">
    <!-- Generator: Sketch 49 (51002) - http://www.bohemiancoding.com/sketch -->
    <title>报账系统集成配置</title>
    <desc>Created with Sketch.</desc>
    <defs>
        <polygon id="path-1" points="1.75609756 1.08708923 59.3560976 1.08708923 59.3560976 58.6870892 1.75609756 58.6870892"></polygon>
        <linearGradient x1="50%" y1="0%" x2="50%" y2="100%" id="linearGradient-3">
            <stop stop-color="#47BAEE" offset="0%"></stop>
            <stop stop-color="#5BCCFF" offset="100%"></stop>
        </linearGradient>
    </defs>
    <g id="Page-1" stroke="none" stroke-width="1" fill="none" fill-rule="evenodd">
        <g id="Artboard-8" transform="translate(-349.000000, -154.000000)">
            <g id="报账系统集成配置" transform="translate(342.000000, 147.000000)">
                <mask id="mask-2" fill="white">
                    <use xlink:href="#path-1"></use>
                </mask>
                <g id="Clip-2"></g>
                <path d="M40.168039,24.5517354 L40.1797463,24.5517354 L40.168039,24.5517354 Z M29.5377951,30.6808431 L21.2490146,25.9010277 C20.5243317,25.4836123 20.0782829,24.71192 20.0782829,23.8770892 L20.0782829,14.3174585 C20.0782829,13.4826277 20.5243317,12.7109354 21.2490146,12.29352 L29.5377951,7.51370462 C30.262478,7.09512 31.1545756,7.09512 31.8792585,7.51370462 L40.168039,12.29352 C40.892722,12.7109354 41.3387707,13.4826277 41.3387707,14.3174585 L41.3387707,23.8770892 C41.3387707,24.71192 40.892722,25.4836123 40.168039,25.9010277 L31.8792585,30.6808431 C31.1545756,31.0994277 30.262478,31.0994277 29.5377951,30.6808431 Z" id="Fill-1" fill="url(#linearGradient-3)" mask="url(#mask-2)"></path>
                <path d="M27.2899902,45.5978892 L27.3016976,45.5978892 L27.2899902,45.5978892 Z M16.6597463,51.7269969 L8.37096585,46.9471815 C7.64628293,46.5297662 7.20023415,45.7580738 7.20023415,44.9232431 L7.20023415,35.3636123 C7.20023415,34.5287815 7.64628293,33.7570892 8.37096585,33.3396738 L16.6597463,28.5598585 C17.3844293,28.1412738 18.2765268,28.1412738 19.0012098,28.5598585 L27.2899902,33.3396738 C28.0146732,33.7570892 28.460722,34.5287815 28.460722,35.3636123 L28.460722,44.9232431 C28.460722,45.7580738 28.0146732,46.5297662 27.2899902,46.9471815 L19.0012098,51.7269969 C18.2765268,52.1455815 17.3844293,52.1455815 16.6597463,51.7269969 Z" id="Fill-3" fill="url(#linearGradient-3)" mask="url(#mask-2)"></path>
                <path d="M53.0460878,45.5978892 L53.0577951,45.5978892 L53.0460878,45.5978892 Z M42.4158439,51.7269969 L34.1270634,46.9471815 C33.4023805,46.5297662 32.9563317,45.7580738 32.9563317,44.9232431 L32.9563317,35.3636123 C32.9563317,34.5287815 33.4023805,33.7570892 34.1270634,33.3396738 L42.4158439,28.5598585 C43.1405268,28.1412738 44.0326244,28.1412738 44.7573073,28.5598585 L53.0460878,33.3396738 C53.7707707,33.7570892 54.2168195,34.5287815 54.2168195,35.3636123 L54.2168195,44.9232431 C54.2168195,45.7580738 53.7707707,46.5297662 53.0460878,46.9471815 L44.7573073,51.7269969 C44.0326244,52.1455815 43.1405268,52.1455815 42.4158439,51.7269969 Z" id="Fill-5" fill="url(#linearGradient-3)" mask="url(#mask-2)"></path>
            </g>
        </g>
    </g>
</svg>