<svg width="593" height="159" xmlns="http://www.w3.org/2000/svg"><path d="M321 129h13v-8h-13v8zm0-17h13v-9h-13v9zm22 17h14v-8h-14v8zm0-17h14v-9h-14v9zm-31.51 12.443c0 16.98-1.78 20.272-7.49 30.07l9.122 4.337c4.227-7.33 6.304-12.79 7.268-20.345h13.35v17.653h9.195v-17.653h13.795v4.938c0 5.085-.371 5.758-4.228 5.983l-4.301.3 3.115 9.274 4.375-.449c9.121-.823 10.309-2.393 10.309-11.37V94h-54.51v30.443zM282 141.03c2.271 3.004 6.011 9.16 8.064 12.97l5.936-4.543c-2.198-3.957-5.717-8.94-8.209-12.457L282 141.03zm115.552-49.659L388.395 91c0 1.708-.075 6.092-.15 10.252h-7.818v9.285h7.445c-1.19 21.168-2.903 29.563-10.872 42.486l8.416 4.977c8.563-14.707 10.574-24.29 11.54-47.463h5.736c0 2.673-.82 26.888-.82 30.082 0 5.2-.223 6.24-4.616 6.612l-4.246.296 2.906 9.212 4.318-.373c8.637-.817 10.573-2.45 10.797-11.44l.969-43.674h-14.671c.074-4.16.223-8.32.223-9.88zM240 151.598l6.314 4.402c2.816-4.25 5.784-9.336 7.686-13.358L247.533 139c-1.826 3.794-4.946 9.41-7.533 12.598zM266 131h7v-2h-7v2zm0-8h7v-2h-7v2zm0-8h7v-2h-7v2zm-19.112 11.146l1.56-2.245v14.071h6.397v-16.615l2.751 3.966 1.487-2.02V136.1H295v-5.389h-14.13v-2.17h10.486v-5.538H280.87v-2.17h10.486v-5.462H280.87v-2.097h11.675v-6.061h-11.229l-.817-3.816-7.214.298.82 3.518h-6.024l1.041-2.395-7.139-1.347c-2.007 5.613-4.09 9.205-7.138 13.021V112.9c1.115-2.318 2.156-4.79 3.345-8.006l-7.362-1.797c-1.412 4.49-3.717 9.504-6.468 13.47v-13.77h49.895v-7.482h-23.2L269.94 90l-9.89.449 1.115 4.866h-25.06v26.416c0 16.165-1.784 21.104-8.105 31.88l7.585 5.389c6.394-11.076 8.55-19.308 8.775-36.52l2.528 3.666zM264 141.52c1.663 1.703 4.921 5.259 6.513 7.481l4.487-5.333c-1.52-1.778-4.487-5.036-6.296-6.667L264 141.519zm12.966 7.026c-.297 1.785-.885 1.709-2.876 1.932a54.746 54.746 0 01-8.55 0c-1.695-.223-2.138-.37-2.138-2.378v-7.653L255 140v10.33c0 5.348 2.359 7.206 7.887 7.503 4.054.223 8.108.223 12.162 0 6.117-.37 8.697-1.338 9.509-6.539.293-1.856.442-3.12.442-4.681l-7.592-2.08a33.61 33.61 0 01-.442 4.012zM425 145h8v-38h-8v38zm-10 9h27V98h-27v56zm155-48h9v-6h-9v6zm-9 8h26V93h-26v21zm8 35h9v-8h-9v8zm-29 0h9v-8h-9v8zm0-43h9v-6h-9v6zm32.455 19.94h17.122v-8.047h-10.945c-.372-1.128-.67-2.331-1.19-3.535l-7.146 1.204c.223.677.52 1.504.743 2.331h-7.667c.297-.902.67-1.804.967-2.783l-6.923-1.203V93H531.88v21.208h22.633c-.3 1.43-.746 2.557-1.267 3.685h-23.971v8.047h15.782c-4.244 2.181-10.348 3.912-19.058 5.49l2.905 8.423 3.2-.902V157h25.31v-22.486H545.58c6.625-2.633 10.647-5.19 13.4-8.574h.819c3.648 3.535 7.816 6.393 12.657 8.574h-11.241V157h25.607v-17.973c.968.226 1.936.3 2.903.525l3.276-8.196c-9.306-1.43-15.78-2.934-20.545-5.416zm-78.862 23.456c-11.372-.226-16.458.075-23.714-5.434V114h-15.26v9.282h6.582v18.417c-2.394 2.942-5.685 6.187-9.201 9.735l6.058 6.566c3.443-3.472 5.313-5.357 7.258-7.925 9.126 7.774 15.335 7.398 29.698 7.774 6.133.226 16.531 0 22.666-.376l2.32-8.68c-7.781.603-17.806.83-26.407.603zM498 121h8v-5h-8v5zm-16 0h7v-5h-7v5zm33.793-16.195v-8.284h-17.147v-5.15L489.733 91v5.521h-16.77v8.284h16.77v2.985H474.02v20.077h12.54c-4.23 4.177-9.896 7.836-15.561 10.448l5.212 7.685c4.91-2.91 9.592-6.493 13.52-10.672V146h8.914v-10.97c3.625 2.09 8.762 5.97 13.672 10.449l4.682-7.912c-4.53-3.58-9.743-7.088-13.67-9.253l-4.684 5.895v-6.342h16.09V107.79h-16.09v-2.985h17.147zM456 97.318c2.427 2.706 6.825 9.73 8.645 13.682l7.355-4.902c-2.2-4.097-6.066-9.952-8.72-13.098L456 97.318zM188.92 44.173h18.47v-9.419h-18.47V21.375L179.46 21v35.73h-10.588V32.513l-9.236-.374V56.73H151V66h63v-9.27h-25.08V44.174zM252.174 27c-.367-1.667-.807-3.623-1.173-5h14c-.368 1.667-.733 3.333-1.246 5h-11.581zm.817 41h9.093V57.804c7.08 4.2 15.204 7.122 25.563 10.046L291 59.378c-9.018-1.95-16.77-4.423-23.103-7.422h20.047v-7.272h-25.86v-2.325h19.675v-6.746h-19.676v-2.475h23.624V26.09h-13.264c.521-1.798.894-3.448 1.416-5.173h14.607V13.42h-10.88c2.31-2.624 4.843-5.921 6.334-8.247L277.138.301c-1.789 2.85-5.217 7.346-7.378 9.67l4.246 3.45h-5.364V.45l-8.794-.374V13.42h-4.92V.45l-8.644-.374V13.42h-5.888l4.397-4.048c-2.236-2.85-5.291-6.748-7.75-9.372l-6.037 5.1c1.714 1.872 4.471 5.396 6.483 8.32H226.31v7.497h15.8c.522 1.575.894 3.674 1.193 5.173h-14.16v7.048h23.847v2.475h-20.047v6.746h20.047v2.325h-26.158v7.272h19.899c-5.664 2.999-12.819 5.398-22.731 7.722L227.354 68c10.359-3.074 18.482-5.996 25.636-10.121V68zM185.73 0h-6.94c-6.342 9.303-18.357 19.125-31.79 26.287l5.373 8.418c11.717-6.868 24.7-16.984 29.925-23.335 5.373 6.72 18.285 17.723 29.629 23.63L217 26.139C203.343 18.755 192.598 9.819 185.73 0zM120 25h10V13h-10v12zm-8 8h26V5h-26v28zm340.032 22.905c2.906-3.51 5.66-7.615 8.118-12.094V68h8.786V42.167a81.148 81.148 0 016.107 7.69L481 43.063c-2.755-3.135-7.298-7.466-9.68-9.706l-2.384 2.464v-6.645h10.351v-9.108h-10.35v-7.316c3.5-.673 6.552-1.42 9.159-2.091L476.384 2c-7.448 1.941-18.84 4.106-26.212 5.077l.893 8.81c2.607-.373 5.807-.896 9.085-1.493v5.674H449.5v9.108h9.532c-3.575 7.244-8.49 14.86-13.032 20.234l6.032 6.495zM394 33h3l-3 9v-9zm33-19c-1.935 2.43-4.179 4.717-6.887 7-2.397-1.99-4.333-4.348-6.113-7h13zm-40.937 41.98c0 2.604-.824 3.72-3.822 4.018l-5.022.446 2.475 7.812 4.797-.446c7.268-.596 9.368-2.232 9.368-8.705V42.216l5.846 1.786 2.922-9.226 2.1 4.018c2.097-.893 4.045-1.786 5.92-2.752l-.15 3.719h-8.92v7.962h7.645c-2.024 5.876-6.07 9.224-15.29 13.837l5.472 7.44c11.092-6.622 16.189-12.5 18.214-21.277h8.767c0 1.561-.45 6.397-.674 7.81-.375 3.125-1.274 3.72-4.947 4.094l-4.722.445 2.698 7.663 4.572-.446c7.571-.819 10.195-2.009 10.568-9.003l1.124-18.525H418.74c.225-1.784.3-3.646.377-5.357l-4.948-.223c1.948-1.116 3.673-2.158 5.246-3.2 4.797 3.498 10.493 6.027 17.988 8.482l3.597-8.11c-5.92-1.71-10.718-3.347-14.688-5.654 3.82-3.495 6.818-7.142 9.741-11.53v-7.74h-19.036c.825-1.56 1.349-3.124 1.948-4.612L410.423 1c-1.8 5.802-6.447 13.316-11.469 18.896l5.548 5.729a101.912 101.912 0 004.345-5.282c1.5 2.084 2.998 3.943 4.497 5.505-2.921 1.786-6.146 3.348-9.968 4.762v-5.802h-8.919l-1.349-1.638c2.623-3.423 6.372-7.738 8.544-9.895V4.198h-26.007v7.96h16.939c-1.274 1.414-3.148 3.35-4.722 5.134a165.2 165.2 0 00-4.647-4.834l-5.47 4.016c1.573 1.86 4.347 5.06 7.269 8.334h-11.016v7.736h8.468c-2.997 6.622-7.72 14.136-11.466 18.08l4.87 6.844c3.523-4.166 7.195-9.598 10.193-15.252V55.98zm-35.868-9.775c-1.922-2.951-3.547-6.587-4.952-10.75l-6.577 3.33c1.995 5.452 4.064 9.843 6.799 13.855-2.068 2.196-4.509 4.316-7.465 6.36V35h17c-1.11 3.71-2.514 7.495-4.805 11.205zm12.504-10.38v-7.957h-24.766V12.707h14.756c0 3.828-.52 5.179-3.56 5.479l-4.226.375 2.818 7.806 4.745-.45c5.932-.6 8.38-2.927 8.75-10.583.223-3.678.445-9.756.445-11.334H330v64.625h7.933v-3.603l2.966 3.453c3.856-2.928 7.044-5.93 9.64-8.932 3.04 3.229 6.6 6.154 11.346 9.457L367 61.57c-4.746-2.928-8.38-5.48-11.566-8.406 3.632-5.706 5.782-11.41 7.265-17.34zM313 38h7v-9h-7v9zm0-17h7v-9h-7v9zm-1.129 25.242h7.16v9.222c0 3.868-.592 4.314-2.732 4.538l-3.1.445 2.437 7.958 4.131-.446c5.608-.595 7.233-2.454 7.233-9.966V4h-22.877v28.409c0 19.634-1.77 24.99-6.123 32.575L305.82 69c3.765-7.66 5.24-15.246 6.051-22.758zM93 48h29v-4H93v4zm0 12h29v-4H93v4zm2.308-30c3.206 1.929 6.934 4.071 9.692 6H88c3.206-1.857 5.667-3.857 7.308-6zM84 17c1-1.312 2-2.62 2.923-4H91c0 1.31 0 2.62-.077 3.516V17H84zm25.82 12.993c-2.9-1.716-6.986-3.805-10.776-5.82h9.959v-7.086H98.45v-.897c0-.819.074-2.014.074-3.43h9.364V5.597h-17.91l1.635-4.18L83.66 0c-1.486 4.104-4.31 9.477-8.1 13.952l4.161 3.135h-3.567v7.087h11.668C85.222 27.979 80.76 30.44 74 33.052l4.606 7.91 4.533-2.09V67H131V36.484h-25.342l4.162-6.49zM51.5 38c-1.715-5.218-2.857-11.042-3.5-17.622 0-.075.071-.151.143-.378H55c-.785 6.958-1.785 12.857-3.5 18zM34.758 61l.453-1.046-4.61-1.718c2.345-1.867 4.384-4.183 6.425-6.872v-6.05h-17.38l.68-1.495L17 43.074h20.705V30l3.476 4.184 1.21-2.092C43.447 37.694 44.96 42.773 47 47.405 43.976 52.26 40.123 56.518 34.757 61zm-11.265-5c-3.059-1.176-5.427-1.882-7.492-2.51l.917-1.49H28c-1.145 1.49-2.675 2.824-4.508 4zM11 37h6v-2h-6v2zm0-15h6v-2h-6v2zm0-8h6v-2h-6v2zm13 23h6v-2h-6v2zm0-9h12.69l-.228.345L38 30H24v-2zm0-6h6v-2h-6v2zm0-8h6v-2h-6v2zm31.78 33.126c3.523-7.216 5.472-15.698 6.747-26.932h3.149v-8.407H50.68c.826-3.05 1.574-6.176 2.25-9.375L45.434 1c-1.799 10.191-4.198 17.855-8.322 25.296V19.6h3.074v-5.507h-3.074V5.835h-12.97V1.668l-7.423-.372v4.539H3.822v8.258H.9V19.6h2.922v7.736h12.896v2.158H3.224v13.244h9.071l-1.124 2.23H2.323v6.4h5.174c-1.124 1.562-2.174 3.198-3.374 4.686 2.773.969 5.623 2.01 8.547 3.125-3.673.893-7.872 1.786-12.67 2.679L2.4 69c8.321-1.711 14.844-3.422 20.467-6.026 3.523 1.413 6.67 2.678 9.446 3.868l1.5-3.496 4.198 5.43c5.472-4.538 9.821-9.002 13.195-13.838 3.074 4.985 6.823 9.45 11.62 13.839L68 61.114c-5.173-4.39-9.297-9.077-12.22-13.988zM491 55h10V17h-10v38zm-9 10h28V7h-28v58z" fill="#FFF" fill-rule="evenodd"/></svg>