<?xml version="1.0" encoding="UTF-8"?>
<svg width="65px" height="65px" viewBox="0 0 65 65" version="1.1" xmlns="http://www.w3.org/2000/svg" xmlns:xlink="http://www.w3.org/1999/xlink">
    <!-- Generator: Sketch 52.2 (67145) - http://www.bohemiancoding.com/sketch -->
    <title>500</title>
    <desc>Created with Sketch.</desc>
    <defs>
        <circle id="path-1" cx="30.5506188" cy="30.0891347" r="30"></circle>
        <path d="M34.7118104,25.5534986 L34.7118104,44.8658228 C19.6730427,51.0361279 11.1804538,53.145294 9.2340436,51.1933213 C7.28763342,49.2413485 5.392703,43.4668771 3.54925235,33.8699071 L5.2195726,13.6040348 L0.629637081,2.89785993 L16.8980337,0.419135829 L27.481639,0.419135829 L36.2404848,3.89022661 L38.0652443,10.7355373 L34.7118104,25.5534986 Z" id="path-3"></path>
    </defs>
    <g id="Page-1" stroke="none" stroke-width="1" fill="none" fill-rule="evenodd">
        <g id="ALL" transform="translate(-317.156250, -157.218750)">
            <g id="500" transform="translate(318.000000, 158.000000)">
                <g transform="translate(1.917491, 2.034614)">
                    <g id="分组-23" transform="translate(0.295972, 0.038016)">
                        <mask id="mask-2" fill="white">
                            <use xlink:href="#path-1"></use>
                        </mask>
                        <use id="Mask" fill="#F5F5F5" fill-rule="nonzero" xlink:href="#path-1"></use>
                        <g mask="url(#mask-2)">
                            <g transform="translate(33.286964, 13.494743)">
                                <g id="分组-25" stroke-width="1" fill="none" transform="translate(0.000000, 32.845672)">
                                    <path d="M4.25545102,0.805500641 L0.928284003,4.1598539 C0.3146605,4.77854752 0.317898619,5.77443425 0.934760241,6.3882817 L3.7940191,9.23136465 C4.27811785,9.71275028 5.06255212,9.71275028 5.54665087,9.23055695 L10.0735409,4.71797047" id="Fill-15" fill="#FFFFFF"></path>
                                    <path d="M4.66968736,9.99536242 C4.24873192,9.99536242 3.82858601,9.8362467 3.50801226,9.51720756 L0.649562932,6.67493231 C-0.124347449,5.9060076 -0.128395098,4.6508511 0.639848576,3.87627253 L3.96782512,0.52191927 C4.12406435,0.363611243 4.38068526,0.360380467 4.54016261,0.518688494 C4.69883043,0.675381134 4.70044949,0.930612444 4.54340073,1.08972817 L1.21542418,4.44408143 C0.760468499,4.90285163 0.762897088,5.64673782 1.22028136,6.10227725 L4.07954022,8.9445525 C4.40739974,9.27086089 4.9352131,9.2692455 5.2598345,8.9445525 L9.78672451,4.43196602 C9.94539233,4.27446568 10.2012037,4.27446568 10.359062,4.43196602 C10.5177298,4.59027405 10.5177298,4.84550536 10.359062,5.00300569 L5.83298152,9.51559217 C5.51240776,9.83543901 5.09145233,9.99536242 4.66968736,9.99536242" id="Fill-16" fill="#C9C9C9"></path>
                                </g>
                                <path d="M32.2381718,45.5578653 L4.17420609,45.5578653 L4.17420609,2.21135034 C4.17420609,1.31965614 4.89954469,0.595962303 5.79326546,0.595962303 L30.6191124,0.595962303 C31.5128332,0.595962303 32.2381718,1.31965614 32.2381718,2.21135034 L32.2381718,45.5578653 Z" id="Fill-39" fill="#FFFFFF"></path>
                                <path d="M4.57897093,45.1540183 L31.8334069,45.1540183 L31.8334069,2.21135034 C31.8334069,1.54338739 31.2885934,0.999809312 30.6191124,0.999809312 L5.79326546,0.999809312 C5.12378441,0.999809312 4.57897093,1.54338739 4.57897093,2.21135034 L4.57897093,45.1540183 Z M32.6429366,45.9617123 L3.76944124,45.9617123 L3.76944124,2.21135034 C3.76944124,1.09754029 4.67692402,0.192115293 5.79326546,0.192115293 L30.6191124,0.192115293 C31.7354538,0.192115293 32.6429366,1.09754029 32.6429366,2.21135034 L32.6429366,45.9617123 Z" id="Fill-40" fill="#C9C9C9"></path>
                                <path d="M31.8287116,45.1532106 L25.8584302,45.1532106 L25.8584302,0.999809312 L30.7342275,0.999809312 C31.3389462,0.999809312 31.8287116,1.48846419 31.8287116,2.09181163 L31.8287116,45.1532106 Z" id="Fill-41" fill="#EEEEEE"></path>
                                <polygon id="Fill-42" fill="#C9C9C9" points="9.05235103 27.8314854 27.5796032 27.8314854 27.5796032 6.19982418 9.05235103 6.19982418"></polygon>
                                <path d="M16.4855336,32.6188992 L9.73891316,32.6188992 C9.51548297,32.6188992 9.33414832,32.4379758 9.33414832,32.2150522 C9.33414832,31.9921287 9.51548297,31.8112052 9.73891316,31.8112052 L16.4855336,31.8112052 C16.7089638,31.8112052 16.8902984,31.9921287 16.8902984,32.2150522 C16.8902984,32.4379758 16.7089638,32.6188992 16.4855336,32.6188992" id="Fill-44" fill="#C9C9C9"></path>
                                <path d="M18.3749759,42.4280509 L17.2950633,42.4280509 C17.0716331,42.4280509 16.8902984,42.2471275 16.8902984,42.0242039 C16.8902984,41.8012804 17.0716331,41.6203569 17.2950633,41.6203569 L18.3749759,41.6203569 C18.5984061,41.6203569 18.7797407,41.8012804 18.7797407,42.0242039 C18.7797407,42.2471275 18.5984061,42.4280509 18.3749759,42.4280509" id="Fill-45" fill="#BBBBBB"></path>
                                <polygon id="Fill-46" fill="#FFFFFF" points="10.5661715 10.8771802 12.1852309 10.8771802 12.1852309 9.2617922 10.5661715 9.2617922"></polygon>
                                <polygon id="Fill-47" fill="#FFFFFF" points="13.2724293 10.9086803 23.7461244 10.9086803 23.7461244 9.29329227 13.2724293 9.29329227"></polygon>
                                <polygon id="Fill-48" fill="#FFFFFF" points="10.5661715 14.9156503 12.1852309 14.9156503 12.1852309 13.3002623 10.5661715 13.3002623"></polygon>
                                <polygon id="Fill-49" fill="#FFFFFF" points="13.2724293 14.9471504 23.7461244 14.9471504 23.7461244 13.3317624 13.2724293 13.3317624"></polygon>
                                <polygon id="Fill-50" fill="#FFFFFF" points="10.5661715 18.9541204 12.1852309 18.9541204 12.1852309 17.3387324 10.5661715 17.3387324"></polygon>
                                <polygon id="Fill-51" fill="#FFFFFF" points="13.2724293 18.9856205 23.7461244 18.9856205 23.7461244 17.3702325 13.2724293 17.3702325"></polygon>
                                <path d="M11.4884687,24.9632024 C11.2528956,24.9640101 11.0569894,24.7806635 11.0424179,24.5456246 L10.8772738,21.7639264 C10.8578451,21.4222718 11.1290375,21.1339251 11.4714686,21.1323097 C11.8138997,21.1306943 12.0875207,21.416618 12.0713301,21.7582725 L11.9304719,24.5423938 C11.918329,24.7774328 11.7248514,24.961587 11.4884687,24.9632024" id="Fill-52" fill="#FFFFFF"></path>
                                <path d="M11.9659293,25.8008619 C11.9667389,26.0609393 11.7554516,26.2741706 11.4947831,26.2749783 C11.233305,26.2757859 11.0203987,26.0657855 11.0187796,25.8049003 C11.0179701,25.5440152 11.2292573,25.3315916 11.4899259,25.3299763 C11.751404,25.3291686 11.9643103,25.5399767 11.9659293,25.8008619" id="Fill-53" fill="#FFFFFF"></path>
                            </g>
                        </g>
                    </g>
                    <g id="分组-22" transform="translate(2.640567, 8.061569)">
                        <mask id="mask-4" fill="white">
                            <use xlink:href="#path-3"></use>
                        </mask>
                        <g id="Mask" fill-rule="nonzero"></g>
                        <g mask="url(#mask-4)">
                            <g transform="translate(1.631829, 2.919615)">
                                <path d="M2.98404392,44.3305992 L2.23846708,44.3305992 C2.01503688,44.3305992 1.83370223,44.1496757 1.83370223,43.9267522 C1.83370223,43.7038286 2.01503688,43.5229052 2.23846708,43.5229052 L2.98404392,43.5229052 C3.20747411,43.5229052 3.38880876,43.7038286 3.38880876,43.9267522 C3.38880876,44.1496757 3.20747411,44.3305992 2.98404392,44.3305992" id="Fill-7" fill="#FFFFFF"></path>
                                <path d="M11.1236221,36.3932285 C11.1236221,36.3932285 10.4865222,33.6486842 11.9210088,30.6077163 C12.6050614,29.1579055 13.3069236,28.4099808 13.8922136,27.9689799 C14.203073,27.7347486 14.6410286,27.9932107 14.5916472,28.3784808 L13.8468799,34.2213393 C13.8468799,34.2213393 13.7578317,37.2324226 13.0349217,38.6143871 C12.2156776,40.1829289 9.40580007,38.6854641 8.79460516,38.3583481 C8.18988648,38.0328474 6.254301,36.6864214 5.25291277,35.2285337 C3.70833013,32.9774905 3.4347091,32.1302195 4.44581168,30.9622939 C5.40672341,29.8517147 7.20306979,27.8801336 9.27789438,31.7449494 C9.6438018,32.4258355 9.62275403,33.4766454 9.81542209,33.9200694 C10.2469014,34.9151485 11.9201993,37.7768084 11.9201993,37.7768084" id="Fill-13" fill="#FFFFFF"></path>
                                <path d="M6.72577109,29.8662531 C5.99395625,29.8662531 5.32609426,30.5641008 4.75213771,31.2272176 C3.98146545,32.115681 3.9992751,32.685913 5.58676282,34.9999563 C6.5517222,36.4045362 8.44278355,37.7105775 8.9867875,38.002155 C10.8738012,39.0133879 11.7869507,38.9689647 12.1609534,38.8550799 C12.3989551,38.7815797 12.5624801,38.6458871 12.6766238,38.4278097 C13.3477239,37.144384 13.4416294,34.2383009 13.4424389,34.2092239 L14.1904443,28.327596 C13.4311055,28.8227125 12.8263868,29.636868 12.28724,30.7797551 C11.0429929,33.4168761 11.4275195,35.8326889 11.5052344,36.2421897 C11.9180945,36.9715374 12.2629541,37.5603464 12.2702399,37.5732695 C12.3827645,37.7655007 12.3171926,38.0134627 12.1245246,38.1257322 C11.932666,38.2380017 11.6833309,38.1725784 11.5708063,37.9803473 C11.5400441,37.9270395 11.2000417,37.3463075 10.7944673,36.6290752 C10.7782767,36.605652 10.7628956,36.5798058 10.7515622,36.5523442 C10.2569396,35.6759962 9.67812586,34.6219555 9.44336225,34.0808005 C9.34459963,33.8522231 9.29926596,33.5509533 9.24502747,33.2012218 C9.17945557,32.7682978 9.10416931,32.2772198 8.9212156,31.9363729 C8.22663913,30.6424471 7.5304436,29.9486379 6.85043866,29.8735224 C6.80915264,29.8686762 6.7670571,29.8662531 6.72577109,29.8662531 M11.7132835,39.7217356 C10.8972776,39.7217356 9.85541286,39.3849272 8.60307043,38.7137334 C7.99025646,38.385002 5.98019424,37.0014221 4.91971035,35.4563035 C3.44636632,33.3110681 2.8894099,32.1415272 4.14013327,30.698178 C4.67523239,30.0810998 5.67338249,28.9325589 6.94029645,29.0706745 C7.91416067,29.1780978 8.7957385,29.990638 9.63441125,31.5543336 C9.8837464,32.0187577 9.97036607,32.5825281 10.0464619,33.0800676 C10.0869383,33.3490298 10.1290339,33.6268765 10.1865105,33.760146 C10.2731302,33.9588387 10.4123693,34.2374932 10.5791324,34.5549169 C10.6074659,33.4524146 10.8236104,31.9848346 11.5554252,30.4356774 C12.1512391,29.1716363 12.8361012,28.258942 13.6480594,27.64671 C13.9192519,27.4447865 14.2827307,27.4213634 14.57659,27.5909791 C14.8728779,27.7614025 15.0364029,28.0909417 14.9934978,28.4293655 L14.2487305,34.272224 C14.2479209,34.359455 14.1507774,37.3543844 13.3938671,38.8017721 C13.1793418,39.2120806 12.845006,39.4899274 12.3997647,39.6264277 C12.1925251,39.6902355 11.9634282,39.7217356 11.7132835,39.7217356" id="Fill-14" fill="#C9C9C9"></path>
                                <path d="M31.0630668,34.8488368 L24.5350194,30.070519 L23.9707773,27.5585906 C23.8841576,27.1684744 24.1529214,26.5796654 24.5002097,26.7791658 C26.336223,27.8388604 30.6064921,30.5672508 32.0482645,31.9896 C32.4360292,32.3724469 32.9015088,32.6575629 33.4212268,32.8207171 C34.3586622,33.1147177 35.8457682,33.8602193 36.3379623,35.6977232 C36.4893443,36.2647244 36.794537,37.8348816 35.6352905,38.5004214 C35.3705743,38.6522679 34.6873313,38.7459604 34.3869957,38.7532297 C33.9158495,38.7645374 33.5046084,37.9851127 33.1516534,37.6717274 L32.2482183,36.6693791 L30.8226365,38.1070745 C30.0220117,37.46415 31.0630668,34.8488368 31.0630668,34.8488368" id="Fill-17" fill="#FFFFFF"></path>
                                <path d="M32.2623041,36.0808932 L33.4531223,37.4022807 C33.5454087,37.4798193 33.677362,37.6405504 33.8149821,37.8101661 C33.9574593,37.9862434 34.2237946,38.3739366 34.3776052,38.3497057 C34.6933218,38.3424365 35.2737546,38.2422824 35.4340414,38.151013 C36.3269527,37.6381273 36.09057,36.3369322 35.9464737,35.8014311 C35.5198516,34.2078508 34.2715568,33.5100032 33.3001212,33.2063102 C32.722117,33.0253868 32.205637,32.7120015 31.7636338,32.2766544 C30.4230527,30.9544593 26.3875472,28.3456076 24.4025804,27.1897975 C24.3701992,27.264913 24.3459133,27.3796056 24.3661516,27.470875 L24.8963935,29.8349954 L31.5547752,34.7078134 L31.4390124,34.9977756 C31.1046767,35.8393927 30.8763893,36.862741 30.9322468,37.4216653 L32.2623041,36.0808932 Z M34.3767957,39.1573998 C33.8643634,39.1573998 33.4879321,38.692168 33.185168,38.3182057 C33.07831,38.1857439 32.9787379,38.0589359 32.8832134,37.9733203 L32.2347801,37.2568957 L30.8537225,38.6509756 L30.568768,38.4215905 C29.7179523,37.7390891 30.2838136,35.8135465 30.5760538,34.9929294 L24.172674,30.3066887 L23.5760506,27.6469523 C23.4797165,27.2156437 23.6505273,26.6987195 23.9654344,26.4685267 C24.1856264,26.3061802 24.4624856,26.2924494 24.7021064,26.4289497 C26.5624056,27.5031828 30.8504843,30.2412655 32.3327332,31.702384 C32.68245,32.0464616 33.0888339,32.293616 33.5429801,32.4357701 C34.4966061,32.7338092 36.1796183,33.5415032 36.7292889,35.5930461 C36.9203379,36.308663 37.2166258,38.0581282 35.8371872,38.8512837 C35.4583273,39.066938 34.6487976,39.1509382 34.3970339,39.1573998 L34.3767957,39.1573998 Z" id="Fill-18" fill="#C9C9C9"></path>
                                <path d="M26.3552469,30.0910344 C26.6790588,33.7539268 24.5872341,44.0140639 20.916017,44.3379492 C17.2447998,44.6610268 13.3841528,34.9242754 13.0603409,31.261383 C12.736529,27.5984906 15.6225024,26.3215264 19.2937195,25.9984488 C22.9657461,25.6745635 26.0322446,26.428142 26.3552469,30.0910344" id="Fill-23" fill="#FFFFFF"></path>
                                <path d="M20.724968,26.3357418 C20.2862029,26.3357418 19.8215328,26.3567419 19.3293388,26.4003573 C17.3387053,26.5756269 15.8953139,27.0020894 14.9149734,27.7047832 C13.7994415,28.5060156 13.3242476,29.6569796 13.4634867,31.2263291 C13.6100115,32.8845249 14.5603994,36.125801 16.0928391,39.1102304 C17.7313272,42.2998141 19.4556254,44.0549332 20.8803977,43.9353945 C22.2849317,43.8118173 23.6943229,41.774813 24.747521,38.348575 C25.7327186,35.1428374 26.0994356,31.7860611 25.9521012,30.1262499 C25.8136716,28.5577081 25.1441905,27.5060905 23.9056101,26.9140507 C23.1009376,26.5287807 22.0339775,26.3357418 20.724968,26.3357418 M20.7314442,44.7495501 C18.5473331,44.7503578 16.6206525,41.9080825 15.3731672,39.4785389 C13.9783476,36.7630716 12.8361012,33.3222951 12.6571951,31.2974062 C12.3592882,27.9260913 14.5798281,26.007818 19.2581002,25.5958941 C21.3993062,25.4068937 23.0321276,25.5999326 24.2553269,26.1855107 C25.7529569,26.9019353 26.5948677,28.2039381 26.7583927,30.0551728 C27.0587282,33.4539492 25.0769996,44.3763954 20.9516363,44.7398577 C20.8779691,44.7463193 20.8051114,44.7495501 20.7314442,44.7495501" id="Fill-24" fill="#C9C9C9"></path>
                                <path d="M21.7843185,5.09040065 C29.5695655,5.35047812 31.3804834,8.7290622 31.6816285,12.1407617 L31.8662012,14.22542 C32.2232038,18.2606593 30.5353344,22.5018606 18.9566313,23.5211705 C7.9559324,24.4904033 5.44396178,20.6732414 5.08695919,16.6388097 L4.89348159,14.4499589 C4.58262219,10.9324515 5.91753665,7.26794372 13.5967353,5.75270974" id="Fill-25" fill="#FFFFFF"></path>
                                <path d="M15.7491937,24.0758947 C8.75161913,24.0758947 5.12330707,21.6382742 4.68373245,16.6741867 L4.49025486,14.4853359 C4.06120412,9.62624872 7.01355889,6.64020393 13.5181299,5.35677813 L13.6743692,6.14912597 C5.6503109,7.73301394 5.04963987,11.6244837 5.29654642,14.4142589 L5.49002402,16.6031097 C5.78145471,19.8823474 7.48065752,24.1275871 18.9209311,23.1187773 C30.6404923,22.0865444 31.7795006,17.8421123 31.4629745,14.260797 L31.2784017,12.1769464 C31.0363524,9.43644063 29.7872481,5.76224053 21.7704756,5.49408612 L21.7979996,4.6863921 C28.3883808,4.90770026 31.6564521,7.26455141 32.0846933,12.1058694 L32.2692661,14.1897199 C32.7816984,19.9873476 28.5624296,23.0808157 18.9921697,23.9240482 C17.8410185,24.0258177 16.7594868,24.0758947 15.7491937,24.0758947" id="Fill-26" fill="#545A6D"></path>
                                <path d="M21.7843185,5.09040065 C29.5695655,5.35047812 31.3804834,8.7290622 31.6816285,12.1407617 L31.8662012,14.22542 C32.2232038,18.2606593 30.5353344,22.5018606 18.9566313,23.5211705 C7.9559324,24.4904033 5.44396178,20.6732414 5.08695919,16.6388097 L4.89348159,14.4499589 C4.58262219,10.9324515 5.91753665,7.26794372 13.5967353,5.75270974" id="Fill-27" fill="#FFFFFF"></path>
                                <path d="M15.7491937,24.0758947 C8.75161913,24.0758947 5.12330707,21.6382742 4.68373245,16.6741867 L4.49025486,14.4853359 C4.06120412,9.62624872 7.01355889,6.64020393 13.5181299,5.35677813 L13.6743692,6.14912597 C5.6503109,7.73301394 5.04963987,11.6244837 5.29654642,14.4142589 L5.49002402,16.6031097 C5.78145471,19.8823474 7.48065752,24.1275871 18.9209311,23.1187773 C30.6404923,22.0865444 31.7795006,17.8421123 31.4629745,14.260797 L31.2784017,12.1769464 C31.0363524,9.43644063 29.7872481,5.76224053 21.7704756,5.49408612 L21.7979996,4.6863921 C28.3883808,4.90770026 31.6564521,7.26455141 32.0846933,12.1058694 L32.2692661,14.1897199 C32.7816984,19.9873476 28.5624296,23.0808157 18.9921697,23.9240482 C17.8410185,24.0258177 16.7594868,24.0758947 15.7491937,24.0758947" id="Fill-28" fill="#C9C9C9"></path>
                                <path d="M13.7902129,7.75958707 L13.5975448,5.5812363 C13.4858297,4.32123363 14.4135507,3.80511715 15.6723694,3.59834749 C16.1451347,3.52080886 16.7134246,3.4481164 17.3958581,3.38834704 C18.1543874,3.32130844 18.785011,3.29465453 19.3071577,3.29223145 C20.5692145,3.28738529 21.3965538,3.62500139 21.6628891,4.88177328 L21.8539381,7.04962403" id="Fill-29" fill="#FFFFFF"></path>
                                <path d="M12.9838403,7.83050261 L12.7911723,5.65215184 C12.6956478,4.57388032 13.0955554,3.20322357 15.5403351,2.80099195 C16.0730056,2.713761 16.6736767,2.64106853 17.3245385,2.58372226 C18.0393532,2.52072213 18.7047866,2.48679898 19.3038386,2.48437589 C19.9644148,2.48195281 21.9809533,2.47387587 22.4545281,4.71603447 L22.4690997,4.81134236 L22.6601487,6.97838542 L21.0475656,7.12053956 L20.8605642,5.00357354 C20.719706,4.38084145 20.4501326,4.09976393 19.3362198,4.09976393 L19.3103148,4.09976393 C18.7582156,4.10218701 18.1373063,4.13368708 17.4670157,4.19264874 C16.8550113,4.24676424 16.2956263,4.31380285 15.8034322,4.39537994 C14.3260406,4.63849584 14.3729933,5.16268926 14.4037554,5.50999769 L14.5964235,7.68834846 L12.9838403,7.83050261 Z" id="Fill-30" fill="#C9C9C9"></path>
                                <path d="M21.2807101,8.78729694 C20.2582741,8.75175841 19.1046943,8.78487386 17.8013515,8.90037411 C9.18957469,9.6579911 7.78342162,12.9969982 8.06594748,16.1865819 L8.2189486,17.9207009 C8.50147446,21.1159385 10.4710602,24.1407526 19.0820275,23.3815202 C28.1455219,22.5843262 29.4634362,19.2267421 29.1817199,16.0306969 L29.035195,14.3797703 C28.7963837,11.6772261 27.3764686,8.99972047 21.2807101,8.78729694" id="Fill-31" fill="#C9C9C9"></path>
                                <path d="M23.2673769,33.135637 L24.60472,33.412676 L24.2218124,29.0939361 L22.9095648,29.3418982 L19.8187804,29.6181295 C19.7515895,29.6237834 19.7013986,29.6843605 19.7078749,29.7513991 L20.0227819,33.2923296 C20.0276391,33.3504836 20.0924015,33.4070222 20.1547353,33.4037914 L23.2673769,33.135637 Z M24.6071485,34.2203701 C24.5521005,34.2203701 24.4970525,34.2147162 24.441195,34.2034085 L23.2188051,33.951408 L20.2251643,34.2082547 C19.9750197,34.2300624 19.7370179,34.1549468 19.5459689,33.9942157 C19.3549199,33.8351 19.2375381,33.6105611 19.2164904,33.362599 L18.9007738,29.8224761 C18.8554401,29.3128212 19.2351095,28.8588972 19.7467323,28.8128586 L22.7978497,28.5422811 L24.0680018,28.2999729 C24.2938606,28.2571651 24.5261956,28.3112806 24.7083398,28.4485886 C24.8912935,28.5858966 25.0070562,28.7950893 25.028104,29.0220514 L25.411821,33.3391759 C25.4352974,33.5952149 25.3381538,33.8415616 25.1446763,34.0136004 C24.9941037,34.1484853 24.8038643,34.2203701 24.6071485,34.2203701 Z" id="Fill-32" fill="#C9C9C9"></path>
                                <polygon id="Fill-33" fill="#C9C9C9" points="23.2088479 33.5308417 20.02092 33.8135346 19.6282981 29.4011022 22.816226 29.1184093"></polygon>
                                <path d="M13.7902129,7.75958707 L13.5975448,5.5812363 C13.4858297,4.32123363 14.4135507,3.80511715 15.6723694,3.59834749 C16.1451347,3.52080886 16.7134246,3.4481164 17.3958581,3.38834704 C18.1543874,3.32130844 18.785011,3.29465453 19.3071577,3.29223145 C20.5692145,3.28738529 21.3965538,3.62500139 21.6628891,4.88177328 L21.8539381,7.04962403" id="Fill-34" fill="#FFFFFF"></path>
                                <path d="M14.3743695,7.69569848 L14.210035,5.83557915 C14.11532,4.76053841 14.9062305,4.31953748 15.9812859,4.14426787 C16.3844317,4.07803696 16.8701495,4.01503683 17.4530109,3.96415211 C18.0998251,3.90680583 18.6389719,3.88338271 19.0842132,3.88176732 C20.1608877,3.87772885 20.8676071,4.16607561 21.0950849,5.23950096 L21.2586099,7.08912027" id="Fill-35" fill="#C9C9C9"></path>
                                <polygon id="Fill-36" fill="#FFFFFF" points="19.036289 5.99663334 16.5486043 6.2171338 16.4814133 5.46355528 18.9690981 5.24224712"></polygon>
                                <polygon id="Fill-37" fill="#FFFFFF" points="17.4955112 7.0488971 17.2664143 4.47800704 18.0217055 4.41096844 18.2516119 6.9818585"></polygon>
                                <path d="M4.13033796,5.52340541 C3.83324056,5.74794435 3.41066606,5.70271348 3.16942622,5.41840519 L0.310167362,2.05759037 C-0.0395494634,1.64485873 0.0284510303,1.02374203 0.459930354,0.695818258 C0.892219207,0.369509875 1.51069989,0.471279321 1.81427352,0.919549502 L4.28738672,4.57194186 C4.4970549,4.88048097 4.42743535,5.29805878 4.13033796,5.52340541" id="Fill-54" fill="#C9C9C9"></path>
                                <path d="M5.53122908,6.12998362 C5.78137375,6.45790739 5.71661138,6.92636992 5.3871328,7.17675507 C5.05765421,7.42552483 4.58812699,7.3609093 4.33798232,7.03217784 C4.08864718,6.70425407 4.15340955,6.23579154 4.48207861,5.98621408 C4.81155719,5.73744433 5.28108441,5.80125215 5.53122908,6.12998362" id="Fill-55" fill="#C9C9C9"></path>
                                <path d="M21.5036546,16.820864 C21.5036546,18.4007135 20.2197405,19.6817162 18.6363004,19.6817162 C17.0528604,19.6817162 15.7697558,18.4007135 15.7697558,16.820864 C15.7697558,15.2410145 17.0528604,13.9600117 18.6363004,13.9600117 C20.2197405,13.9600117 21.5036546,15.2410145 21.5036546,16.820864" id="Fill-56" fill="#FFFFFF"></path>
                                <path d="M10.5955659,42.6402571 C10.4498505,42.6402571 10.3065638,42.6176417 10.1624675,42.5675647 C9.11736464,42.2097562 8.50212208,40.491791 8.16616726,36.996899 L8.97245883,36.9193604 C9.33189001,40.668676 9.96089458,41.6451781 10.4255646,41.8042938 C11.0521406,42.015102 12.1790059,40.8342533 13.1698703,39.7890972 C14.786501,38.0816321 16.6225144,36.1455895 18.4755278,37.2634381 C18.9134834,37.5243232 19.1531042,37.4516308 19.2963909,37.3708614 C20.2888743,36.8151679 20.67502,33.5868149 20.6855439,31.6822724 L21.4950736,31.6863108 C21.4918354,32.2387736 21.4149301,37.1099762 19.6922509,38.0751705 C19.3546771,38.2657863 18.7952921,38.3982481 18.05862,37.9548241 C16.7577058,37.1713609 15.2333614,38.7859413 13.7575888,40.343983 C12.6015804,41.5644087 11.5823825,42.6402571 10.5955659,42.6402571" id="Fill-57" fill="#C9C9C9"></path>
                                <path d="M10.4287218,33.9701465 C10.5728181,35.5806883 9.37957131,37.0030375 7.76536911,37.146807 C6.15116691,37.2889612 4.72558514,36.1000356 4.58148885,34.4894937 C4.43901163,32.8773364 5.63063933,31.4566027 7.24565105,31.3128331 C8.86066278,31.1690636 10.285435,32.3596046 10.4287218,33.9701465" id="Fill-58" fill="#FFFFFF"></path>
                                <path d="M7.51077202,31.704807 C7.43467623,31.704807 7.35858044,31.7080378 7.28167512,31.7153071 C5.89252218,31.8388842 4.86199089,33.0673869 4.9850394,34.4533898 C5.10808791,35.8393927 6.33533492,36.8619334 7.73015457,36.74401 C8.40287374,36.6842407 9.01164007,36.3660092 9.44635751,35.8490851 C9.88026542,35.3321609 10.085886,34.6779287 10.0251712,34.0059273 C9.96607557,33.3347336 9.6479304,32.72654 9.12902187,32.293616 C8.67001854,31.9099613 8.1017287,31.704807 7.51077202,31.704807 M7.50348626,37.5622041 C5.79456909,37.5622041 4.333368,36.2553551 4.17874783,34.5244669 C4.01603236,32.6950399 5.37604224,31.073998 7.21043651,30.9108438 C8.09120481,30.8341129 8.96387781,31.1022673 9.64873993,31.6741147 C10.3327925,32.2451543 10.7529384,33.0480022 10.8322723,33.9348502 C10.9107967,34.8200829 10.6387947,35.6851232 10.0664572,36.3676246 C9.49411976,37.0501261 8.68944725,37.470127 7.80058365,37.5484733 C7.7010115,37.5573579 7.60224888,37.5622041 7.50348626,37.5622041" id="Fill-59" fill="#C9C9C9"></path>
                                <path d="M9.35042824,34.0727236 C9.44109556,35.0993027 8.68175672,36.0071508 7.65122543,36.0984202 C6.62231319,36.1896896 5.71321135,35.4312649 5.62254403,34.4030705 C5.53025764,33.3764914 6.29121555,32.4702587 7.32012778,32.3781815 C8.34984955,32.2869121 9.25895138,33.0461445 9.35042824,34.0727236" id="Fill-60" fill="#EEEEEE"></path>
                            </g>
                        </g>
                    </g>
                </g>
            </g>
        </g>
    </g>
</svg>