<?xml version="1.0" encoding="UTF-8"?>
<svg width="65px" height="65px" viewBox="0 0 65 65" version="1.1" xmlns="http://www.w3.org/2000/svg" xmlns:xlink="http://www.w3.org/1999/xlink">
    <!-- Generator: Sketch 52.2 (67145) - http://www.bohemiancoding.com/sketch -->
    <title>404 cut</title>
    <desc>Created with Sketch.</desc>
    <defs>
        <circle id="path-1" cx="30.5094181" cy="30.5341308" r="30"></circle>
        <path d="M2.6258758,25.325683 C1.63837378,32.927493 6.96128949,39.8958189 14.5126814,40.8891092 C22.0632737,41.8815946 28.985383,36.5247494 29.9720854,28.9221344 C30.5166108,24.7243962 33.8557269,16.6975803 31.6512386,10.2154354 C29.8625406,4.96001203 22.9716156,0.732491228 19.5901209,0.288971814 C19.3022661,0.25113985 18.971233,0.2318214 18.6034185,0.2318214 C14.1992395,0.2318214 4.56969555,2.93801427 1.65516532,7.88112265 C-1.56720967,13.3466341 3.12402459,21.486946 2.6258758,25.325683 Z" id="path-3"></path>
    </defs>
    <g id="Page-1" stroke="none" stroke-width="1" fill="none" fill-rule="evenodd">
        <g id="ALL" transform="translate(-59.156250, -158.218750)">
            <g id="404" transform="translate(60.000000, 159.000000)">
                <g transform="translate(0.132015, 1.034614)">
                    <g id="分组-26" transform="translate(2.968103, 0.000000)">
                        <g id="分组-3">
                            <mask id="mask-2" fill="white">
                                <use xlink:href="#path-1"></use>
                            </mask>
                            <use id="Mask" fill="#F5F5F5" fill-rule="nonzero" xlink:href="#path-1"></use>
                            <g mask="url(#mask-2)" id="分组-2">
                                <g transform="translate(9.866624, 16.371669)">
                                    <g>
                                        <g id="分组" transform="translate(17.066593, 23.744826)" fill="#FFFFFF">
                                            <path d="M8.8109967,10.0617373 C4.94094833,12.9434061 0.712680602,10.4344224 0.712680602,10.4344224 L4.46598785,7.81757734 C4.46598785,7.81757734 6.71685276,7.88438698 7.5740205,6.49104378 C8.8349846,4.44006834 8.98930678,0.867764967 9.04447896,0.503129224 C9.12044065,0.00165446051 11.9006386,-0.22292252 12.0429669,0.724486463 L11.9925923,1.9753561 C11.9925923,1.9753561 12.1149306,7.60185465 8.8109967,10.0617373 Z" id="Fill-29"></path>
                                        </g>
                                        <g id="分组" transform="translate(16.324568, 23.002800)" fill="#C9C9C9">
                                            <path d="M2.23991044,11.1180904 C3.48088462,11.6630316 6.48656889,12.5879024 9.31634186,10.4797766 C12.411581,8.17524649 12.3364189,2.78056933 12.3348197,2.72583372 L12.3348197,2.70088073 L12.3851943,1.45001109 C12.3851943,1.46852461 12.2828459,1.39688535 12.1317221,1.34053987 C11.4880467,1.10227899 10.4485709,1.24475256 10.17271,1.39447055 C10.1679124,1.44035187 10.1631148,1.49911215 10.1567181,1.56914153 C10.069562,2.56001703 9.80489549,5.57530509 8.65507533,7.44517006 C7.80910195,8.82160962 5.87007978,8.9528141 5.33275075,8.96166839 L2.23991044,11.1180904 Z M5.41430962,12.580658 C3.07548906,12.580658 1.27959471,11.5390716 1.25160883,11.5229729 L0.713480199,11.2034135 L5.08807413,8.15351323 L5.219208,8.15673297 C5.23919792,8.15431816 7.251783,8.19858961 7.97621767,7.0209691 C9.02528864,5.31450602 9.27796122,2.44249646 9.36031968,1.49830722 C9.37391283,1.34295468 9.38430759,1.23509334 9.39150396,1.1843824 C9.50264791,0.447061564 10.9691084,0.409229599 11.26336,0.409229599 L11.2641596,0.409229599 C12.3859939,0.410034535 13.0848414,0.773060407 13.1807931,1.40654458 L13.1344164,2.72019918 C13.1416128,3.09207934 13.1775947,8.60669187 9.79050275,11.1277496 C8.30964953,12.2305111 6.77042574,12.580658 5.41430962,12.580658 Z" id="Fill-31"></path>
                                        </g>
                                        <g id="分组" transform="translate(7.420258, 29.681032)" fill="#FFFFFF">
                                            <path d="M2.71255209,6.90030421 C3.04358515,6.09778361 3.77841458,3.59443446 3.77841458,3.59443446 L4.1198424,1.36476336 C4.18700853,0.927683433 4.75872022,0.27166107 4.33493394,0.38918164 C3.6264912,0.587195752 0.127455725,1.01622633 0.127455725,5.51018075 C0.127455725,9.64674385 1.70266136,13.2568792 1.70266136,13.2568792" id="Fill-33"></path>
                                        </g>
                                        <g id="分组" transform="translate(6.678232, 28.939006)" fill="#C9C9C9">
                                            <path d="M2.44492705,14.4017752 C2.29140447,14.4017752 2.14507826,14.3124273 2.07871173,14.1610995 C2.01314479,14.0105766 0.469123426,10.4253942 0.469123426,6.25260902 C0.469123426,1.79326682 3.70589116,1.03984727 4.77015446,0.792732102 C4.85091373,0.773413652 4.91887946,0.758119879 4.97005365,0.743631041 C5.28909276,0.651868404 5.45620849,0.795146908 5.52897179,0.884494739 C5.73926574,1.14448888 5.58814196,1.44231498 5.44101615,1.73048186 C5.36985204,1.86973569 5.27310083,2.05970045 5.25710889,2.16836673 L4.91568107,4.39723289 C4.87330244,4.55339036 4.15926252,6.98349038 3.82423148,7.79647515 C3.73867462,8.00253862 3.50279358,8.10074074 3.30129519,8.01380771 C3.09659842,7.92848456 3.0006468,7.69344342 3.08540406,7.48818489 C3.40444317,6.71383702 4.12967744,4.2475149 4.13687382,4.22256191 L4.46630769,2.04521161 C4.4862976,1.91722688 4.53027543,1.79004708 4.58384841,1.66689196 C3.41163954,1.97598716 1.2687202,2.83404831 1.2687202,6.25260902 C1.2687202,10.2587726 2.79515043,13.8020983 2.81114237,13.8375154 C2.89909801,14.0411641 2.80794398,14.27862 2.605646,14.3679679 C2.55367221,14.3905061 2.49850003,14.4017752 2.44492705,14.4017752" id="Fill-35"></path>
                                        </g>
                                        <g id="分组" transform="translate(11.130387, 34.133187)">
                                            <path d="M3.99990289,8.67698112 C3.96312144,8.67698112 3.92554039,8.67537125 3.88795934,8.6721515 C1.54354161,8.48782129 0.404116208,2.55625222 0.553640804,0.628431899 L1.35083879,0.691216861 C1.19091943,2.75748607 2.45428233,7.75211032 3.95032789,7.87043583 C5.45037143,7.95253924 7.46695449,3.25010655 7.62767344,1.18464227 L8.42407182,1.24823217 C8.27694602,3.14546494 6.29794401,8.67698112 3.99990289,8.67698112" id="Fill-37"></path>
                                        </g>
                                        <g id="分组" transform="translate(8.904310, 28.939006)" fill="#FFFFFF">
                                            <path d="M13.5481278,5.94126 C13.2154956,9.59003224 9.37023468,19.2798448 5.74486292,18.9457966 C2.11949116,18.6109434 0.0877157658,8.37940938 0.419548426,4.7298322 C0.752180683,1.08025503 3.78265245,0.33971445 7.40802421,0.674567583 C10.6463911,0.973198622 13.8687661,2.41483795 13.5481278,5.94126" id="Fill-39"></path>
                                        </g>
                                        <g id="分组" transform="translate(8.162284, 28.939006)" fill="#C9C9C9">
                                            <path d="M6.65080606,1.00298123 C3.41963551,1.00298123 1.79165649,2.21923864 1.55977342,4.76685923 C1.22314318,8.4663424 3.28930124,18.2463077 6.52367018,18.5449387 C6.57484437,18.5497683 6.62601856,18.5521832 6.67719276,18.5521832 C9.87557984,18.5521832 13.5601218,9.54576079 13.8919544,5.90423298 C14.2413782,2.05986143 9.96833307,1.24607173 8.11326856,1.07542542 C7.59433025,1.02793423 7.10657622,1.00298123 6.65080606,1.00298123 Z M6.6675976,19.3571186 C6.59483429,19.3571186 6.52287058,19.3530939 6.45010727,19.3466544 C2.37856052,18.9707496 0.455530281,8.07916847 0.763375037,4.69280518 C1.0696206,1.33380969 3.56836051,-0.148076412 8.18683146,0.273709746 C12.5462331,0.676177454 14.9762076,2.80764643 14.6883528,5.97828703 C14.3853056,9.30428017 10.6583851,19.3571186 6.6675976,19.3571186 Z" id="Fill-41"></path>
                                        </g>
                                        <g id="分组" transform="translate(14.840516, 31.907110)" fill="#C9C9C9">
                                            <path d="M1.44471145,2.90795702 L0.454011047,2.81699932 C0.339668708,2.80573022 0.257310241,2.7051133 0.266905402,2.59000753 L0.48279653,0.22027767 C0.493191288,0.106781776 0.593940482,0.0222635577 0.706683626,0.0327277181 L1.69738403,0.124490355 C1.81092677,0.134954516 1.89408483,0.235571443 1.88448967,0.349872272 L1.66859854,2.72040707 C1.65820378,2.83390296 1.55825419,2.91842118 1.44471145,2.90795702" id="Fill-43"></path>
                                        </g>
                                        <g id="分组" transform="translate(11.130387, 31.165084)" fill="#C9C9C9">
                                            <path d="M4.33565357,1.42143863 L4.20292051,2.88320135 L1.13166931,3.77828953 C0.82462415,3.86683243 0.520777377,3.62937648 0.534370522,3.31142699 L0.656708828,0.53037513 C0.665504393,0.329946211 0.867002779,0.194717062 1.05810641,0.262331636 L4.33565357,1.42143863 Z M5.47028139,1.53936167 L8.90295033,0.998445074 C9.10204993,0.967052593 9.27636202,1.13608903 9.24917573,1.33490808 L8.86776807,4.09261681 C8.82379025,4.40734656 8.48156283,4.58604222 8.19530719,4.44115384 L5.25838825,2.9286802 L5.47028139,1.53936167 Z" id="Fill-64"></path>
                                        </g>
                                        <g id="分组" transform="translate(11.872413, 34.133187)" fill="#FFFFFF">
                                            <path d="M7.42145743,1.27455356 C7.24234776,3.23859597 5.17219171,8.45377253 3.22197519,8.27346699 C1.27095907,8.09396639 0.177110685,2.58740322 0.356220362,0.62255587" id="Fill-49"></path>
                                        </g>
                                        <g id="分组">
                                            <mask id="mask-4" fill="white">
                                                <use xlink:href="#path-3"></use>
                                            </mask>
                                            <g id="Clip-52"></g>
                                            <path d="M15.076717,42.6072439 C13.8757226,42.4961628 13.1057109,40.7518677 12.6715299,39.3094235 C12.2005674,37.744629 11.9311033,35.8224433 12.0294537,34.7381952 C12.0390488,34.6271142 12.1318021,34.5458157 12.246944,34.5554749 C12.3564887,34.5659391 12.4380476,34.6641412 12.4276529,34.7744173 C12.3468936,35.6654808 12.5355984,37.4693411 13.0537371,39.1927078 C13.6094569,41.0384247 14.3594787,42.1371616 15.1126988,42.206386 C15.8859089,42.2796352 16.8014472,41.3330311 17.680204,39.6185187 C18.5021895,38.0199169 19.0131319,36.2804515 19.0946907,35.389388 C19.1050855,35.2783069 19.2002375,35.1873492 19.3113815,35.2074726 C19.4217258,35.2171318 19.5032847,35.3161389 19.4928899,35.4256101 C19.3945395,36.510663 18.7812488,38.3515503 18.0360246,39.8044588 C17.3715597,41.0987949 16.3472762,42.6128784 15.1966565,42.6128784 C15.155877,42.6128784 15.1158972,42.6112685 15.076717,42.6072439 Z" id="Fill-51" fill="#C9C9C9" mask="url(#mask-4)"></path>
                                        </g>
                                        <g id="分组" transform="translate(2.968103, 9.646335)" fill="#FFFFFF">
                                            <path d="M18.7088853,1.04344835 C26.270672,2.47703832 27.5284377,6.0791243 27.3093482,9.48561098 L27.1750159,11.566369 C26.9159466,15.5950708 24.6290998,19.5175211 13.1724772,18.7697361 C2.2875664,18.059783 0.410113184,13.9200002 0.669182538,9.8929083 L0.80991157,7.70750865 C1.03539786,4.19557543 2.89206156,0.789088756 10.6161664,0.456650429" id="Fill-53"></path>
                                        </g>
                                        <g id="分组" transform="translate(2.968103, 9.646335)" fill="#303A3F">
                                            <path d="M13.14713,19.1714793 C8.04890102,18.839041 4.55786152,17.7604275 2.47491193,15.8752688 C0.826143384,14.3837235 0.105706693,12.4180712 0.270423628,9.86642593 L0.41115266,7.68183121 C0.724594594,2.83048546 4.0173341,0.336795546 10.5988151,0.0550681507 L10.6323982,0.859198631 C10.5028635,0.864833178 10.3741284,0.871272662 10.2485917,0.87851708 C2.52208814,1.32525624 1.38586112,4.99334692 1.20915024,7.73334708 L1.06842121,9.91874673 C0.9212954,12.2079831 1.55617524,13.9611324 3.00904257,15.2755919 C4.92647563,17.0118376 8.35434699,18.0526191 13.1975046,18.3681538 C24.7996538,19.1215733 26.5451735,15.1162147 26.776257,11.5398867 L26.9105893,9.45912861 C27.0857009,6.72315313 26.4196368,2.91500368 18.6347627,1.43875213 L18.7826881,0.647500616 C25.1826606,1.86134322 28.0188304,4.67781224 27.7077872,9.51144941 L27.5742546,11.5922075 C27.2664098,16.3694991 24.0888122,18.8446755 17.666451,19.2165557 C16.3063369,19.2954394 14.8014958,19.2793407 13.14713,19.1714793 Z" id="Fill-55"></path>
                                        </g>
                                        <g id="分组" transform="translate(2.968103, 9.646335)" fill="#FFFFFF">
                                            <path d="M18.7088853,1.04344835 C26.270672,2.47703832 27.5284377,6.0791243 27.3093482,9.48561098 L27.1750159,11.566369 C26.9159466,15.5950708 24.6290998,19.5175211 13.1724772,18.7697361 C2.2875664,18.059783 0.410113184,13.9200002 0.669182538,9.8929083 L0.80991157,7.70750865 C1.03539786,4.19557543 2.89206156,0.789088756 10.6161664,0.456650429" id="Fill-57"></path>
                                        </g>
                                        <g id="分组" transform="translate(2.968103, 9.646335)" fill="#C9C9C9">
                                            <path d="M17.666451,19.2165557 C16.3063369,19.2954394 14.8014958,19.2793407 13.14713,19.1714793 C8.04890102,18.839041 4.55786152,17.7604275 2.47491193,15.8752688 C0.826143384,14.3837235 0.105706693,12.4180712 0.270423628,9.86642593 L0.41115266,7.68183121 C0.724594594,2.83048546 4.0173341,0.336795546 10.5988151,0.0550681507 L10.6323982,0.859198631 C10.5028635,0.864833178 10.3741284,0.871272662 10.2485917,0.87851708 C2.52208814,1.32525624 1.38586112,4.99334692 1.20915024,7.73334708 L1.06842121,9.91874673 C0.9212954,12.2079831 1.55617524,13.9611324 3.00904257,15.2755919 C4.92647563,17.0118376 8.35434699,18.0526191 13.1975046,18.3681538 C24.7996538,19.1215733 26.5451735,15.1162147 26.776257,11.5398867 L26.9105893,9.45912861 C27.0857009,6.72315313 26.4196368,2.91500368 18.6347627,1.43875213 L18.7826881,0.647500616 C25.1826606,1.86134322 28.0188304,4.67781224 27.7077872,9.51144941 L27.5742546,11.5922075 C27.2664098,16.3694991 24.0888122,18.8446755 17.666451,19.2165557" id="Fill-59"></path>
                                        </g>
                                        <g id="分组" transform="translate(12.614439, 7.420258)" fill="#C9C9C9">
                                            <path d="M9.63418158,5.26141894 L8.03898602,5.15758227 L8.17491747,3.0446268 C8.13014005,2.40470315 7.90545336,2.08755859 6.79641264,1.92093696 C6.25828401,1.83802862 5.64899127,1.77524365 4.98372676,1.73177714 C4.37603321,1.69233531 3.81951386,1.67543166 3.32936104,1.68026127 C1.83811306,1.69877479 1.81732354,2.22037294 1.79413524,2.56569023 L1.6550054,4.74143066 L0.0590102417,4.63759399 L0.198939677,2.46185356 C0.267704999,1.38645985 0.872999755,0.105002667 3.3125695,0.0703904438 C3.84270216,0.0647558959 4.43920135,0.0832694104 5.08687474,0.125126052 C5.79691667,0.171812306 6.45178643,0.240231816 7.03389288,0.327969777 C7.67996707,0.425366962 9.64777472,0.72238813 9.77411101,3.00116029 L9.77331142,3.09775254 L9.63418158,5.26141894 Z" id="Fill-61"></path>
                                        </g>
                                        <g id="分组" transform="translate(13.356464, 8.162284)" fill="#FFFFFF">
                                            <path d="M0.114502258,3.94708405 L0.255231289,1.77214856 C0.335190966,0.514034507 1.318695,0.146179022 2.57885951,0.133300055 C3.0522208,0.128470443 3.61753571,0.142154345 4.29319498,0.186425793 C5.04321676,0.236331789 5.66290425,0.304751299 6.17304699,0.381220163 C7.40602521,0.56796518 8.16244376,1.0251685 8.23280828,2.30421087 L8.09367844,4.46707233" id="Fill-63"></path>
                                        </g>
                                        <g id="分组" transform="translate(13.356464, 8.162284)" fill="#C9C9C9">
                                            <path d="M0.694689675,3.97308347 L0.813829594,2.11609746 C0.883394513,1.04231362 1.72217153,0.728388808 2.79842878,0.717119712 C3.20222515,0.7122901 3.6851816,0.725169066 4.26169087,0.763001031 C4.90216789,0.804052737 5.43150095,0.863617958 5.86728119,0.929622662 C6.91875094,1.08819494 7.56562473,1.47778368 7.62479489,2.57008104 L7.50645457,4.41740782" id="Fill-65"></path>
                                        </g>
                                        <g id="分组" transform="translate(5.936206, 13.356464)" fill="#C9C9C9">
                                            <path d="M11.2786323,0.482790128 C2.7581291,-0.0726153087 0.882275077,3.00304291 0.677578304,6.18736742 L0.565634756,7.91878349 C0.360138386,11.1087425 1.82739846,14.3856346 10.3479017,14.941845 C19.316179,15.527033 21.108875,12.4191774 21.3143714,9.22841341 L21.4207177,7.57990568 C21.5942302,4.88176217 20.6115258,2.029876 14.6929105,0.898136802 C13.6998113,0.70897698 12.5683819,0.567308346 11.2786323,0.482790128 Z" id="Fill-67"></path>
                                        </g>
                                        <g id="分组" transform="translate(8.162284, 16.324568)" fill="#FFFFFF">
                                            <path d="M5.77796623,8.14498598 L4.42664769,3.09804093 L3.49991503,5.46294118 L3.2096614,5.44362273 C3.2096614,5.44362273 0.988381569,5.29873435 0.922814634,5.29470968 C0.702125925,5.27861097 0.535809796,5.08703634 0.551002135,4.8656791 C0.566194474,4.64271199 0.759696892,4.47850516 0.977187214,4.49138413 C1.02756181,4.49460387 2.36608681,4.58234183 2.97058196,4.62178367 L4.56977551,0.539151242 L5.982663,5.81630782 L6.428838,4.86084949 L12.6768872,5.26814681 C12.8975759,5.28263564 13.0646916,5.47421027 13.0502989,5.69556751 C13.0359061,5.91772969 12.8480009,6.0907908 12.625713,6.07147235 L6.92218921,5.69878725 L5.77796623,8.14498598 Z" id="Fill-69"></path>
                                        </g>
                                        <g id="分组" transform="translate(22.260774, 21.518748)" fill="#FFFFFF">
                                            <path d="M2.75320832,1.11531113 C2.73641679,1.116921 2.72042485,1.116921 2.70363332,1.11531113 L0.683851878,0.98330172 C0.463962766,0.968812882 0.296847041,0.778043189 0.310440186,0.555881014 C0.325632525,0.33371884 0.520734137,0.161462661 0.735825669,0.180781111 L2.75560711,0.311985583 C2.97549622,0.327279356 3.14341155,0.51804905 3.1290188,0.739406289 C3.11542566,0.94466482 2.95230792,1.10404203 2.75320832,1.11531113" id="Fill-71"></path>
                                        </g>
                                        <g id="分组" transform="translate(20.034697, 30.423058)">
                                            <path d="M2.16107019,1.33707822 L0.740986328,1.48196659 C0.740986328,1.48196659 1.4406335,3.084593 1.39025891,3.12725458 C1.34068391,3.16830629 1.59895366,3.83881749 1.59895366,3.83881749 L1.59895366,4.17447556 L2.93507987,4.08834747 L3.77305728,3.31963415 L3.77305728,2.38027452 L2.16107019,1.33707822 Z" id="Fill-73" fill="#FFFFFF"></path>
                                            <path d="M1.54266205,0.974696294 C1.54266205,0.974696294 1.17084955,1.5317116 1.72097213,3.19229336" id="Fill-75" fill="#FFFFFF"></path>
                                            <path d="M1.72065229,3.59468058 C1.55353657,3.59468058 1.3976152,3.48762417 1.34084383,3.31939267 C0.759536973,1.56141372 1.13054987,0.870779132 1.21050955,0.750843755 C1.33524665,0.564903674 1.58472084,0.51821742 1.76542971,0.640567603 C1.94294019,0.76050298 1.99491398,0.999568799 1.88536923,1.18228914 C1.86857769,1.21931617 1.65748415,1.72884028 2.10046076,3.06503307 C2.17002568,3.27592615 2.05648294,3.50372288 1.84698858,3.57455719 C1.80460995,3.58824109 1.76303092,3.59468058 1.72065229,3.59468058" id="Fill-77" fill="#C9C9C9"></path>
                                        </g>
                                    </g>
                                </g>
                            </g>
                        </g>
                    </g>
                    <g id="Group-6-Copy-5" transform="translate(43.866594, 37.604187)" stroke="#C9C9C9">
                        <g id="Group-5" transform="translate(8.170895, 7.946971) rotate(-36.000000) translate(-8.170895, -7.946971) translate(1.170895, 3.946971)">
                            <path d="M10.6012821,3.82863727 C10.6012821,5.94318233 8.85207055,7.65718287 6.69408604,7.65718287 C4.53610153,7.65718287 2.78688998,5.94318233 2.78688998,3.82863727 C2.78688998,1.7140922 4.53610153,9.16577833e-05 6.69408604,9.16577833e-05 C8.85207055,9.16577833e-05 10.6012821,1.7140922 10.6012821,3.82863727 Z" id="Stroke-1" fill="#FFFFFF"></path>
                            <path d="M10.0546925,1.72255527 C12.0480453,2.14418108 13.3878603,2.92938275 13.3878603,3.82854561 C13.3878603,5.17316529 10.3911273,6.26328186 6.69408604,6.26328186 C2.99704481,6.26328186 0,5.17316529 0,3.82854561 C0,2.92327223 1.35852312,2.13348767 3.37432573,1.71400055" id="Stroke-3"></path>
                        </g>
                    </g>
                    <g id="分组-10-copy-17" transform="translate(0.044565, 23.744826)">
                        <g id="分组-10-copy-16" transform="translate(0.672131, 0.000000)">
                            <polygon id="路径-5" fill="#FFFFFF" points="4.58922041 2.13243524 2.02442401 4.80200888 4.77242016 7.31800953 7.5204163 4.80200888"></polygon>
                            <path d="M2.92852635,4.74962154 C3.7151907,5.16073653 4.36697605,5.78684594 4.80127107,6.54815068 C5.23556609,5.78684594 5.88735144,5.16073653 6.67401579,4.74962154 C5.88735144,4.33850655 5.23556609,3.71239713 4.80127107,2.9510924 C4.36697605,3.71239713 3.7151907,4.33850655 2.92852635,4.74962154 Z M0.185964944,4.74962154 C0.185660258,4.74205988 0.185506451,4.73445936 0.185506451,4.72682292 C0.185506451,4.41946577 0.434668652,4.17030357 0.742025804,4.17030357 C2.53064842,4.17030357 4.00429806,2.88118695 4.24053853,1.21287224 C4.22424899,1.05811583 4.2159008,0.901036021 4.2159008,0.742025804 C4.2159008,0.434668652 4.465063,0.185506451 4.77242016,0.185506451 C4.7820968,0.185506451 4.79171576,0.185753421 4.80127107,0.186241403 C4.81082639,0.185753421 4.82044535,0.185506451 4.83012199,0.185506451 C5.13747914,0.185506451 5.38664134,0.434668652 5.38664134,0.742025804 C5.38664134,0.901036021 5.37829315,1.05811583 5.36200361,1.21287224 C5.59824408,2.88118695 7.07189372,4.17030357 8.86051634,4.17030357 C9.16787349,4.17030357 9.41703569,4.41946577 9.41703569,4.72682292 C9.41703569,4.73445936 9.41688188,4.74205988 9.4165772,4.74962154 C9.41688188,4.7571832 9.41703569,4.76478372 9.41703569,4.77242016 C9.41703569,5.07977731 9.16787349,5.32893951 8.86051634,5.32893951 C7.07189372,5.32893951 5.59824408,6.61805613 5.36200361,8.28637084 C5.37829315,8.44112725 5.38664134,8.59820706 5.38664134,8.75721727 C5.38664134,9.06457443 5.13747914,9.31373663 4.83012199,9.31373663 C4.82044535,9.31373663 4.81082639,9.31348966 4.80127107,9.31300167 C4.79171576,9.31348966 4.7820968,9.31373663 4.77242016,9.31373663 C4.465063,9.31373663 4.2159008,9.06457443 4.2159008,8.75721727 C4.2159008,8.59820706 4.22424899,8.44112725 4.24053853,8.28637084 C4.00429806,6.61805613 2.53064842,5.32893951 0.742025804,5.32893951 C0.434668652,5.32893951 0.185506451,5.07977731 0.185506451,4.77242016 C0.185506451,4.76478372 0.185660258,4.7571832 0.185964944,4.74962154 Z" id="合并形状" fill="#C9C9C9" fill-rule="nonzero"></path>
                        </g>
                    </g>
                    <g id="分组-4" transform="translate(2.270642, 1.125811)" fill="#C9C9C9" fill-rule="nonzero">
                        <path d="M11.2217699,8.53843568 L6.29321581,14.4564406 L11.2217699,14.4564406 L11.2217699,8.53843568 Z M4.31369699,17.053531 C3.39162553,17.053531 2.64413893,16.3060444 2.64413893,15.3839729 C2.64413893,14.9935807 2.78094496,14.615532 3.03077474,14.3155467 L10.8663799,4.9068744 C11.4564554,4.19833601 12.50919,4.10230287 13.2177284,4.69237838 C13.5986134,5.00958196 13.8188602,5.47962787 13.8188602,5.97530063 L13.8188602,14.4564406 L15.3262137,14.4564406 C16.0433804,14.4564406 16.6247588,15.0378191 16.6247588,15.7549858 C16.6247588,16.4721525 16.0433804,17.053531 15.3262137,17.053531 L13.8188602,17.053531 L13.8188602,21.1574554 C13.8188602,21.8746221 13.2374818,22.4560006 12.5203151,22.4560006 C11.8031484,22.4560006 11.2217699,21.8746221 11.2217699,21.1574554 L11.2217699,17.053531 L4.31369699,17.053531 Z" id="路径-2" transform="translate(9.634449, 13.380850) rotate(-19.000000) translate(-9.634449, -13.380850) "></path>
                        <path d="M42.9281423,6.92698744 L37.9995882,12.8449924 L42.9281423,12.8449924 L42.9281423,6.92698744 Z M36.0200694,15.4420827 C35.0979979,15.4420827 34.3505113,14.6945961 34.3505113,13.7725247 C34.3505113,13.3821324 34.4873173,13.0040837 34.7371471,12.7040984 L42.5727523,3.29542616 C43.1628278,2.58688776 44.2155624,2.49085463 44.9241008,3.08093014 C45.3049858,3.39813372 45.5252326,3.86817962 45.5252326,4.36385239 L45.5252326,12.8449924 L47.0325861,12.8449924 C47.7497527,12.8449924 48.3311312,13.4263709 48.3311312,14.1435376 C48.3311312,14.8607042 47.7497527,15.4420827 47.0325861,15.4420827 L45.5252326,15.4420827 L45.5252326,19.5460072 C45.5252326,20.2631738 44.9438541,20.8445523 44.2266875,20.8445523 C43.5095208,20.8445523 42.9281423,20.2631738 42.9281423,19.5460072 L42.9281423,15.4420827 L36.0200694,15.4420827 Z" id="路径-2" transform="translate(41.340821, 11.769402) rotate(17.000000) translate(-41.340821, -11.769402) "></path>
                        <path d="M19.1315714,9.51593314 C19.1340413,4.9836961 21.8460482,1.17032897 25.4430535,1.16839883 C29.0414986,1.16646791 31.7507188,4.9788518 31.7482484,9.51197196 C31.7457785,14.044209 29.0337717,17.8575761 25.4367664,17.8595063 C21.8383212,17.8614372 19.129101,14.0490533 19.1315714,9.51593314 Z M29.1511585,9.51055665 C29.1529301,6.25976587 27.3796671,3.76445033 25.4444471,3.76548877 C23.5077872,3.76652797 21.7304333,6.26567457 21.7286613,9.51734846 C21.7268897,12.7681392 23.5001527,15.2634548 25.4353728,15.2624163 C27.3720326,15.2613771 29.1493865,12.7622305 29.1511585,9.51055665 Z" id="椭圆形" transform="translate(25.439910, 9.513953) rotate(-7.000000) translate(-25.439910, -9.513953) "></path>
                    </g>
                    <g id="分组-2" transform="translate(54.439113, 18.279285) rotate(69.000000) translate(-54.439113, -18.279285) translate(48.939113, 11.279285)" fill="#C9C9C9">
                        <path d="M7.81868303,9.61618384 C7.25305841,10.0139134 6.44854601,9.93379518 5.98926498,9.43019522 L0.545705978,3.47712857 C-0.120097389,2.74605021 0.00936437673,1.64585596 0.830830104,1.06499918 C1.65383704,0.487003765 2.83132263,0.667269662 3.40927694,1.46129802 L8.11767806,7.93084077 C8.51685184,8.47736119 8.38430765,9.21702364 7.81868303,9.61618384" id="Fill-54"></path>
                        <path d="M10.4348246,10.9348051 C10.8930303,11.5370106 10.774401,12.3973041 10.1708744,12.8571162 C9.56734785,13.3139617 8.70728544,13.1953005 8.24907977,12.5916118 C7.79235697,11.9894063 7.91098627,11.1291128 8.51302996,10.670784 C9.11655652,10.2139384 9.97661893,10.3311163 10.4348246,10.9348051" id="Fill-55"></path>
                    </g>
                </g>
            </g>
        </g>
    </g>
</svg>