<?xml version="1.0" encoding="UTF-8"?>
<svg width="65px" height="65px" viewBox="0 0 65 65" version="1.1" xmlns="http://www.w3.org/2000/svg" xmlns:xlink="http://www.w3.org/1999/xlink">
    <!-- Generator: Sketch 52.2 (67145) - http://www.bohemiancoding.com/sketch -->
    <title>暂无网络</title>
    <desc>Created with Sketch.</desc>
    <defs>
        <circle id="path-1" cx="30.1864996" cy="30.0428735" r="30"></circle>
        <polygon id="path-3" points="0 0.0142431439 6.79418873 0.0142431439 6.79418873 10.0780443 0 10.0780443"></polygon>
        <polygon id="path-5" points="0.513606887 0.306899035 18.9040732 0.306899035 18.9040732 31.8919861 0.513606887 31.8919861"></polygon>
    </defs>
    <g id="Page-1" stroke="none" stroke-width="1" fill="none" fill-rule="evenodd">
        <g id="ALL" transform="translate(-445.156250, -29.218750)">
            <g id="暂无网络" transform="translate(446.000000, 30.000000)">
                <g transform="translate(0.735970, 3.267858)">
                    <g id="分组-14" transform="translate(0.321551, 0.191502)">
                        <g id="分组-13" transform="translate(2.438072, 0.159346)">
                            <mask id="mask-2" fill="white">
                                <use xlink:href="#path-1"></use>
                            </mask>
                            <use id="Mask" fill="#F5F5F5" fill-rule="nonzero" xlink:href="#path-1"></use>
                            <g mask="url(#mask-2)">
                                <g transform="translate(-2.169041, 15.408727)">
                                    <path d="M36.9942026,4.2993525 C36.9942026,4.2993525 36.4737865,2.88874543 36.3959673,2.86993733 C36.3173374,2.85112924 34.6774594,2.31468968 34.6450347,2.30487676 C34.6117994,2.29506384 30.8351351,1.46505446 30.7775813,1.46341897 C30.7200275,1.46178349 28.1106516,1.92299067 28.1074092,1.9557004 C28.1033561,1.98841013 27.9452858,2.92145516 27.9161036,3.02121983 C27.8861107,3.12016676 27.7653288,4.80390008 27.8180189,4.8194372 C27.8698984,4.83333883 33.6998554,5.64290463 33.8425239,5.67561436 C33.9860031,5.70832409 35.6185856,5.92911477 35.7677391,5.87759694 C35.916082,5.82607912 36.9942026,4.2993525 36.9942026,4.2993525" id="Fill-3" fill="#FFFFFF"></path>
                                    <path d="M28.1290455,2.92682927 C23.4169293,3.36023318 21.3441818,6.25586197 20.7005519,10.0894422 C19.38411,18.5220105 24.3345476,20.3095972 31.1964199,21.1608679 C39.04076,22.2558261 43.2810971,20.6187041 43.8655519,13.0823825 C44.2432994,9.14985527 42.6690814,5.78157089 37.8313195,3.98417127" id="Fill-5" fill="#FFFFFF"></path>
                                    <path d="M30.6672063,5.21589797 C24.0598677,4.56333887 21.9247027,7.39845465 21.3159294,10.9842587 C20.6009653,16.8204922 23.9277372,18.7888001 29.1205492,19.6899532 C35.9143297,20.8037195 38.0786769,19.136341 38.7903986,13.1627267 C39.3513455,8.45579665 37.6612092,5.906891 30.6672063,5.21589797" id="Fill-7" fill="#C9C9C9"></path>
                                    <path d="M30.8152749,21.2411796 C26.9980798,20.7677062 23.1873696,19.9646824 21.2070325,17.3151943 C19.8589765,15.5120705 19.4560999,13.0212246 19.9740841,9.70200482 C20.742549,5.12427821 23.3640841,2.59990485 27.7657341,2.19512195 L27.8403108,3.00959421 C23.7937111,3.38166738 21.4826422,5.61410641 20.774163,9.83366148 C20.2934672,12.9173712 20.6460856,15.2062345 21.8547154,16.8237306 C23.6526638,19.2278957 27.2745002,19.978584 30.9198445,20.430796 C35.6424988,21.0882616 38.5907125,20.6965626 40.4859349,19.1583876 C42.0301602,17.9047872 42.8967097,15.8007339 43.1358417,12.7260193 C43.5379077,8.53426749 41.5964801,5.61574189 37.3650597,4.04322166 L37.6455332,3.27536076 C42.2012003,4.968907 44.3785174,8.26114125 43.9432161,12.797163 C43.6870612,16.1008456 42.722427,18.3929799 40.9941917,19.7962273 C39.5350813,20.9803195 37.5571759,21.5535575 34.801889,21.5535575 C33.6224414,21.5543752 32.3003252,21.4488864 30.8152749,21.2411796 Z" id="Fill-9" fill="#C9C9C9"></path>
                                    <path d="M35.5261354,2.46673894 C35.6023334,2.6834409 35.6298944,2.91649772 35.5990909,3.16509166 C35.5731512,3.3777049 35.5577495,3.54125355 35.5423477,3.71788609 C35.5382947,3.75877325 35.5342416,3.80047816 35.5301885,3.84381855 C35.9484668,3.69662477 36.3780938,3.57478102 36.7915084,3.48810024 C36.4705041,3.10048995 36.0335816,2.75867328 35.5261354,2.46673894 Z M34.566365,5.12195122 L34.653101,4.41705655 C34.6952531,4.0736044 34.7155185,3.84872501 34.7341627,3.64183597 C34.7511856,3.45784374 34.7665873,3.28775315 34.7949589,3.0636915 C34.8979073,2.22305146 33.3909704,1.51488582 31.828101,1.28918869 C31.8151311,1.2875532 31.8013506,1.28509997 31.7883807,1.28346449 C31.7527136,1.27774028 31.7162358,1.27283382 31.6805687,1.26874511 C30.0917595,1.07166899 28.351365,1.35297266 28.2403104,2.26230314 L27.9922617,4.28458215 L27.1881297,4.18399973 L27.4361784,2.16253846 C27.623431,0.63417636 29.752111,0.20404342 31.779464,0.456726079 C31.8345859,0.464085768 31.8913291,0.4722632 31.946451,0.478805146 C34.0726992,0.756020102 36.8677064,1.73322326 37.8363937,3.59686009 L38.1071397,4.11939802 L37.5275486,4.19135942 C36.8060995,4.28294666 35.9630579,4.5200922 35.2140479,4.84310078 L34.566365,5.12195122 Z" id="Fill-11" fill="#C9C9C9"></path>
                                    <path d="M28.6515443,4.42555683 C28.6515443,4.42555683 28.798266,3.22674525 28.8533879,2.78025744 C28.8704109,2.63715238 28.9255328,2.50631346 29.0236175,2.40082458 C29.2797724,2.12769834 29.9242129,1.71310252 31.4141268,1.89873024 C32.21988,1.99931266 32.9032301,2.26017275 33.366903,2.48178116 C33.7608628,2.67067985 33.9862143,3.09181761 33.9351454,3.52767476 L33.7511354,5.10510145 C33.7511354,5.10510145 31.595705,4.73221054 30.8742559,4.63653458 C30.3214152,4.56293769 28.6515443,4.42555683 28.6515443,4.42555683" id="Fill-13" fill="#C9C9C9"></path>
                                    <path d="M33.5032386,15.7864864 C33.4205557,15.7864864 33.3378728,15.7611364 33.2657279,15.7088008 L31.0957063,14.1264676 C30.8654911,13.9571948 30.7293075,13.685704 30.7317393,13.3986762 C30.7349818,13.1116483 30.8760292,12.841793 31.1086762,12.6782444 L33.4286619,11.0492998 C33.6134825,10.9200964 33.8655844,10.9650723 33.9928513,11.1507 C34.1217393,11.3363277 34.0763448,11.5906459 33.8923348,11.7198493 L31.5723491,13.3496116 L31.3332171,13.7944639 L31.5707279,13.4632779 L33.7407494,15.0464288 C33.9223276,15.1789032 33.9628584,15.4340391 33.8315385,15.6172135 C33.7529086,15.7276089 33.6280736,15.7864864 33.5032386,15.7864864" id="Fill-15" fill="#FFFFFF"></path>
                                    <path d="M23.819692,14.9735373 C23.6591898,14.9735373 23.5067939,14.8770436 23.4435657,14.716766 C23.3608828,14.5074237 23.4613993,14.2694604 23.6689173,14.1852329 L26.15589,13.1826797 L26.4882429,12.8040645 L26.1826404,13.0722843 L24.3247063,10.9216196 C24.1771741,10.751529 24.1950076,10.4931222 24.3644266,10.3451106 C24.5322243,10.1962814 24.7883792,10.213454 24.9359115,10.3843623 L26.7938455,12.535027 C26.9802874,12.751729 27.0524323,13.047752 26.9851511,13.3266025 C26.9186805,13.6054529 26.72089,13.8352388 26.4566289,13.9415454 L23.9704668,14.9449163 C23.9210191,14.9645422 23.8699503,14.9735373 23.819692,14.9735373" id="Fill-17" fill="#FFFFFF"></path>
                                    <path d="M20.4554663,20.2073656 C20.4554663,20.2073656 20.5713845,18.2684964 19.753472,17.8956055 C18.9355595,17.5218968 16.7331133,16.8292683 16.7331133,16.8292683 L13.902439,23.7073066 L21.3390387,26.3559769 C23.5366212,27.1385572 25.7941894,27.7355098 28.0890459,28.1419282 L33.5639527,29.1109539 L33.552604,25.470361 L27.4089383,23.5265854 C26.1962554,23.1430638 25.0208608,22.6475114 23.8981564,22.0472879 L20.4554663,20.2073656 Z" id="Fill-19" fill="#FFFFFF"></path>
                                    <path d="M14.2111116,23.7692378 L21.2448347,26.2739853 C23.413235,27.0459349 25.6618863,27.641252 27.9291819,28.0435817 L32.9274459,28.9275621 L32.9193397,26.0736382 L27.0585793,24.220632 C25.8256309,23.8305685 24.6210542,23.32275 23.4788949,22.7118958 L19.8059896,20.749312 L19.8213913,20.4868164 C19.8603009,19.8179025 19.739519,18.7458411 19.3577185,18.5724795 C18.7643469,18.3009888 17.3862981,17.8463236 16.7361833,17.6361635 L14.2111116,23.7692378 Z M33.7413053,29.9014943 L27.7897558,28.848241 C25.4778763,28.4393694 23.1854516,27.8326039 20.9748992,27.0451172 L13.1346123,24.2533418 L16.2716998,16.6311571 L16.6251288,16.7423702 C16.7151073,16.7709912 18.8608103,17.4472649 19.6916926,17.8266977 C20.5549997,18.22085 20.6457888,19.6232796 20.6393038,20.2692967 L23.8582636,21.9898285 C24.9566496,22.5769682 26.1150212,23.0651609 27.3001431,23.4396873 L33.7283354,25.4734147 L33.7413053,29.9014943 Z" id="Fill-21" fill="#C9C9C9"></path>
                                    <path d="M28.3679716,29.9578576 C29.210331,33.8345847 34.3641041,44.2723748 37.9168365,42.8994193 C41.3221361,41.5830462 41.8497065,30.4587783 41.0073471,26.5812192 C40.1649877,22.7044921 37.4442546,22.0704363 33.5113846,22.7985188 C29.7386984,23.4958138 27.5256122,26.0811306 28.3679716,29.9578576" id="Fill-23" fill="#FFFFFF"></path>
                                    <path d="M36.1981113,22.7731376 C35.4628818,22.7731376 34.6303782,22.8581829 33.6916838,23.026638 C31.6894599,23.3848095 30.189008,24.2458932 29.3524513,25.5166661 C28.6204642,26.6287969 28.4299693,27.9919749 28.7842089,29.5694016 L28.7842089,29.5702193 C29.4943093,32.7267082 33.1404642,40.039786 36.2613394,41.7464161 C36.8968631,42.093957 37.468348,42.1773668 37.9612031,41.99501 C39.3076378,41.4920979 40.376031,39.033144 40.8923939,35.2478106 C41.3739004,31.7225195 41.2352849,28.1440751 40.8502419,26.4325386 C40.2860525,23.9204314 38.8853064,22.7731376 36.1981113,22.7731376 M37.4237641,42.9084292 C36.9325302,42.9084292 36.4153566,42.7604177 35.8754858,42.4660301 C32.5098043,40.6261078 28.7509736,33.1167717 27.994668,29.7501229 C27.5942232,27.9715313 27.8301127,26.351582 28.6772074,25.0652719 C29.6394097,23.603147 31.3246823,22.6194019 33.5506364,22.2211609 C36.7655432,21.6471052 40.5924657,21.5857744 41.6405934,26.2518173 C42.4293236,29.7566648 42.1545245,41.300746 38.2424872,42.7612354 C37.9790367,42.8593646 37.7058588,42.9084292 37.4237641,42.9084292" id="Fill-25" fill="#C9C9C9"></path>
                                    <path d="M35.6176403,39.5085921 C35.3930994,39.5085921 35.1563993,39.4423549 34.9091611,39.3115159 C32.8972099,38.2402723 30.5788455,32.9298478 30.1386805,30.9746237 C29.9643979,30.1977676 29.9546705,29.4838778 30.1078771,28.8533977 L30.5018369,28.9507092 C30.3632214,29.5198585 30.3737594,30.1699644 30.5342616,30.8846719 C31.0141468,33.0197995 33.3252157,38.00558 35.0980349,38.9492557 C35.3947207,39.1062624 35.6476332,39.1397899 35.8778484,39.0490204 C36.6138885,38.7546328 37.1570019,37.1984674 37.366141,34.7779475 C37.5598785,32.5307891 37.4091037,30.2337483 37.1594337,29.126524 C36.9851511,28.3439437 36.7062989,27.7657992 36.3099072,27.3610163 L36.5976762,27.0731707 C37.0500004,27.5335602 37.362088,28.1771241 37.5558254,29.0357545 C38.0592185,31.2739177 38.1427121,38.5837245 36.0270019,39.429271 C35.8956819,39.4824243 35.7594983,39.5085921 35.6176403,39.5085921" id="Fill-27" fill="#BBBBBB"></path>
                                    <path d="M33.335666,26.0071944 L36.1099273,24.7357896 C36.2679957,24.6471842 36.4631617,24.7658821 36.4986464,24.9706777 L36.9857551,27.8160832 C37.0422081,28.1420844 36.807525,28.4170957 36.5260665,28.3560749 L33.6550286,27.867909" id="Fill-29" fill="#C9C9C9"></path>
                                    <path d="M32.2982588,26.4419708 L29.741573,26.4468772 C29.5899876,26.4370643 29.481365,26.594071 29.5243277,26.7600729 L30.1233736,29.0522072 C30.192276,29.3147028 30.4662645,29.4365465 30.6608126,29.2909882 L32.6476347,27.9752393" id="Fill-31" fill="#C9C9C9"></path>
                                    <path d="M15.7490117,16.649198 C14.125346,15.563235 11.7859056,16.1127585 10.4297434,18.0148292 C9.07358132,19.9160822 9.23003039,22.4257362 10.8374838,23.5362315 C12.7513503,24.8568868 16.8684737,25.356528 18.1662714,23.4356491 C19.4640691,21.5139525 17.4407693,17.7809547 15.7490117,16.649198" id="Fill-33" fill="#FFFFFF"></path>
                                    <path d="M13.875352,16.1185015 C12.7356246,16.1225903 11.5440177,16.7440751 10.7431282,17.8660188 C10.0605887,18.8235962 9.77281972,19.9692544 9.95358729,21.0102416 C10.0881497,21.7862799 10.4675184,22.4094002 11.050352,22.8117299 C12.2970808,23.671178 14.4914209,24.1103062 16.048616,23.8159186 C16.6209115,23.7071587 17.3918082,23.4454809 17.8157609,22.8174541 C18.2405242,22.1886096 18.1926978,21.3512405 18.0775902,20.7600121 C17.7411841,19.028032 16.482296,17.2535292 15.5087451,16.6034233 C15.01589,16.273055 14.4525113,16.1168661 13.875352,16.1185015 M15.01589,24.7252491 C13.4603161,24.7301555 11.719111,24.2640419 10.593164,23.4871858 C9.83685845,22.9646479 9.32616979,22.1346385 9.15512962,21.1508934 C8.93707366,19.8940221 9.27591154,18.5226667 10.0849072,17.3892745 C11.5464496,15.3383745 14.125022,14.6956283 15.9562057,15.9214254 C17.2507609,16.78578 18.5315356,18.8424043 18.8728054,20.6021877 C19.0811339,21.6701604 18.9473821,22.5958457 18.4853305,23.2786613 C18.0265213,23.9582059 17.2361698,24.4218663 16.1985801,24.6197602 C15.8273176,24.6900861 15.4276834,24.7236136 15.01589,24.7252491" id="Fill-35" fill="#C9C9C9"></path>
                                    <g id="分组" stroke-width="1" fill="none" transform="translate(0.000000, 8.780488)">
                                        <mask id="mask-4" fill="white">
                                            <use xlink:href="#path-3"></use>
                                        </mask>
                                        <g id="Clip-38"></g>
                                    </g>
                                    <path d="M15.5592501,21.3816578 C16.6673634,19.8287634 16.5182099,17.8097554 15.2260865,16.8718039 C13.9347738,15.9346701 11.9892931,16.4334935 10.8811798,17.9880234 C9.77387705,19.5409178 9.92303057,21.5599258 11.215154,22.4970596 C12.5064667,23.4350111 14.4519474,22.9345522 15.5592501,21.3816578" id="Fill-43" fill="#EEEEEE"></path>
                                    <path d="M14.5134505,20.1592916 L8.04878049,16.097561" id="Fill-45" fill="#545A6D"></path>
                                    <path d="M12.3874882,19.8440383 L7.63538092,16.8538596 C7.44488594,16.7344691 7.38733214,16.4817864 7.50568221,16.2904345 C7.62403229,16.0990826 7.87451292,16.0402051 8.06419728,16.1587778 L12.8163045,19.1489565 C13.0067995,19.2691648 13.0643533,19.5210297 12.9460032,19.7131993 C12.8698052,19.8366786 12.7376747,19.905369 12.6031123,19.905369 C12.5293461,19.9061867 12.4547694,19.8865609 12.3874882,19.8440383 Z" id="Fill-47" fill="#C9C9C9"></path>
                                    <path d="M33.8462034,27.8022906 C33.8462034,27.8022906 33.7700054,28.0067264 33.6111244,28.1064911 C33.4506223,28.2062557 33.0834128,28.2512316 33.0834128,28.2512316 C32.8661675,28.3002962 32.6489221,28.1629153 32.5994745,27.9429424 L32.2047041,26.1888832 C32.1576883,25.9787232 32.2881976,25.7685632 32.4973368,25.7203163 C32.4973368,25.7203163 32.9050771,25.5796645 33.0380183,25.6156452 C33.1977098,25.660621 33.3955003,25.8429778 33.3955003,25.8429778 L33.8462034,27.8022906 Z" id="Fill-51" fill="#C9C9C9"></path>
                                    <g id="分组" stroke-width="1" fill="none" transform="translate(38.780488, 11.707317)">
                                        <mask id="mask-6" fill="white">
                                            <use xlink:href="#path-5"></use>
                                        </mask>
                                        <g id="Clip-54"></g>
                                        <polygon id="Fill-53" fill="#FFFFFF" mask="url(#mask-6)" points="18.9040732 31.8922314 0.513606887 31.8922314 0.513606887 0.306899035 18.0934562 0.306899035"></polygon>
                                    </g>
                                    <path d="M39.9964132,42.4415516 L38.7804878,42.4415516 L38.7804878,13.2244036 C38.7804878,11.9847049 39.7799785,10.9756098 41.0096844,10.9756098 L55.6097059,10.9756098 C56.8386011,10.9756098 57.8389024,11.9847049 57.8389024,13.2244036 L57.8324175,36.7688668 L56.6164921,36.7688668 L56.622977,13.2244036 C56.622977,12.6601608 56.1682209,12.2022246 55.6097059,12.2022246 L41.0096844,12.2022246 C40.4511693,12.2022246 39.9964132,12.6601608 39.9964132,13.2244036 L39.9964132,42.4415516 Z" id="Fill-55" fill="#C9C9C9"></path>
                                    <path d="M52.0086083,15.8607612 L44.5104017,15.8607612 C44.1748063,15.8607612 43.902439,15.5859995 43.902439,15.2474538 C43.902439,14.9089081 44.1748063,14.6341463 44.5104017,14.6341463 L52.0086083,14.6341463 C52.3442037,14.6341463 52.616571,14.9089081 52.616571,15.2474538 C52.616571,15.5859995 52.3442037,15.8607612 52.0086083,15.8607612" id="Fill-57" fill="#C9C9C9"></path>
                                    <path d="M42.4390244,26.86452 C44.2539957,25.052401 46.4345552,24.1463415 48.980703,24.1463415 C51.5276614,24.1463415 53.6993042,25.052401 55.4948207,26.86452 L54.3007819,28.0706912 C52.8189742,26.5946647 51.0412912,25.8562426 48.9669225,25.8562426 C46.8925538,25.8562426 45.1148709,26.5946647 43.6330631,28.0706912 L42.4390244,26.86452 Z M47.1892396,31.6564953 C47.6715567,31.1715736 48.2641176,30.9287038 48.9677331,30.9287038 C49.6713486,30.9287038 50.2639096,31.1715736 50.7454161,31.6564953 L48.9677331,33.450624 L47.1892396,31.6564953 Z M44.8287231,29.246606 C45.9765567,28.1074897 47.3610904,27.5375226 48.9815136,27.5375226 C50.6027475,27.5375226 51.9775538,28.1074897 53.1067432,29.246606 L51.9402654,30.4519595 C51.1247848,29.6301276 50.1342109,29.2188027 48.9677331,29.2188027 C47.8012554,29.2188027 46.8098709,29.6301276 45.9952009,30.4519595 L44.8287231,29.246606 Z" id="Fill-59" fill="#C9C9C9"></path>
                                    <polygon id="Fill-61" fill="#C9C9C9" points="46.7957819 34.5757124 45.3658537 33.8037628 52.047769 21.2195122 53.4768867 21.9914618"></polygon>
                                </g>
                            </g>
                        </g>
                        <path d="M0.894398918,34.3719381 C0.708767641,34.3727559 0.54015932,34.2435525 0.497196623,34.0530183 C0.0237963356,31.9350633 0.398301357,29.7541421 1.55180925,27.9134021 C2.70450652,26.0726621 4.49678055,24.7953472 6.59789964,24.3177851 C6.81757682,24.2695383 7.03320093,24.4069191 7.08183794,24.626892 C7.13128558,24.8476827 6.9934807,25.0660202 6.77542474,25.1159025 C4.8866873,25.5452177 3.27437022,26.6933292 2.23678055,28.350077 C1.19919088,30.006007 0.861974241,31.967773 1.28835875,33.8739325 C1.33780638,34.0939054 1.2000015,34.3130606 0.981945547,34.3621252 C0.952763337,34.3686672 0.922770511,34.3719381 0.894398918,34.3719381" id="Fill-37" fill="#C9C9C9"></path>
                        <path d="M2.62085713,34.0297079 C2.43522585,34.0297079 2.26661753,33.9005045 2.22365484,33.7099703 C1.47626603,30.3645827 3.56684709,27.0281903 6.88308095,26.2750488 C7.10437937,26.226802 7.31838224,26.3641828 7.36701925,26.5841558 C7.41646689,26.8033109 7.27947263,27.0232839 7.06141667,27.0723485 C4.1804841,27.7273608 2.36632342,30.6246251 3.01481696,33.5308845 C3.06426459,33.7508574 2.92645971,33.9700126 2.70840376,34.0190772 C2.67922155,34.0256192 2.64922872,34.0297079 2.62085713,34.0297079" id="Fill-39" fill="#C9C9C9"></path>
                        <path d="M4.45860692,33.4175298 C4.27297565,33.4183475 4.10436732,33.2891441 4.06221524,33.0977922 C3.81173461,31.9791194 4.00871453,30.8285547 4.61667722,29.8578935 C5.2238293,28.88805 6.16981926,28.2150473 7.28036445,27.9615469 C7.50166288,27.9149356 7.71566575,28.0514987 7.76511338,28.2714716 C7.81375039,28.4914445 7.67675613,28.709782 7.45870018,28.7604821 C6.559726,28.9649179 5.79288239,29.5095349 5.30164853,30.2953861 C4.80960405,31.0812374 4.64991252,32.0118292 4.85337737,32.9187064 C4.90201438,33.1386793 4.76502012,33.3578345 4.54615355,33.4077168 C4.51697134,33.4142588 4.48697851,33.4175298 4.45860692,33.4175298" id="Fill-41" fill="#C9C9C9"></path>
                    </g>
                    <path d="M8.89968,32.5779772 C9.18177469,32.1830073 9.09260683,31.6318483 8.70026823,31.3472737 C8.30874026,31.062699 7.76319506,31.1526508 7.48110037,31.5476208 C7.19900568,31.9434085 7.28817354,32.4937497 7.68051214,32.7783243 C8.07204011,33.062899 8.61758531,32.9729472 8.89968,32.5779772" id="Fill-49" fill="#C9C9C9"></path>
                </g>
            </g>
        </g>
    </g>
</svg>