<?xml version="1.0" encoding="UTF-8"?>
<svg width="65px" height="65px" viewBox="0 0 65 65" version="1.1" xmlns="http://www.w3.org/2000/svg" xmlns:xlink="http://www.w3.org/1999/xlink">
    <!-- Generator: Sketch 52.2 (67145) - http://www.bohemiancoding.com/sketch -->
    <title>审-cut</title>
    <desc>Created with Sketch.</desc>
    <defs>
        <circle id="path-1" cx="30.3859929" cy="30" r="30"></circle>
        <linearGradient x1="3.59013728%" y1="26.0780736%" x2="98.6452312%" y2="26.0780736%" id="linearGradient-3">
            <stop stop-color="#C9C9C9" offset="0%"></stop>
            <stop stop-color="#FFFFFF" stop-opacity="0" offset="100%"></stop>
        </linearGradient>
    </defs>
    <g id="Page-1" stroke="none" stroke-width="1" fill="none" fill-rule="evenodd">
        <g id="ALL" transform="translate(-183.156250, -156.218750)">
            <g id="审" transform="translate(184.000000, 157.000000)">
                <g transform="translate(0.000000, 3.034614)">
                    <g id="分组-16" transform="translate(2.315957, 0.000000)">
                        <mask id="mask-2" fill="white">
                            <use xlink:href="#path-1"></use>
                        </mask>
                        <use id="Mask" fill="#F5F5F5" fill-rule="nonzero" xlink:href="#path-1"></use>
                        <g mask="url(#mask-2)">
                            <g transform="translate(5.898453, 7.902676)">
                                <path d="M48.6065056,38.7419617 C47.9279517,38.2116111 47.1241551,37.9268277 46.2997963,37.9268277 L11.1458462,37.9268277 C10.322422,37.9268277 9.51769081,38.2116111 8.84007159,38.7419617 L3.16115527,43.1929858 C2.35922798,43.8195092 1.88068862,44.8550002 1.88068862,45.9595862 L1.88068862,45.9670559 C1.88068862,47.3750996 2.88636899,48.5170342 4.12758046,48.5170342 L53.3479708,48.5170342 C54.6060059,48.5170342 55.6191634,47.3452207 55.5948626,45.9185027 C55.5761697,44.8363259 55.0994996,43.8307138 54.3153306,43.2153949 L48.6065056,38.7419617 Z" id="Fill-3" fill="#FFFFFF"></path>
                                <path d="M11.174413,38.4299269 C10.4540372,38.4299269 9.75698976,38.6755043 9.15978709,39.1407114 L3.49009431,43.557399 C2.80144499,44.0930359 2.39086816,44.9836018 2.39086816,45.9399638 C2.39086816,47.0863009 3.18776046,48.0139351 4.16754608,48.0139351 L53.307994,48.0139351 C53.7353671,48.0139351 54.1478102,47.8332271 54.4706729,47.5079528 C54.8709853,47.1029817 55.0949363,46.519156 55.0846719,45.9056757 C55.0688087,44.9743347 54.6582319,44.1041564 53.9854457,43.5805667 L48.2858928,39.1407114 C47.6886902,38.6755043 46.9916427,38.4299269 46.271267,38.4299269 L11.174413,38.4299269 Z M53.307994,48.9406425 L4.16754608,48.9406425 C2.67360629,48.9406425 1.45773899,47.5978434 1.45773899,45.9464508 C1.45773899,44.7018827 2.00175329,43.5379382 2.91435361,42.8280803 L8.5840464,38.410466 C9.34734605,37.8173732 10.24315,37.5032194 11.174413,37.5032194 L46.271267,37.5032194 C47.2025299,37.5032194 48.0983339,37.8173732 48.8616335,38.410466 L54.5621196,42.851248 C55.4532579,43.5462786 55.9972722,44.6814952 56.0178011,45.8899216 C56.031798,46.7508328 55.7108016,47.5774559 55.135994,48.1575747 C54.6367699,48.6626303 53.987312,48.9406425 53.307994,48.9406425 Z" id="Fill-5" fill="#BBBBBB"></path>
                                <g id="分组-19" stroke-width="1" fill="none" transform="translate(5.631914, 0.000000)">
                                    <path d="M48.105722,32.8435285 L3.19437169,32.8435285 C2.16548332,32.8435285 1.33044348,32.0107502 1.33044348,30.9846483 L1.33044348,3.77900575 C1.33044348,2.75290382 2.16548332,1.92012545 3.19437169,1.92012545 L48.105722,1.92012545 C49.1355423,1.92012545 49.9696502,2.75290382 49.9696502,3.77900575 L49.9696502,30.9846483 C49.9696502,32.0107502 49.1355423,32.8435285 48.105722,32.8435285" id="Fill-11" fill="#FFFFFF"></path>
                                    <path d="M2.83028852,2.43591867 C2.05431631,2.43591867 1.42284195,3.06813586 1.42284195,3.84502087 L1.42284195,31.3422414 C1.42284195,32.1191264 2.05431631,32.7513436 2.83028852,32.7513436 L48.0468555,32.7513436 C48.8228277,32.7513436 49.4543021,32.1191264 49.4543021,31.3422414 L49.4543021,3.84502087 C49.4543021,3.06813586 48.8228277,2.43591867 48.0468555,2.43591867 L2.83028852,2.43591867 Z M48.0468555,33.6907451 L2.83028852,33.6907451 C1.53731427,33.6907451 0.484544229,32.6367366 0.484544229,31.3422414 L0.484544229,3.84502087 C0.484544229,2.54958624 1.53731427,1.49651719 2.83028852,1.49651719 L48.0468555,1.49651719 C49.3398298,1.49651719 50.3925998,2.54958624 50.3925998,3.84502087 L50.3925998,31.3422414 C50.3925998,32.6367366 49.3398298,33.6907451 48.0468555,33.6907451 Z" id="Fill-13" fill="#C9C9C9"></path>
                                    <path d="M4.29109084,4.67403205 C4.29109084,5.02547896 4.00711469,5.30899155 3.65621421,5.30899155 C3.30621812,5.30899155 3.02224197,5.02547896 3.02224197,4.67403205 C3.02224197,4.32258514 3.30621812,4.03816676 3.65621421,4.03816676 C4.00711469,4.03816676 4.29109084,4.32258514 4.29109084,4.67403205" id="Fill-15" fill="#C9C9C9"></path>
                                    <path d="M7.00330663,4.67403205 C7.00330663,5.02547896 6.71933048,5.30899155 6.36843,5.30899155 C6.01843391,5.30899155 5.73445776,5.02547896 5.73445776,4.67403205 C5.73445776,4.32258514 6.01843391,4.03816676 6.36843,4.03816676 C6.71933048,4.03816676 7.00330663,4.32258514 7.00330663,4.67403205" id="Fill-17" fill="#C9C9C9"></path>
                                    <path d="M9.08109798,5.30899155 C8.73135118,5.30899155 8.44667355,5.02547896 8.44667355,4.67403205 C8.44667355,4.32258514 8.73135118,4.03816676 9.08109798,4.03816676 C9.43174853,4.03816676 9.71552242,4.32258514 9.71552242,4.67403205 C9.71552242,5.02547896 9.43174853,5.30899155 9.08109798,5.30899155 Z" id="Fill-19" fill="#C9C9C9"></path>
                                    <polygon id="Fill-31" fill="#C9C9C9" points="1.33044348 7.85064112 49.9696502 7.85064112 49.9696502 7.00342459 1.33044348 7.00342459"></polygon>
                                    <path d="M23.0849363,35.9278686 C22.7653342,35.9278686 22.505947,35.5400937 22.505947,35.0603633 L22.505947,1.26669135 C22.505947,0.786960879 22.7653342,0.399185976 23.0849363,0.399185976 C23.4045384,0.399185976 23.6639256,0.786960879 23.6639256,1.26669135 L23.6639256,35.0603633 C23.6639256,35.5400937 23.4045384,35.9278686 23.0849363,35.9278686" id="Fill-32" fill="#C9C9C9"></path>
                                    <rect id="矩形" fill="url(#linearGradient-3)" fill-rule="nonzero" x="22.9288966" y="1.08791686" width="17.7638842" height="33.6385741"></rect>
                                </g>
                                <path d="M45.3151003,44.7045599 L29.5021975,44.7045599 C28.8365677,44.7045599 28.3667114,44.2797361 28.5774009,43.8685869 L29.8769638,41.3269373 C30.0102762,41.0671202 30.3822458,40.8920855 30.8017604,40.8920855 L44.0155373,40.8920855 C44.4350519,40.8920855 44.8079538,41.0671202 44.9403339,41.3269373 L46.2398968,43.8685869 C46.4496541,44.2797361 45.9797978,44.7045599 45.3151003,44.7045599" id="Fill-33" fill="#FFFFFF"></path>
                                <path d="M30.831813,41.3676843 C30.5404334,41.3676843 30.3585532,41.4845812 30.3270025,41.5475257 L29.0334257,44.0545149 C29.048273,44.0967777 29.2264414,44.2289611 29.5382361,44.2289611 L45.2783014,44.2289611 C45.5910241,44.2289611 45.7682645,44.0967777 45.7868238,44.0446237 L44.490463,41.5475257 C44.4579844,41.4845812 44.2770321,41.3676843 43.9847245,41.3676843 L30.831813,41.3676843 Z" id="Fill-34" fill="#EEEEEE"></path>
                                <path d="M2.72658786,29.4546625 L3.53212065,42.435481 C3.62151862,43.8808222 5.20975918,44.7359981 6.48700893,44.0274238 L9.81565681,42.1808077 L10.3396811,35.745374 L7.37908656,37.6944233 L7.01959259,31.1311831" id="Fill-35" fill="#FFFFFF"></path>
                                <path d="M5.49822307,44.7045599 C5.10250796,44.7045599 4.70679284,44.6054313 4.34459713,44.4071742 C3.61182585,44.0059842 3.14348537,43.2662608 3.09227518,42.4283441 L2.30363824,29.5117081 L3.23287044,29.4546625 L4.02150738,42.3722336 C4.05316459,42.8856447 4.33994166,43.3392045 4.79059134,43.5860907 C5.23937883,43.8311065 5.7756892,43.828301 6.2216834,43.5776741 L9.26449985,41.8616281 L9.68069904,36.6667314 L6.9013823,38.5258592 L6.50566719,31.1772547 L7.43583048,31.12582 L7.74402272,36.8397388 L10.7626307,34.8206961 L10.1527639,42.43302 L6.67791965,44.3922114 C6.30920628,44.6007555 5.90418022,44.7045599 5.49822307,44.7045599" id="Fill-36" fill="#C9C9C9"></path>
                                <path d="M36.2984947,43.8573433 C36.2984947,43.8573433 37.5261237,43.8573433 40.1805575,44.4186075 C41.9442854,44.7927837 42.6218548,45.8756826 42.8787355,46.5604433 C42.9857691,46.8461443 42.7735633,47.1484344 42.4645619,47.1484344 L38.7202467,47.1484344 C38.7062857,47.1484344 38.6932556,47.1511992 38.6802254,47.1558073 L34.8707593,48.5170342" id="Fill-37" fill="#FFFFFF"></path>
                                <path d="M34.7724199,48.9406425 L34.4478096,48.0807023 L38.5589039,46.6971215 L42.3998077,46.6971215 C42.1191153,46.0656457 41.4908988,45.2075332 39.9566377,44.8940799 C37.3330225,44.3567315 36.086137,44.3475929 36.0737254,44.3475929 L36.0746802,43.4337351 C36.1281454,43.4337351 37.4160846,43.4392182 40.1561776,44.000327 C42.2174531,44.4225293 42.9926989,45.6918778 43.2714819,46.411084 C43.3774576,46.6852413 43.3373587,46.9913837 43.1635967,47.2299006 C42.9898347,47.4684175 42.7043686,47.6109793 42.3998077,47.6109793 L38.6209617,47.6109793 L34.7724199,48.9406425 Z" id="Fill-38" fill="#C9C9C9"></path>
                                <path d="M23.874069,37.0796112 C23.874069,37.0796112 28.1542827,38.6473864 30.0010372,40.5963863 C31.6170651,42.3030429 34.590142,43.2742806 36.0988114,43.5194203 C36.3992268,43.568821 36.6064099,43.8391271 36.5546141,44.1355317 C36.3860425,45.0983806 36.0027538,47.0539052 35.5309415,47.9254092 C35.5309415,47.9254092 34.7135101,49.5425852 28.9472288,47.4295374 C25.617232,46.2075675 24.7545971,45.600777 24.7545971,45.600777" id="Fill-39" fill="#FFFFFF"></path>
                                <path d="M33.7462996,48.9406425 C32.6916058,48.9406425 31.1401494,48.6688256 28.8667189,47.8264715 C25.5701056,46.6028316 24.6701868,45.9757046 24.6331149,45.9488012 L25.1697298,45.1936512 C25.1762174,45.197362 26.0538931,45.7929471 29.1892439,46.9562863 C34.2069172,48.8154026 35.0994217,47.6613404 35.1086897,47.6483526 C35.4089715,47.0861647 35.7583736,45.7623329 36.0577287,44.0349504 L36.0651431,43.5005937 L35.9900726,43.9579511 C34.3709601,43.6917004 31.3662876,42.6591673 29.7267855,40.9085922 C28.0066522,39.0708131 23.9148481,37.5410313 23.874069,37.5252604 L24.1956672,36.6560029 C24.3717585,36.7209421 28.5321455,38.2766996 30.4024198,40.2740436 C31.8843665,41.8557767 34.6462185,42.7964673 36.1402136,43.0432362 C36.4117648,43.0868382 36.647171,43.234343 36.8037995,43.4542085 C36.9567208,43.6694356 37.0160357,43.9319754 36.9706227,44.1926599 C36.7852635,45.2632289 36.4024968,47.1947059 35.9150021,48.1047823 C35.8186154,48.2986722 35.3700461,48.9406425 33.7462996,48.9406425" id="Fill-40" fill="#C9C9C9"></path>
                                <path d="M4.63233946,35.4532685 C2.26946857,33.8347208 1.01986435,31.4750387 0.81112685,28.2360764 L0.639999711,25.5879679 C0.24321041,19.4367397 4.03621525,15.7637378 12.2371543,14.3552092 L12.5568424,16.1949771 C3.12604453,17.8144583 2.30989971,22.2631311 2.51675669,25.4684904 L2.68788383,28.1165988 C2.85995123,30.784309 3.8171349,32.6268772 5.69953343,33.9159282 C8.22506913,35.6436859 12.4712788,36.3334822 18.3234509,35.9601148 C32.1828686,35.0789677 33.654374,30.2261247 33.3882807,26.0966811 L33.2246756,23.5755176 C33.004655,20.1610725 31.5641782,16.1735085 22.3016867,15.6442602 L22.4098165,13.7811568 C30.5599816,14.2469326 34.7121654,17.4112215 35.1014326,23.45604 L35.2650377,25.9772035 C35.7370477,33.299872 30.3916752,37.0634155 18.443804,37.8232182 C17.3540438,37.8922912 16.3169381,37.9268277 15.3343675,37.9268277 C10.5728959,37.9268277 7.05444666,37.1110199 4.63233946,35.4532685 Z" id="Fill-41" fill="#C9C9C9"></path>
                                <path d="M22.3242244,14.6283733 C31.6994076,15.1720426 33.7829891,19.3379789 34.0471708,23.4992122 L34.2086671,26.0407249 C34.521391,30.9629071 32.3640627,36.0760319 18.3811024,36.9780714 C5.09453631,37.8359025 2.17826901,33.1159503 1.86554508,28.1965899 L1.69564731,25.527155 C1.42306407,21.2361183 3.13977839,16.8152782 12.4374808,15.1955577" id="Fill-42" fill="#FFFFFF"></path>
                                <path d="M11.7864012,18.0172394 L11.6165313,15.3293105 C11.5339425,14.016756 12.0519991,12.3634514 14.9951607,11.9456041 C15.6361618,11.8542297 16.3644441,11.7818917 17.1602991,11.7304936 C18.0246651,11.6733846 18.8308436,11.6543483 19.557249,11.6667219 C20.3502884,11.6838546 22.7660084,11.7333491 23.2681103,14.4717242 L23.2821879,14.5859421 L23.4511194,17.2605455 L21.5778571,17.3814262 L21.4126796,14.7667872 C21.2568873,13.9796352 20.9171473,13.5989087 19.5187701,13.5703543 C18.8439828,13.556077 18.0931762,13.5760652 17.2804281,13.6303187 C16.5314986,13.6779095 15.8501417,13.7464403 15.256066,13.8311519 C13.4194055,14.0919495 13.4635154,14.7896308 13.4897936,15.2074781 L13.6596636,17.8963587 L11.7864012,18.0172394 Z" id="Fill-43" fill="#C9C9C9"></path>
                                <path d="M12.6378243,18.0172394 L12.4649801,15.3508332 C12.3647114,13.8080188 13.5230539,13.2046783 15.0824713,12.9894019 C15.6668947,12.9082011 16.3697307,12.8364423 17.2138978,12.7826232 C18.1497392,12.7231389 18.9280155,12.708976 19.5726002,12.7221947 C21.1281978,12.7533531 22.1385245,13.1895712 22.4288263,14.7323855 L22.6007156,17.3865172" id="Fill-44" fill="#FFFFFF"></path>
                                <path d="M25.5658675,41.1124578 C25.5658675,45.5970525 21.9683909,57.836416 17.5298247,57.836416 C13.0912584,57.836416 9.49378184,45.5970525 9.49378184,41.1124578 C9.49378184,36.6278631 13.0912584,35.3851781 17.5298247,35.3851781 C21.9683909,35.3851781 25.5658675,36.6278631 25.5658675,41.1124578" id="Fill-45" fill="#FFFFFF"></path>
                                <path d="M17.5298247,35.8998886 C12.3911584,35.8998886 9.99855677,37.5625894 9.99855677,41.1347689 C9.99855677,45.668725 13.5795735,57.3217055 17.5298247,57.3217055 C21.4800758,57.3217055 25.0610926,45.668725 25.0610926,41.1347689 C25.0610926,37.5625894 22.668491,35.8998886 17.5298247,35.8998886 M17.5298247,58.2600242 C12.5813419,58.2600242 9.07083222,45.2736928 9.07083222,41.1347689 C9.07083222,37.0390076 11.9170911,34.9615699 17.5298247,34.9615699 C23.1425582,34.9615699 25.9888172,37.0390076 25.9888172,41.1347689 C25.9888172,45.2736928 22.4783075,58.2600242 17.5298247,58.2600242" id="Fill-46" fill="#C9C9C9"></path>
                                <path d="M5.26428561,39.1976525 L7.80198335,37.5032194" id="Fill-47" fill="#FFFFFF"></path>
                                <path d="M5.28236084,39.6212607 C5.13344872,39.6212607 4.98718002,39.5406981 4.90435316,39.3945613 C4.77923174,39.1725458 4.84619814,38.8858928 5.05414641,38.7519341 L7.55657483,37.1472395 C7.76452311,37.0132807 8.03591323,37.0844756 8.16191579,37.3064911 C8.28703721,37.5285067 8.22007081,37.8151596 8.01212254,37.9491184 L5.50969412,39.553813 C5.43832204,39.5997149 5.35990087,39.6212607 5.28236084,39.6212607" id="Fill-48" fill="#C9C9C9"></path>
                                <path d="M49.0317284,40.8920855 L50.2046719,40.8920855 C50.7242695,40.8920855 51.186134,41.2501436 51.3535599,41.7850095 L51.7220893,42.9569167 C51.9924725,43.8134129 51.4064819,44.7045599 50.5741635,44.7045599 L48.773854,44.7045599 C47.9886843,44.7045599 47.4103914,43.9075919 47.5932128,43.0768617 L47.8510872,41.9049545 C47.9819488,41.3114488 48.4707554,40.8920855 49.0317284,40.8920855" id="Fill-50" fill="#FFFFFF"></path>
                                <path d="M49.0456871,41.0056135 C48.7258487,41.0056135 48.4342312,41.304405 48.3523902,41.7156037 L48.1002822,42.9837864 C48.0334924,43.3190862 48.1087486,43.6649543 48.3034737,43.9080226 C48.3806113,44.0040971 48.5480561,44.1674236 48.7935792,44.1674236 L50.5536315,44.1674236 C50.8142058,44.1674236 50.9863541,43.9868037 51.065373,43.8782395 C51.2610389,43.6130741 51.3221845,43.2345407 51.2243516,42.8925157 L50.8640629,41.6252937 C50.7587044,41.2544463 50.4896638,41.0056135 50.1924021,41.0056135 L49.0456871,41.0056135 Z M50.5536315,45.1281681 L48.7935792,45.1281681 C48.3241692,45.1281681 47.8905058,44.9100791 47.5753709,44.5152131 C47.2037938,44.0521343 47.0561037,43.4074747 47.1783949,42.7916375 L47.4305029,41.5244155 C47.6045326,40.6530203 48.2686678,40.044869 49.0456871,40.044869 L50.1924021,40.044869 C50.9120387,40.044869 51.5451307,40.5723177 51.768077,41.3562852 L52.1274249,42.624468 C52.3089803,43.2604808 52.193274,43.9454917 51.8179341,44.455647 C51.5037399,44.8831783 51.0427962,45.1281681 50.5536315,45.1281681 Z" id="Fill-51" fill="#BBBBBB"></path>
                                <path d="M49.6739961,41.9511062 L49.6739961,41.5274979" id="Fill-52" fill="#FFFFFF"></path>
                                <path d="M49.6739961,42.5865186 C49.4405279,42.5865186 49.2510465,42.3967421 49.2510465,42.1629103 L49.2510465,41.739302 C49.2510465,41.5054703 49.4405279,41.3156938 49.6739961,41.3156938 C49.9074643,41.3156938 50.0969457,41.5054703 50.0969457,41.739302 L50.0969457,42.1629103 C50.0969457,42.3967421 49.9074643,42.5865186 49.6739961,42.5865186" id="Fill-53" fill="#BBBBBB"></path>
                                <path d="M8.73841653,40.044869 L26.3601112,40.5415951 C29.1817261,40.5415951 31.4692932,43.1816898 31.4692932,46.4372724 L31.4871575,57.1720236 C31.4899781,58.7112148 30.2479411,59.9591568 28.7134941,59.954444 C25.2788526,59.9431333 19.5961334,59.8969482 17.2089025,59.7206905 C15.1084401,59.565169 10.1675583,58.8045277 7.34218259,58.3549293 C6.14245564,58.1635908 5.26428561,57.126781 5.26428561,55.9090008 L5.26428561,44.0535525 C5.26428561,41.8394924 6.81941755,40.044869 8.73841653,40.044869" id="Fill-55" fill="#C9C9C9"></path>
                            </g>
                        </g>
                    </g>
                    <g id="分组-17" transform="translate(0.629312, 18.050517)">
                        <path d="M15.7710665,6.5670374 C16.6600269,10.6826922 14.0498877,14.7405669 9.94080993,15.630003 C5.83267783,16.5213335 1.78128788,13.9060693 0.892327437,9.79136168 C0.00336699138,5.67665407 2.61350617,1.61783223 6.72258398,0.728396122 C10.8307161,-0.161987201 14.8830517,2.45232979 15.7710665,6.5670374" id="Fill-56" fill="#FFFFFF"></path>
                        <path d="M8.34618631,1.07253362 C7.84251021,1.07253362 7.33601503,1.12712042 6.83233894,1.23535285 C4.98020166,1.63722458 3.39493753,2.73648965 2.36879145,4.33174162 C1.34264538,5.92605243 0.998717298,7.82717866 1.39902703,9.68124731 C1.79933676,11.535316 2.89783929,13.1239799 4.48968128,14.1507763 C6.08246296,15.1775727 7.97782618,15.521093 9.83184285,15.1229859 C11.6839801,14.7211141 13.2683046,13.6218491 14.2944506,12.0265971 C15.3205967,10.4313451 15.6654645,8.53116006 15.2642151,6.67615025 C14.8639053,4.8220816 13.7663425,3.2353 12.1735608,2.2066213 C11.0139782,1.45840578 9.6937078,1.07253362 8.34618631,1.07253362 M8.3151764,16.2278978 C6.7900527,16.2278978 5.29405952,15.7893212 3.98130671,14.9422848 C2.17803353,13.7780802 0.933878398,11.9804807 0.480006095,9.8798303 C0.0261337931,7.78012108 0.417046583,5.62864852 1.57850862,3.82163745 C2.74091036,2.01462637 4.5357263,0.770423959 6.63312377,0.315847736 C8.73052124,-0.139669639 10.8786622,0.252790578 12.6828751,1.41511281 C14.4861483,2.58025849 15.7293637,4.37785804 16.183236,6.47756727 C16.6371083,8.57821764 16.2471352,10.7296902 15.0847335,12.5367013 C13.9223317,14.3437123 12.1275158,15.5879148 10.0301183,16.0415498 C9.45972394,16.1657818 8.88557078,16.2269567 8.3151764,16.2278978" id="Fill-57" fill="#C9C9C9"></path>
                        <path d="M3.71391304,4.74271188 C3.50311527,4.74271188 3.31339727,4.58512953 3.26665516,4.35368045 C3.21349746,4.08874512 3.37022102,3.82577957 3.61767927,3.76964085 L10.3137163,2.21253023 C10.5630076,2.15442173 10.8049668,2.32283787 10.859041,2.58875809 C10.9121987,2.85467831 10.7554751,3.11764387 10.5080169,3.17378258 L3.81106332,4.73089321 C3.7789854,4.73877233 3.74599096,4.74271188 3.71391304,4.74271188" id="Fill-58" fill="#C9C9C9"></path>
                        <path d="M6.04013597,13.6862483 C5.8293382,13.6862483 5.6396202,13.5285656 5.59287809,13.2969692 C5.53972039,13.0318653 5.69644395,12.7687324 5.9439022,12.7125579 L12.6408558,11.1554417 C12.8837315,11.0992673 13.1321062,11.2668051 13.1852639,11.5319091 C13.2384216,11.7979985 13.0816981,12.0611315 12.8342398,12.1173059 L6.13728625,13.6744221 C6.10520832,13.6823062 6.07221389,13.6862483 6.04013597,13.6862483" id="Fill-59" fill="#C9C9C9"></path>
                        <path d="M11.6716608,12.4154235 C11.5371623,12.4154235 11.403598,12.3575434 11.3120643,12.2464511 L5.05602036,4.70804071 C4.8906994,4.50919471 4.9187199,4.21512669 5.11673144,4.05082202 C5.31474299,3.8855838 5.60989227,3.91452382 5.77427921,4.11150272 L12.0303232,11.6508466 C12.1956441,11.8496926 12.1676236,12.1437607 11.9696121,12.3080653 C11.8827485,12.3799486 11.7762706,12.4154235 11.6716608,12.4154235" id="Fill-60" fill="#C9C9C9"></path>
                        <path d="M6.97159493,13.2455 C6.73236955,13.1769398 6.59027327,12.9150782 6.65592535,12.6608344 L9.13991218,3.02242172 C9.20556426,2.7691301 9.45198439,2.62058314 9.69210911,2.68914327 C9.93133449,2.75770341 10.0725314,3.01956505 10.0077787,3.27380889 L7.52379186,12.9122215 C7.4689319,13.1236153 7.28816385,13.26264 7.09030828,13.26264 C7.05073716,13.26264 7.01116605,13.2569267 6.97159493,13.2455 Z" id="Fill-61" fill="#C9C9C9"></path>
                        <path d="M6.21694884,5.00377403 C6.21694884,5.00377403 7.15604263,5.64694832 7.86562266,5.11802858 C8.90321611,4.34188564 9.39188915,4.29559285 9.57741277,4.41871197 C9.7638927,4.54281605 8.76168262,7.75573262 8.76168262,7.75573262 L6.97721316,5.98774205 L6.21694884,5.00377403 Z" id="Fill-62" fill="#C9C9C9"></path>
                        <path d="M7.13459614,12.3846656 C7.13459614,12.3846656 9.55375361,11.1724093 11.2923443,11.7021966 L9.43174724,12.3773074 L6.63989846,12.8390318 L7.13459614,12.3846656 Z" id="Fill-63" fill="#C9C9C9"></path>
                    </g>
                    <g id="分组-18" transform="translate(47.359892, 24.538326)" fill="#C9C9C9">
                        <path d="M7.67058152,5.04394375 C7.43711333,5.04394375 7.2476319,4.84716181 7.2476319,4.60469835 L7.2476319,3.36514784 C7.2476319,3.12180589 7.43711333,2.92590244 7.67058152,2.92590244 C7.90404971,2.92590244 8.09353115,3.12180589 8.09353115,3.36514784 L8.09353115,4.60469835 C8.09353115,4.84716181 7.90404971,5.04394375 7.67058152,5.04394375" id="Fill-21"></path>
                        <path d="M3.47919993,6.73837679 C3.22469246,6.73837679 3.01813566,6.51370059 3.01813566,6.23686741 L3.01813566,4.79753547 C3.01813566,4.46553626 3.26618824,4.19672723 3.57141279,4.19672723 L11.3477228,4.19672723 C11.6520252,4.19672723 11.9000778,4.46553626 11.9000778,4.79753547 L11.9000778,6.12452931 C11.9000778,6.40136249 11.6944431,6.62603869 11.4390135,6.62603869 C11.184506,6.62603869 10.9779492,6.40136249 10.9779492,6.12452931 L10.9779492,5.199746 L3.9402642,5.199746 L3.9402642,6.23686741 C3.9402642,6.51370059 3.73370741,6.73837679 3.47919993,6.73837679" id="Fill-23"></path>
                        <path d="M7.67058152,14.3633255 C7.43711333,14.3633255 7.2476319,14.1562536 7.2476319,13.9011114 L7.2476319,5.92976616 C7.2476319,5.67462395 7.43711333,5.46755201 7.67058152,5.46755201 C7.90404971,5.46755201 8.09353115,5.67462395 8.09353115,5.92976616 L8.09353115,13.9011114 C8.09353115,14.1562536 7.90404971,14.3633255 7.67058152,14.3633255" id="Fill-25"></path>
                        <path d="M5.24334321,10.4768464 L10.0978198,10.4768464 L10.0978198,7.23506861 L5.24334321,7.23506861 L5.24334321,10.4768464 Z M10.4803633,11.3980677 L4.86079974,11.3980677 C4.54424502,11.3980677 4.28698453,11.1511804 4.28698453,10.8462561 L4.28698453,6.86658009 C4.28698453,6.56165584 4.54424502,6.31476853 4.86079974,6.31476853 L10.4803633,6.31476853 C10.796918,6.31476853 11.0541785,6.56165584 11.0541785,6.86658009 L11.0541785,10.8462561 C11.0541785,11.1511804 10.796918,11.3980677 10.4803633,11.3980677 Z" id="Fill-27"></path>
                        <path d="M10.1642596,9.28002636 L4.75395379,9.28002636 C4.49618676,9.28002636 4.28698453,9.09024986 4.28698453,8.8564181 C4.28698453,8.62258634 4.49618676,8.43280984 4.75395379,8.43280984 L10.1642596,8.43280984 C10.4220267,8.43280984 10.6312289,8.62258634 10.6312289,8.8564181 C10.6312289,9.09024986 10.4220267,9.28002636 10.1642596,9.28002636" id="Fill-29"></path>
                        <path d="M7.67105022,1.32317033 C3.98988085,1.32317033 0.99488819,4.32207271 0.99488819,8.00920158 C0.99488819,11.6963305 3.98988085,14.6952328 7.67105022,14.6952328 C11.3522196,14.6952328 14.3462749,11.6963305 14.3462749,8.00920158 C14.3462749,4.32207271 11.3522196,1.32317033 7.67105022,1.32317033 M7.67105022,15.6341503 C3.4733735,15.6341503 0.0574882983,12.213674 0.0574882983,8.00920158 C0.0574882983,3.8056681 3.4733735,0.384252871 7.67105022,0.384252871 C11.8687269,0.384252871 15.2836747,3.8056681 15.2836747,8.00920158 C15.2836747,12.213674 11.8687269,15.6341503 7.67105022,15.6341503" id="Fill-30"></path>
                    </g>
                </g>
            </g>
        </g>
    </g>
</svg>