<?xml version="1.0" encoding="UTF-8"?>
<svg width="120px" height="120px" viewBox="0 0 120 120" version="1.1" xmlns="http://www.w3.org/2000/svg" xmlns:xlink="http://www.w3.org/1999/xlink">
    <!-- Generator: Sketch 52.2 (67145) - http://www.bohemiancoding.com/sketch -->
    <title>专业点检</title>
    <desc>Created with Sketch.</desc>
    <defs>
        <linearGradient x1="50%" y1="0%" x2="50%" y2="100%" id="linearGradient-1">
            <stop stop-color="#00CDB5" offset="0%"></stop>
            <stop stop-color="#00E6CD" offset="100%"></stop>
        </linearGradient>
    </defs>
    <g id="专业点检" stroke="none" stroke-width="1" fill="none" fill-rule="evenodd">
        <g id="商旅出行" fill="url(#linearGradient-1)">
            <g id="Group-8">
                <path d="M103.284916,101.062953 C103.284916,101.573426 102.872074,101.989058 102.358811,101.989058 C101.848337,101.989058 101.435495,101.573426 101.435495,101.062953 L101.435495,88.6023737 C101.435495,88.0919 101.848337,87.6762684 102.358811,87.6762684 C102.872074,87.6762684 103.284916,88.0919 103.284916,88.6023737 L103.284916,101.062953 Z M100.972442,80.3762158 L87.2649684,80.3762158 L87.2649684,78.8420053 C87.2649684,77.7736368 88.1324947,76.9061105 89.2008632,76.9061105 L99.0337579,76.9061105 C100.102126,76.9061105 100.972442,77.7736368 100.972442,78.8420053 L100.972442,80.3762158 Z M86.8019158,101.062953 C86.8019158,101.573426 86.3862842,101.989058 85.8758105,101.989058 C85.3653368,101.989058 84.9497053,101.573426 84.9497053,101.062953 L84.9497053,88.6023737 C84.9497053,88.0919 85.3653368,87.6762684 85.8758105,87.6762684 C86.3862842,87.6762684 86.8019158,88.0919 86.8019158,88.6023737 L86.8019158,101.062953 Z M105.831705,80.3762158 C107.667179,80.3762158 109.156758,81.8657947 109.156758,83.7012684 L109.156758,107.177479 C109.156758,109.012953 107.667179,110.502532 105.831705,110.502532 L103.747968,110.502532 L103.747968,110.823321 C103.747968,111.590426 103.125916,112.209689 102.358811,112.209689 C101.594495,112.209689 100.972442,111.590426 100.972442,110.823321 L100.972442,110.502532 L87.2649684,110.502532 L87.2649684,110.823321 C87.2649684,111.590426 86.6429158,112.209689 85.8758105,112.209689 C85.1087053,112.209689 84.4866526,111.590426 84.4866526,110.823321 L84.4866526,110.502532 L82.4057053,110.502532 C80.5702316,110.502532 79.0806526,109.012953 79.0806526,107.177479 L79.0806526,83.7012684 C79.0806526,81.8657947 80.5702316,80.3762158 82.4057053,80.3762158 L84.4866526,80.3762158 L84.4866526,78.8420053 C84.4866526,76.2450053 86.6038632,74.1305842 89.2008632,74.1305842 L99.0337579,74.1305842 C101.633547,74.1305842 103.747968,76.2450053 103.747968,78.8420053 L103.747968,80.3762158 L105.831705,80.3762158 Z M63.6955895,64.8003526 C72.0361158,65.2689842 79.6960105,66.9761421 86.0671684,69.5815105 C74.5466421,72.6889842 73.7237474,79.0824579 73.7237474,91.5486158 C73.7237474,95.8416158 73.6679579,105.744247 73.6400632,108.829405 C70.1699579,109.125089 62.8364316,109.415195 59.1013263,109.415195 C34.1969053,109.415195 14.0011158,102.8683 14.0011158,89.2724053 C14.0011158,76.2093 32.6543263,65.5535105 56.2058526,64.7361947 C56.1946947,64.8617211 56.1695895,64.9816684 56.1695895,65.1127737 C56.1695895,66.5605105 56.9952737,67.8046158 58.1975368,68.4350368 L54.0133263,86.4996684 C53.8515368,87.1998263 53.9854316,87.9362474 54.3871158,88.5359842 L58.6466421,94.8959842 C59.2686947,95.8220895 60.6271684,95.8220895 61.2464316,94.8959842 L65.5143263,88.5248263 C65.9132211,87.9334579 66.0499053,87.2026158 65.8936947,86.5080368 L61.8294316,68.3653 C62.9591684,67.7125632 63.7262737,66.5075105 63.7262737,65.1127737 C63.7262737,65.0039842 63.7039579,64.9035632 63.6955895,64.8003526 Z M84.2520579,34.2372053 C84.2520579,48.4161 72.9853737,59.9115211 59.0910053,59.9115211 C45.1938474,59.9115211 33.9271632,48.4161 33.9271632,34.2372053 C33.9271632,20.0583105 45.1938474,8.56288947 59.0910053,8.56288947 C72.9853737,8.56288947 84.2520579,20.0583105 84.2520579,34.2372053 Z" id="Fill-3"></path>
            </g>
        </g>
    </g>
</svg>