<?xml version="1.0" encoding="UTF-8"?>
<svg width="120px" height="120px" viewBox="0 0 120 120" version="1.1" xmlns="http://www.w3.org/2000/svg" xmlns:xlink="http://www.w3.org/1999/xlink">
    <!-- Generator: Sketch 52.2 (67145) - http://www.bohemiancoding.com/sketch -->
    <title>日常巡检</title>
    <desc>Created with Sketch.</desc>
    <defs>
        <linearGradient x1="50%" y1="0%" x2="50%" y2="100%" id="linearGradient-1">
            <stop stop-color="#47BAEE" offset="0%"></stop>
            <stop stop-color="#5BCCFF" offset="100%"></stop>
        </linearGradient>
    </defs>
    <g id="日常巡检" stroke="none" stroke-width="1" fill="none" fill-rule="evenodd">
        <path d="M76,35 C76,48.2529955 65.2551213,59 51.9986305,59 C38.7421398,59 28,48.2529955 28,35 C28,21.7442657 38.7421398,11 51.9986305,11 C65.2551213,11 76,21.7442657 76,35 M99.6527459,80.7243721 L88.1165128,94.3931405 C88.1165128,94.3931405 87.110446,95.7678409 85.9171389,94.37917 L80.2552184,86.7344949 C80.2552184,86.7344949 79.5817125,85.7006756 80.4228962,85.080384 C80.7079484,84.8736201 81.3507134,84.5467096 82.1415937,85.2564127 L87.1886956,89.2743376 L98.1743865,79.3971716 C98.1743865,79.3971716 99.0127756,78.6287923 99.7505579,79.2295252 C99.9685391,79.408348 100.22285,79.9196695 99.6527459,80.7243721 M90.0013954,67 C101.044443,67 110,75.9527663 110,86.9986046 C110,98.0444429 101.044443,107 90.0013954,107 C78.9527663,107 70,98.0444429 70,86.9986046 C70,75.9527663 78.9527663,67 90.0013954,67 Z M65.8751684,87 C65.8751684,97.530179 72.7157611,106.369565 82,109 L14.6582847,109 C12.1418949,109 10.0053884,106.915345 10,104.287724 L10,104.237084 L10,101.930179 C10,81.6181586 25.9146834,65 45.3668612,65 L56.0628648,65 C62.3565335,65 68.2649304,66.758312 73.3973956,69.7994885 C68.7956893,73.9828645 65.8751684,80.1299233 65.8751684,87 Z" id="转正申请" fill="url(#linearGradient-1)"></path>
    </g>
</svg>