<?xml version="1.0" encoding="UTF-8"?>
<svg width="40px" height="32px" viewBox="0 0 40 32" version="1.1" xmlns="http://www.w3.org/2000/svg" xmlns:xlink="http://www.w3.org/1999/xlink">
    <!-- Generator: Sketch 53.1 (72631) - https://sketchapp.com -->
    <title>图片</title>
    <desc>Created with Sketch.</desc>
    <g id="我的应用" stroke="none" stroke-width="1" fill="none" fill-rule="evenodd" opacity="0.4">
        <g id="我的应用-功能服务发布" transform="translate(-743.000000, -408.000000)" fill-rule="nonzero">
            <g id="图片" transform="translate(742.000000, 404.000000)">
                <rect id="矩形" fill="#000000" opacity="0" x="0" y="0" width="40" height="40"></rect>
                <path d="M1,11.512762 L1,29.6794286 C1,31.8460953 2.33333332,33.1794286 4.33333332,33.1794286 L29.3333333,33.1794286 C31.3333333,33.1794286 32.6666666,31.8460953 32.6666667,29.8460953 L32.6666667,11.512762 C32.6666667,9.51276198 31.3333334,8.17942866 29.3333333,8.17942862 L4.33333332,8.17942862 C2.33333332,8.17942862 1,9.3460953 1,11.512762 Z M29.8333333,27.512762 L4.83333332,27.512762 C7.5,23.512762 12.5,17.012762 13.6666667,17.012762 C14.8333334,17.012762 19,22.3460953 20.8333333,24.1794286 C20.8333333,24.1794286 23.1666666,21.0127619 24.5,21.012762 C25.6666667,21.012762 29.8333333,27.512762 29.8333333,27.512762 L29.8333333,27.512762 Z M22.5,13.6794286 C22.5,12.0127619 23.8333333,10.6794286 25.5,10.6794286 C27.1666667,10.6794286 28.5,12.0127619 28.5,13.6794286 C28.5,15.3460953 27.1666667,16.6794286 25.5,16.6794286 C23.8333333,16.6794286 22.5,15.3460953 22.5,13.6794286 Z M19.3333333,6.51276198 L11.5,4.01276198 C10,3.8460953 9.66666668,5.3460953 9.33333332,6.51276198 L19.3333333,6.51276198 Z M38.8333333,9.17942862 L34.3333333,8.17942862 L34.3333333,9.8460953 L35.1666667,30.8460953 C35.1666667,31.8460953 35.1666667,33.012762 34.3333333,33.8460953 C33.5,34.6794286 32.3333333,34.6794286 31.3333333,34.6794286 L29.3333333,34.8460953 L33.8333333,35.512762 C35.8333333,35.8460953 36.3333333,35.6794287 36.6666667,33.512762 L40.8333333,12.012762 C41.1666666,10.012762 41,9.51276198 38.8333333,9.17942862 Z" id="形状" fill="#999999"></path>
            </g>
        </g>
    </g>
</svg>